<svg xmlns="http://www.w3.org/2000/svg" xmlns:xlink="http://www.w3.org/1999/xlink" viewBox="0 0 27 26">
<style type="text/css">
	.st0{fill:#995397;}
</style>
<g id="XMLID_22_">
	<path id="XMLID_60_" class="st0" d="M22.2,3v2.1c0,2-1.6,3.5-3.5,3.5S15.1,7,15.1,5.1V3h-2.9v2.1c0,2-1.6,3.5-3.5,3.5
		S5.1,7,5.1,5.1V3H0V26h27V3H22.2z M8.8,22.8H4.2v-4h4.5V22.8z M8.8,15.7H4.2v-4h4.5V15.7z M15.8,22.8h-4.5v-4h4.5V22.8z M15.8,15.7
		h-4.5v-4h4.5V15.7z M18.2,22.8v-4h4.5L18.2,22.8z M22.8,15.7h-4.5v-4h4.5V15.7z"/>
	<path id="XMLID_82_" class="st0" d="M8.6,6.9c1,0,1.8-0.8,1.8-1.8V1.8c0-1-0.8-1.8-1.8-1.8S6.8,0.8,6.8,1.8v3.3
		C6.8,6.1,7.6,6.9,8.6,6.9z"/>
	<path id="XMLID_83_" class="st0" d="M18.6,6.9c1,0,1.8-0.8,1.8-1.8V1.8c0-1-0.8-1.8-1.8-1.8s-1.8,0.8-1.8,1.8v3.3
		C16.8,6.1,17.6,6.9,18.6,6.9z"/>
</g>
</svg>
