<svg xmlns="http://www.w3.org/2000/svg" xmlns:xlink="http://www.w3.org/1999/xlink" viewBox="0 0 26.4 26">
<style type="text/css">
	.st0{fill:#895493;}
</style>
<g id="XMLID_383_">
	<path id="XMLID_387_" class="st0" d="M13.2,0C5.9,0,0,5.8,0,13c0,7.2,5.9,13,13.2,13c7.3,0,13.2-5.8,13.2-13
		C26.4,5.8,20.5,0,13.2,0z M13.2,24.2c-6.3,0-11.4-5-11.4-11.2c0-6.2,5.1-11.2,11.4-11.2c6.3,0,11.4,5,11.4,11.2
		C24.6,19.2,19.5,24.2,13.2,24.2z"/>
	<path id="XMLID_384_" class="st0" d="M19.4,9.4c-0.3-0.1-0.6,0.3-0.7,0.5h0c-0.3,0.6-0.5,1.3-0.8,1.9v0c-0.2,0.3-0.4,0.6-0.6,1
		c-0.1,0.2-0.2,0.4-0.3,0.5l0,0c-0.2,0.2-0.4,0.4-0.6,0.2l0-0.1c-0.1-0.3,0-0.6,0-1.1c0,0,0.3-2,0.4-3c0,0,0,0,0,0
		C17,8.6,17,7.4,17,6.6C17,6.3,16.9,6,16.6,6C16.3,6,16,6.2,16,6.5h0c-0.2,1.1-0.4,2.3-0.6,3.4c-0.2,0.7-0.3,1.4-0.4,2.1
		c0,0.1,0,0.1-0.1,0.2l0,0c-0.3,0-0.3-0.5-0.3-0.7c0-1.8,0-3.6,0-5.4c0-0.2,0-0.4,0-0.7c0-0.3,0-0.5-0.3-0.6c-0.3-0.1-0.5,0-0.6,0.3
		c-0.1,0.2-0.2,0.6-0.2,0.7c-0.2,1.2-0.3,2-0.4,3.3c-0.1,1,0.1,2-0.1,2.9c-0.4,0.1-0.5-0.2-0.6-0.5c-0.3-1.8-1.1-3.4-1.3-5.2
		c0-0.2-0.1-0.4-0.2-0.5c-0.1-0.3-0.4-0.5-0.7-0.3C9.9,5.6,9.9,5.9,9.9,6.2c0.1,1.8,0.4,3.6,0.8,5.4c0,0,0,0,0,0c0,0,0,0,0,0
		c0.2,0.7,0,1.4,0.1,2.2h0c-0.1,0.3-0.1,0.5-0.2,0.8c-0.5,0.9-0.9,1-1.7,0.3c-0.4-0.4-0.7-0.9-1.1-1.4c-0.4-0.6-0.8-1.1-1.5-1.4
		c-0.2-0.1-0.5-0.1-0.7,0c-0.3,0.2-0.2,0.5,0,0.8l0,0c0.1,0.2,0.2,0.3,0.3,0.5h0c0.9,1.5,2,3,2.8,4.6h0l0,0c0.1,0.3,0.3,0.5,0.5,0.8
		c0,0,0,0,0,0c0,0.1,0.1,0.2,0.1,0.2c0.7,1.6,2,2.3,3.8,2.2c0.3,0,0.6,0.1,0.9,0.1c1.3,0.2,1.8-0.6,2-1c0,0,0,0,0,0
		c0.3-0.5,0.5-1.1,0.8-1.7c0,0,0,0,0,0c0.2-0.5,0.5-1.7,0.5-1.7c0.1-0.3,0.3-0.7,0.3-0.8c0.1-0.2,0.3-1,0.4-1.3
		c0.1-0.2,0.2-0.5,0.4-0.7c0.2-0.5,0.6-1.3,0.7-1.5c0,0,0,0,0,0c0.1-0.2,0.1-0.5,0.2-0.7c0,0,0,0,0,0h0c0-0.1,0.1-0.3,0.1-0.4
		c0.1-0.2,0.1-0.2,0.1-0.4l0,0l0,0c0-0.2,0.1-0.4,0.1-0.5C19.8,10,19.9,9.6,19.4,9.4z M15.2,14.7C15.2,14.7,15.2,14.7,15.2,14.7
		L15.2,14.7C15.2,14.7,15.2,14.7,15.2,14.7C15.2,14.7,15.2,14.7,15.2,14.7z M17.1,15.1C17.1,15.1,17.1,15.1,17.1,15.1
		C17.1,15.1,17.1,15.1,17.1,15.1C17.1,15.1,17.1,15.1,17.1,15.1C17.1,15.1,17.1,15.1,17.1,15.1z"/>
</g>
</svg>
