<svg xmlns="http://www.w3.org/2000/svg" xmlns:xlink="http://www.w3.org/1999/xlink" viewBox="0 0 40.3 39.7">
<style type="text/css">
	.st0{fill:#057FC2;}
	.st1{fill:#009841;}
	.st2{fill:#E94C2E;}
	.st3{fill:#EDB804;}
	.st4{fill:#E53730;}
	.st5{fill:#009441;}
	.st6{fill:#035B30;}
	.st7{fill:#E8448B;}
	.st8{fill:#F8B608;}
	.st9{fill:#E73C70;}
	.st10{fill:#EECB02;}
	.st11{fill:#7A2A83;}
	.st12{fill:#E84172;}
	.st13{fill:#F7CB00;}
	.st14{fill:#E59A08;}
	.st15{fill:#ECAF11;}
	.st16{fill:#F09A24;}
	.st17{fill:#EA5B99;}
	.st18{fill:#772D77;}
	.st19{fill:#EF8C20;}
	.st20{fill:#009B5C;}
	.st21{fill:#842B7F;}
	.st22{fill:#E24632;}
	.st23{fill:#ED6D31;}
	.st24{fill:#6F2B76;}
	.st25{fill:#BD4793;}
	.st26{fill:#A22884;}
	.st27{fill:#6B2470;}
	.st28{fill:#075E34;}
	.st29{fill:#67A64E;}
	.st30{fill:#02A2B0;}
	.st31{fill:#05A2AE;}
	.st32{fill:#05818F;}
	.st33{fill:#047086;}
	.st34{fill:#019884;}
	.st35{fill:#0695A1;}
	.st36{fill:#068098;}
	.st37{fill:#E9CD01;}
	.st38{fill:#D5AB05;}
	.st39{fill:#036E7E;}
	.st40{fill:#01963F;}
	.st41{fill:#027739;}
	.st42{fill:#037E3E;}
	.st43{fill:#046833;}
	.st44{fill:#C75324;}
	.st45{fill:#0391A7;}
	.st46{fill:#029A55;}
	.st47{fill:#F5E336;}
	.st48{fill:#088CA9;}
	.st49{fill:#048A9E;}
	.st50{fill:#06688D;}
</style>
<g id="XMLID_1_">
	<path id="XMLID_450_" class="st0" d="M20.1,0C9,0,0,8.9,0,19.8c0,11,9,19.8,20.1,19.8s20.1-8.9,20.1-19.8C40.3,8.9,31.2,0,20.1,0z
		 M20.1,36.9c-9.6,0-17.4-7.7-17.4-17.1c0-9.4,7.8-17.1,17.4-17.1s17.4,7.7,17.4,17.1C37.5,29.3,29.7,36.9,20.1,36.9z"/>
	<g id="XMLID_398_">
		<path id="XMLID_449_" class="st1" d="M9.5,18c1.1,0.4,1.8,1.3,2.4,2.3c0.5,0.8,1,1.6,1.7,2.3c1.1,1.2,1.9,1,2.6-0.5
			c0.2-0.4,0.2-0.8,0.3-1.3c0.1-0.1,0.2-0.1,0.3-0.1c0.2,0.1,0.4,0.2,0.5,0.5c0.1,0.4,0.1,0.9,0.1,1.4c0,0.3,0,0.6,0,0.8
			c0,0.2,0,0.4-0.1,0.6c-0.1,0.2-0.3,0.5-0.1,0.7c0.4,0.7,0,1-0.4,1.5c-0.3,0.4-0.6,0.9-1.2,0.8c-0.4-0.3-0.8-0.6-1.3-0.2
			c-0.4,0.2-0.7,0.7-1.2,0.6c-1.3-2.5-3-4.8-4.4-7.2C9.6,19.6,9.2,18.7,9.5,18z"/>
		<path id="XMLID_448_" class="st2" d="M20.1,17.7c0.4-1.5,0.1-3.1,0.2-4.6c0.1-1.9,0.2-3.3,0.6-5.2c0-0.2,0.1-0.8,0.3-1.1
			C22,7.1,22.1,8,22.7,8.4c0,2.9,0,5.8,0,8.6c0,0.4,0,1.1,0.4,1.2c0.6,0.4,0.9,1,1.4,1.5c0.2,0.3,0.3,0.6-0.1,0.8
			c-0.6,0.2-1.2,0.1-1.8-0.1c-0.2-0.1-0.4-0.2-0.6-0.3c-0.4-0.3-0.9-0.3-1.3-0.6C20.3,18.9,20,18.4,20.1,17.7z"/>
		<path id="XMLID_447_" class="st3" d="M26,28.3c-0.3,1-0.9,2.5-1.6,3.3c-0.8-0.2-1.2-0.1-2-0.4c-0.2-0.1-0.3-0.3-0.3-0.5
			c0-0.7,0.7-0.7,1.1-1c0.2-0.1,0.4-0.3,0.3-0.5c-0.1-0.3-0.4-0.3-0.6-0.2c-0.7,0.4-1.1,0.9-0.8,1.7c-0.1,0.3-0.4,0.5-0.7,0.6
			c-0.8,0.4-1,0.3-1.1-0.7c0.1-0.7,0.3-1.4-0.1-2.1c-0.3-1.1-0.1-2.1,0.3-3.1c0.7-0.5,1.2-1.4,2.2-1.6c0.5,0.4,1.1,0.5,1.7,0.6
			c0.5,0,1,0.1,1,0.8c-0.2,0.2-0.5,0.1-0.8,0.3c0.9,0.3,1.1,0.9,0.5,1.7c-0.4,0.6-0.3,1,0.6,0.7C26.1,27.7,26.1,28,26,28.3z"/>
		<path id="XMLID_446_" class="st4" d="M15.7,26.9c0.4-0.2,0.6-0.6,1-0.7c0.4,0,0.6,0.3,0.7,0.6c0.4,1,1,2,1.6,2.9
			c0.1,0.4,0.3,0.7,0.4,1.1c0.3,1.2,0.3,1.2,1.4,1c0.2-0.1,0.4-0.1,0.7-0.1c0.9,0.3,2-0.2,2.9,0.1c-0.6,1.3-1.4,1.2-2.8,1
			c-0.5-0.1-0.9-0.4-1.5-0.4c-2.8,0.2-4.9-1-6-3.5c-0.1-0.1-0.2-0.6-0.3-0.7c-0.1-0.5,0.2-0.6,0.6-0.9c0.3-0.2,0.7-0.3,1-0.5
			C15.5,26.8,15.6,26.8,15.7,26.9z"/>
		<path id="XMLID_445_" class="st5" d="M20.1,17.7c0.2,0.5,0.5,1,0.7,1.6c-0.6,0.3-1.1,1.4-1.9,0.4c0-0.1,0-0.3,0.1-0.4
			c0.1-0.2,0.1-0.2,0-0.2c-0.2,0-0.6-0.1-0.5-0.3c0.1-1.3-1.3-1.4-1.6-2.4c-0.1-0.2-0.2-0.4-0.2-0.6c0-0.2-0.1-0.5,0.1-0.6
			c0.8-0.7,0.4-1.6,0.2-2.3c-0.3-0.7,0-1.5-0.4-2.1c-0.3-1.1-1.1-2.1-0.8-3.3c0.5-0.4,1.1-0.1,1.3,0.3c0.1,0.3,0.2,0.6,0.2,0.8
			c0.4,2.8,1.6,5.4,2.1,8.2C19.3,17.4,19.4,17.9,20.1,17.7z"/>
		<path id="XMLID_444_" class="st6" d="M15.7,7.4c0.3,1.1,0.6,2.3,0.8,3.4c0.2,1.3,0.3,2.6,0.2,4c0,0.4-0.2,0.7,0.1,1.1
			c0.1,0.2,0.1,0.3,0.2,0.5c0.2,0.5,0.3,1.1,0.5,1.6c-0.1,0.8,0.4,1.4,0.6,2.2c-0.1,0.5-0.3,0.8-0.8,0.9c-0.1-0.1-0.3-0.1-0.4-0.2
			c-0.2-0.8,0-1.6-0.1-2.4c0-0.3,0.2-0.7-0.2-1c-0.6-2.8-1.1-5.7-1.3-8.6C15.2,8.3,15.2,7.7,15.7,7.4z"/>
		<path id="XMLID_443_" class="st7" d="M26.2,13c0,1.8-0.3,3.5-0.6,5.3c-0.3-0.1-0.5-0.2-0.8,0.1c-1,0.9-1.1,0.9-1.5-0.4
			c0.2-1.1,0.3-2.2,0.7-3.3c0.9-0.1,1.1-0.8,1.4-1.4c0.2-0.4,0.2-0.8,0.5-1.2c0.1-0.2,0.3-0.4,0.5,0C26.3,12.4,26.4,12.7,26.2,13z"
			/>
		<path id="XMLID_442_" class="st8" d="M25.3,25.2c-0.3-0.9-1.2-0.4-1.8-0.6c-0.4-0.2-0.8-0.2-0.9-0.7c-0.2-0.4,0.2-0.6,0.4-0.8
			c0.5-0.2,0.7-0.8,1.3-0.8c0.8,0.6,1.6,1.3,2.6,1.5c0.3,0.1,0.6,0.3,0.4,0.7c-0.1,0.4-0.2,0.7-0.4,1.1
			C26.1,26.3,25.7,25.9,25.3,25.2z"/>
		<path id="XMLID_441_" class="st9" d="M26.2,11.9c-0.5,0.9-0.6,2.1-1.4,2.8c-0.3,0.3-0.7,1-0.9,0.2c0.4-1.8,0.7-3.9,1-5.7
			c1,0,1.2,0.7,1.4,1.4C26.4,11,26.4,11.5,26.2,11.9z"/>
		<path id="XMLID_440_" class="st10" d="M25.3,25.2c0.5,0.3,0.9,0.7,1.5,0.4c-0.2,1-0.5,1.8-0.9,2.7c-0.1-0.2,0-0.5-0.4-0.3
			c-0.3,0.2-0.6,0.5-0.9,0.1c-0.4-0.4-0.1-0.8,0.1-1.1c0.6-0.7,0.7-1.1-0.4-1.4c-0.2,0-0.4-0.2-0.3-0.5c0.1-0.3,0.3-0.3,0.5-0.2
			C24.8,25.1,25.1,25.2,25.3,25.2z"/>
		<path id="XMLID_439_" class="st11" d="M30.1,16.9c-0.1,0.2-0.1,0.5-0.2,0.7c-0.3-0.1-0.6-0.3-0.7,0.2c-0.1,0.4-0.1,0.8-0.4,1.1
			c-0.2,0.1-0.3,0.1-0.5,0c-0.3-0.3-0.6-0.7-0.4-1.2c0.4-1,0.9-2,1.3-3.1c0.8-0.4,1.2,0,1.3,0.7c-0.1,0.3-0.1,0.6-0.2,0.9
			c-0.1,0-0.2-0.2-0.3-0.2c0,0,0,0.2,0,0.3C30.1,16.5,30.1,16.7,30.1,16.9z"/>
		<path id="XMLID_438_" class="st12" d="M23.3,17.9c0.6,1.1,0.6,1.1,1.5,0.1c0.2-0.2,0.2-0.5,0.6-0.4c0.3,0.1,0.2,0.4,0.3,0.6
			c0,0.7-0.3,1.4,0,2.1c-0.1,0.8-0.6,0.6-1.1,0.4c-0.1-0.1-0.1-0.2-0.2-0.3c0-0.1,0-0.2,0.1-0.3c0.3-0.5-0.3-0.6-0.5-0.9
			c-0.3-0.4-0.6-0.7-0.8-1.1C23.2,18.2,23.2,18.1,23.3,17.9z"/>
		<path id="XMLID_437_" class="st13" d="M27.3,24.6c-0.1-0.6-0.8-0.8-1.2-0.8c-1.1,0-1.3-0.9-1.9-1.5c-0.1-0.1-0.1-0.2-0.2-0.3
			c0-0.3,0-0.5,0.3-0.7c0.3-0.1,0.5,0,0.8,0.2c0.1,0.1,0.3,0.2,0.4,0.3c0.3,0.5,1,0.3,1.2,0.9c0,0.1-0.1,0.1-0.1,0.1
			c0.1,0.1,0.1-0.1,0.2-0.1c0.4,0.2,0.6,0.6,0.8,1C27.5,24,27.4,24.2,27.3,24.6z"/>
		<path id="XMLID_436_" class="st14" d="M24.4,31.8c-1,0.2-2,0.5-3,0.1c0.1-0.6,0.6-0.7,1.1-0.8c0.5-0.1,1.1-0.1,1.6-0.3
			c0.4-0.1,0.7-0.2,0.7,0.2C24.7,31.3,24.6,31.5,24.4,31.8z"/>
		<path id="XMLID_435_" class="st15" d="M27.6,23.7c-0.5-0.1-0.7-0.6-0.9-0.9l0,0c-0.4-0.4-1.1-0.2-1.3-0.9c1.3-0.8,1.8-0.7,2.6,0.4
			C27.8,22.8,27.7,23.3,27.6,23.7z"/>
		<path id="XMLID_434_" class="st16" d="M9.5,18c0.1,0.8,0.8,1.8-0.6,2.1c-0.2-0.3-0.3-0.5-0.5-0.8c-0.1-0.4-0.3-0.9,0-1.3
			C8.8,17.8,9.2,17.9,9.5,18z"/>
		<path id="XMLID_433_" class="st17" d="M26.2,11.9c0.3-1.2-0.5-2-1.3-2.6c0.1-0.6,0.4-0.9,0.9-0.8c0.5,0,0.7,0.5,0.7,0.9
			c-0.1,1.2,0,3.1-0.3,4.4C26.2,13.4,26.2,12.3,26.2,11.9z"/>
		<path id="XMLID_432_" class="st18" d="M29.6,18.7c-0.1,0.4-0.8,1.7-1.1,2.5c-1.1,0.5-1.4,0.4-2.1-0.8c0.1-0.1,0.1-0.2,0.2-0.2
			C27.3,19.8,28.7,18.9,29.6,18.7z"/>
		<path id="XMLID_431_" class="st19" d="M26.4,20.3c0.6,0.4,1.1,1.3,2.1,0.9c-0.2,0.4-0.4,0.8-0.6,1.2c-0.8-0.9-1.7-0.7-2.6-0.4
			c-0.1-0.1-0.2-0.1-0.2-0.2c0.3-0.4,1.3-0.4,0.8-1.2C26.1,20.5,26.2,20.4,26.4,20.3z"/>
		<path id="XMLID_430_" class="st20" d="M15.7,26.9c-0.1,0-0.1,0.1-0.2,0.1c-0.3,0.1-0.8,0-0.9,0.5c-0.3,0.3-0.5,0.7-0.6,1.1
			c-0.2-0.4-0.5-0.8-0.7-1.2c0.4-0.6,1.1-0.8,1.6-1.2C15.4,25.8,15.5,26.5,15.7,26.9z"/>
		<path id="XMLID_429_" class="st21" d="M29.1,19.4c-0.7,0.7-1.6,0.9-2.6,0.8c0.2-0.3,0.4-0.6,0.5-0.9c0.3-0.4,0.8-0.5,1.3-0.4
			c0.1,0,0.3,0,0.4,0C29,19,29.2,19.1,29.1,19.4L29.1,19.4z"/>
		<path id="XMLID_428_" class="st22" d="M25.8,20.5c0.2,0.3,0.8,0.4,0.6,0.7c-0.3,0.4-0.9,0.5-1.4,0.5c-0.2-0.1-0.4-0.1-0.7-0.2
			c-0.2-0.2-0.2-0.4-0.1-0.7c0-0.1,0.1-0.2,0.3-0.2c0.4,0.3,0.8,0.4,1.1-0.2C25.7,20.5,25.7,20.5,25.8,20.5z"/>
		<path id="XMLID_427_" class="st23" d="M22.7,8.4c-0.9-0.2-1.1-1-1.5-1.6c0.2-0.4,0.5-0.6,1-0.5c0.5,0.2,0.5,0.6,0.5,1
			C22.7,7.7,22.7,8,22.7,8.4z"/>
		<path id="XMLID_426_" class="st24" d="M29.1,19.4c-0.1-0.2-0.2-0.3-0.3-0.5c0-0.4,0.1-0.8,0.2-1.2c0.1-0.3,0-0.6,0.4-0.7
			c0.3,0,0.5,0.3,0.5,0.6C29.7,18.2,29.7,19,29.1,19.4z"/>
		<path id="XMLID_425_" class="st25" d="M30.6,15.4c-0.3-0.5-0.8-0.7-1.3-0.7c0.1-0.3,0.6-1,1-0.9C31,14.2,30.8,14.7,30.6,15.4z"/>
		<path id="XMLID_424_" class="st26" d="M28.4,18.9c-0.3,0.4-0.9,0.3-1.3,0.4c0.3-0.5,0.6-1,0.9-1.5C28.1,18.1,28.2,18.5,28.4,18.9z
			"/>
		<path id="XMLID_423_" class="st27" d="M30.1,16.9c-0.3-0.1-0.3-0.4-0.3-0.6c0-0.3-0.6-0.6-0.1-0.8c0.6-0.2,0.5,0.4,0.6,0.8
			C30.3,16.5,30.3,16.6,30.1,16.9z"/>
		<path id="XMLID_422_" class="st28" d="M16.5,17.4c0.5,0.1,0.2,1.4,0.3,2c0.1,0.5,0,0.9,0,1.4c0,0-0.1,0-0.1,0l-0.1,0
			C16.6,19.7,16.8,18.5,16.5,17.4z"/>
		<path id="XMLID_421_" class="st29" d="M8.4,18.1c0,0.4,0.2,0.9,0,1.3C8,19,8,18.5,8.4,18.1z"/>
		<path id="XMLID_420_" class="st30" d="M18.7,29.7c-1-1-1.2-2.4-2-3.5c0.2-0.5,0.8-0.9,0.1-1.5c0,0,0.2-0.4,0.3-0.5
			c0.1-0.1,0.2-0.1,0.3-0.2c1.4-0.2,2.6-0.1,3.2,1.3c0,0.1,0,0.1,0,0.2c-0.3,1-0.6,2-0.3,3.1c0.2,0.3,0.1,0.6,0.1,0.9
			c-0.4,0.8-1,0.7-1.7,0.5C18.8,29.9,18.8,29.8,18.7,29.7z"/>
		<path id="XMLID_419_" class="st31" d="M17.2,21c0.2-0.3,0.4-0.5,0.7-0.8c0.1-0.2,0.2-0.5,0.4-0.6c0.2-0.1,0.4-0.3,0.7,0
			c0.2,0.4,0.5,0.5,0.8,0.2c0.3-0.3,0.7-0.3,1-0.4c0.5-0.1,0.9,0.1,1.2,0.5c0.3,0.5-0.1,0.7-0.4,1c-1.1,0.4-2.3,0.6-3.3,1.1
			c-0.4,0.2-0.6,0.3-0.8,0.7c-0.1,0.1-0.2,0.1-0.3,0.1C17.3,22.1,17.2,21.5,17.2,21z"/>
		<path id="XMLID_418_" class="st32" d="M17.3,22.6c0,0,0.1,0,0.1,0c0.4-0.3,1-0.3,1.4-0.5c0.5-0.2,0.9,0.1,1.1,0.6
			c0,0.2-0.1,0.3-0.2,0.4c-0.7,0.5-1.6,0.3-2.4,0.3C17.3,23.2,17.3,22.9,17.3,22.6z"/>
		<path id="XMLID_417_" class="st33" d="M17.3,23.5c0.2-0.2,0.4-0.5,0.8-0.3c0.5,0.3,1-0.2,1.6-0.1c0.1,0.5-0.3,0.6-0.6,0.8
			c-0.5,0.2-1.1,0.1-1.6,0.3c-0.1,0-0.2,0-0.2,0C17.2,23.9,17.2,23.7,17.3,23.5z"/>
		<path id="XMLID_416_" class="st34" d="M21.6,20.6c0.1-0.3,0.5-0.5,0.5-0.9c0.1,0.1,0.3,0.1,0.4,0.2c0.1,0.1,0.2,0.3,0.1,0.5
			C22.3,20.9,22,21.4,21.6,20.6z"/>
		<path id="XMLID_415_" class="st35" d="M22.5,20.4c0-0.1,0-0.3,0-0.4c0.6,0.3,1.3,0.3,1.9,0.2c0,0.1,0,0.1,0,0.2
			C23.8,20.9,23.1,20.9,22.5,20.4z"/>
		<path id="XMLID_414_" class="st36" d="M19,23.7c0.2-0.2,0.4-0.4,0.7-0.6c0.1-0.1,0.1-0.2,0.2-0.2c0.3-0.2,0.3-0.6,0.4-0.8
			c0.5-1,1.3-1.2,2.1-0.4c0.4,0.4,0.9,0.3,1.2,0.6c0.2,0.5-0.4,0.7-0.5,1.1c-0.2,0.2-0.5,0.3-0.5,0.6c-0.7,0.4-1.1,1.3-1.9,1.6
			l-0.1-0.1c-0.2-0.4,0.1-0.7,0.3-1C20.3,24,19.5,24.3,19,23.7z"/>
		<path id="XMLID_413_" class="st37" d="M22,30.7c-0.5-0.1-0.6-0.4-0.4-0.7c0.3-0.5,0.5-1.2,1.2-1.3c0.3,0,0.8-0.1,1,0.3
			c0.3,0.4,0,0.7-0.4,1c-0.4,0.3-1,0.2-1.3,0.7C22.2,30.8,22.1,30.8,22,30.7z"/>
		<path id="XMLID_412_" class="st38" d="M22,30.7c0.1,0,0.1,0,0.2,0c0,0.2,0,0.4,0.2,0.4c-0.4,0.3-0.7,0.5-1.1,0.8
			c-0.2,0-0.4,0-0.6,0.1c-0.3,0.2-0.7,0.1-0.8-0.2c-0.1-0.4-0.1-0.8,0.3-1.1c0.1,0,0.1,0,0.2,0.1c0,0.4-0.1,1,0.6,0.5
			C21.4,31.1,21.7,30.9,22,30.7z"/>
		<path id="XMLID_411_" class="st38" d="M20.5,29.6c0-0.4,0-0.7,0-1.1c0.4,0.5,0.3,1.4,0,2.2l-0.1,0c-0.1-0.1-0.2-0.3-0.2-0.5
			C20.3,30,20.3,29.8,20.5,29.6z"/>
		<path id="XMLID_410_" class="st39" d="M20.4,30.3c0,0.1,0,0.3,0,0.4c-0.1,0.5-0.8,1.2,0.4,1.3c-0.5,0.3-1,0.1-1.4,0.1
			c-0.2,0-0.5-0.1-0.3-0.4c0.3-0.7-0.3-1.3-0.3-1.9c0.1,0,0.2,0.1,0.3,0.1C19.5,30,19.9,30.5,20.4,30.3z"/>
		<path id="XMLID_409_" class="st40" d="M14.6,27.5c-0.1-0.9,0.4-0.8,0.9-0.5C15.3,27.4,15,27.4,14.6,27.5z"/>
		<path id="XMLID_408_" class="st41" d="M18.9,19.6c-0.2,0.1-0.4,0.2-0.6,0.3c-0.9-0.3-0.7-1.2-1.1-1.8c-0.3-0.5-0.2-1.1-0.3-1.7
			c0.4,0.4,0.8,0.9,1.3,1.3c0.1,0.1,0.4,0.3,0.4,0.4c-0.3,1.1,0,1.2,0.9,0.6c0.2-0.1,0.4-0.1,0.5,0.1c0.1,0.2-0.1,0.3-0.3,0.4
			C19.3,19.1,19.1,19.3,18.9,19.6z"/>
		<path id="XMLID_407_" class="st42" d="M16.8,15.8c-0.3-0.7-0.4-1.3-0.3-2.1c0.2-0.9,0.1-1.9,0.1-2.9c0.6,0.7,0.2,1.7,0.6,2.5
			c0.2,0.6,0.8,1.5-0.3,2C16.7,15.3,16.8,15.6,16.8,15.8z"/>
		<path id="XMLID_406_" class="st43" d="M17.2,18c0.7,0.4,0.6,1.3,1.1,1.8c-0.2,0.1-0.3,0.3-0.5,0.4C17.6,19.5,17,18.9,17.2,18z"/>
		<path id="XMLID_405_" class="st44" d="M23.1,23.3c-0.1-0.5,0.6-0.7,0.4-1.1c-0.1-0.2,0-0.2,0.1-0.3c0.2,0,0.3,0.1,0.4,0.2
			c0,0.1,0,0.2,0.1,0.3C23.9,22.7,23.6,23.1,23.1,23.3z"/>
		<path id="XMLID_404_" class="st45" d="M23.8,22c-0.1,0-0.1,0.1-0.2,0.1c-0.7,0.4-1.2-0.1-1.4-0.5c-0.2-0.4-0.4-0.5-0.8-0.4
			c-0.5,0.1-0.8,0.4-0.8,0.9c0,0.4-0.2,0.7-0.7,0.6c-0.3-0.5-0.6-0.8-1.2-0.3c-0.3,0.3-0.8,0.1-1.2,0.1c0-0.6,0-0.8,0.8-1
			c1.1-0.3,2.1-0.8,3.3-0.9c0.4,0.4,0.7,0.1,0.9-0.2c0.6,0,1.3,0,1.9,0c0,0.1,0.1,0.1,0.1,0.2c0,0.1-0.1,0.1-0.1,0.2
			C24,21.1,24,21.6,23.8,22z"/>
		<path id="XMLID_403_" class="st46" d="M23.8,22c-0.1-0.6-0.1-1.1,0.7-1.2c0,0.2,0,0.5,0,0.7c-0.1,0.2-0.2,0.4-0.3,0.6
			C24,22.1,23.8,22.2,23.8,22z"/>
		<path id="XMLID_402_" class="st47" d="M26.6,22.8c-0.1,0.3-0.1,0.7-0.6,0.5c-0.1,0-0.3-0.2-0.2-0.3C26,22.7,26.3,22.9,26.6,22.8
			L26.6,22.8z"/>
		<path id="XMLID_401_" class="st48" d="M19,23.7c0.5,0.1,1,0.3,1.6,0.2c0.3,0,0.7,0,0.9,0.3c0.2,0.4-0.3,0.5-0.5,0.7
			c-0.1,0.1-0.1,0.3-0.2,0.5c-0.8-1.2-2-1.4-3.3-1.3C17.9,23.8,18.5,23.9,19,23.7z"/>
		<path id="XMLID_400_" class="st49" d="M20.4,30.3c-0.8,0.8-1-0.1-1.4-0.4c0.5-0.1,1,0,1.5-0.3C20.5,29.8,20.5,30.1,20.4,30.3z"/>
		<path id="XMLID_399_" class="st50" d="M19.6,23.7c0.5-0.5,0.8-0.4,1.4-0.3C20.5,23.8,20.2,23.7,19.6,23.7z"/>
	</g>
</g>
</svg>
