<svg xmlns="http://www.w3.org/2000/svg" xmlns:xlink="http://www.w3.org/1999/xlink" viewBox="0 0 40.3 39.7">
<style type="text/css">
	.st0{fill:#DB0E16;}
</style>
<g id="XMLID_1_">
	<path id="XMLID_5_" class="st0" d="M20.1,0C9,0,0,8.9,0,19.8c0,11,9,19.8,20.1,19.8c11.1,0,20.1-8.9,20.1-19.8
		C40.3,8.9,31.2,0,20.1,0z M20.1,36.9c-9.6,0-17.4-7.7-17.4-17.1c0-9.4,7.8-17.1,17.4-17.1c9.6,0,17.4,7.7,17.4,17.1
		C37.5,29.3,29.7,36.9,20.1,36.9z"/>
	<path id="XMLID_9_" class="st0" d="M26.4,11.3c-2.6-0.2-4.6,0.8-6,3.1c-0.1,0.1-0.1,0.2-0.2,0.3c-0.1-0.1-0.1-0.2-0.2-0.3
		c-1.4-2.2-3.5-3.2-6-3.1c-2.4,0.1-4.2,1.3-5.2,3.5c-0.8,1.8-0.6,3.6,0.1,5.4c0.8,2,2.1,3.6,3.6,5.1c2.3,2.3,5,4.2,7.6,6.2
		c0.1,0.1,0.1,0.1,0.2,0.1c0.1,0,0.1,0,0.2-0.1c2.6-2,5.2-3.9,7.6-6.2c1.5-1.5,2.8-3.1,3.6-5.1c0.7-1.8,0.9-3.6,0.1-5.4
		C30.5,12.7,28.7,11.5,26.4,11.3z"/>
</g>
</svg>
