<svg xmlns="http://www.w3.org/2000/svg" xmlns:xlink="http://www.w3.org/1999/xlink" viewBox="0 0 14.4 12.2">
<style type="text/css">
	.st0{fill:#bab9b8;}
</style>
<path id="XMLID_43_" class="st0" d="M14,2.1c-0.6-1.3-1.7-2-3.1-2.1C9.4-0.1,8.1,0.5,7.3,1.8C7.3,1.9,7.2,2,7.2,2
	C7.1,2,7.1,1.9,7.1,1.8C6.2,0.5,5-0.1,3.4,0C2,0.1,0.9,0.8,0.3,2.1c-0.5,1.1-0.4,2.2,0,3.2c0.5,1.2,1.2,2.2,2.2,3.1
	c1.4,1.4,3,2.5,4.5,3.7c0,0,0.1,0.1,0.1,0.1c0,0,0.1,0,0.1-0.1c1.5-1.2,3.1-2.4,4.5-3.7c0.9-0.9,1.7-1.9,2.2-3.1
	C14.4,4.3,14.5,3.2,14,2.1z"/>
</svg>
