<svg xmlns="http://www.w3.org/2000/svg" xmlns:xlink="http://www.w3.org/1999/xlink" viewBox="0 0 29.2 25">
<style type="text/css">
	.st0{fill-rule:evenodd;clip-rule:evenodd;fill:#007EC2;}
</style>
<g id="XMLID_14_">
	<path id="XMLID_23_" class="st0" d="M2.5,5h24.2c1.4,0,2.5-1.1,2.5-2.5C29.2,1.1,28,0,26.7,0H2.5C1.1,0,0,1.1,0,2.5
		C0,3.9,1.1,5,2.5,5z"/>
	<path id="XMLID_24_" class="st0" d="M26.7,10H2.5C1.1,10,0,11.1,0,12.5C0,13.9,1.1,15,2.5,15h24.2c1.4,0,2.5-1.1,2.5-2.5
		C29.2,11.1,28,10,26.7,10z"/>
	<path id="XMLID_25_" class="st0" d="M26.7,20H2.5C1.1,20,0,21.1,0,22.5C0,23.9,1.1,25,2.5,25h24.2c1.4,0,2.5-1.1,2.5-2.5
		C29.2,21.1,28,20,26.7,20z"/>
</g>
</svg>
