<svg xmlns="http://www.w3.org/2000/svg" xmlns:xlink="http://www.w3.org/1999/xlink" viewBox="0 0 26.2 26.2">
<style type="text/css">
	.st0{fill:#EA6F07;}
	.st1{fill:#FFFFFF;}
</style>
<circle id="XMLID_68_" class="st0" cx="13.1" cy="13.1" r="13.1"/>
<path id="XMLID_81_" class="st1" d="M6.5,15c1,2.7,3.6,4.7,6.6,4.7c3.1,0,5.7-1.9,6.6-4.7c0.2-0.5-0.2-1-0.7-1
	c-0.3,0-0.6,0.2-0.7,0.5c-0.8,2.2-2.8,3.7-5.2,3.7s-4.5-1.6-5.2-3.7C7.8,14.2,7.5,14,7.2,14C6.7,14,6.3,14.5,6.5,15z"/>
<g id="XMLID_74_">
	<path id="XMLID_85_" class="st1" d="M11.9,10.5c-0.4-1-1.4-1.7-2.5-1.7c-1.1,0-2.1,0.7-2.5,1.7c0,0.1,0,0.3,0.1,0.4
		C7.1,11,7.3,11,7.4,11c0.2,0,0.3-0.1,0.4-0.3C8,10,8.7,9.5,9.5,9.5c0.8,0,1.4,0.5,1.7,1.2c0.1,0.2,0.2,0.3,0.4,0.3
		c0.1,0,0.3-0.1,0.3-0.2C12,10.7,12,10.6,11.9,10.5L11.9,10.5z"/>
	<path id="XMLID_89_" class="st1" d="M19.2,10.5L19.2,10.5c-0.4-1-1.4-1.7-2.5-1.7c-1.1,0-2.1,0.7-2.5,1.7c0,0.1,0,0.3,0.1,0.4
		c0.1,0.1,0.2,0.2,0.3,0.2c0.2,0,0.3-0.1,0.4-0.3c0.2-0.7,0.9-1.2,1.7-1.2s1.4,0.5,1.7,1.2c0.1,0.2,0.2,0.3,0.4,0.3
		c0.1,0,0.3-0.1,0.3-0.2C19.2,10.7,19.2,10.6,19.2,10.5z"/>
</g>
</svg>
