<svg xmlns="http://www.w3.org/2000/svg" xmlns:xlink="http://www.w3.org/1999/xlink" viewBox="0 0 26 26">
<style type="text/css">
	.st0{fill:#F8CC00;}
</style>
<g id="XMLID_128_">
	<g id="XMLID_84_">
		<path id="XMLID_88_" class="st0" d="M5,17V9.1h0.9l1.5,3.7c0.3,0.8,0.7,1.9,1,2.8h0c-0.1-1.2-0.1-2.3-0.1-3.6V9.1h0.8V17H8.2
			l-1.5-3.8c-0.3-0.8-0.7-1.7-0.9-2.7h0c0.1,1.1,0.1,2.1,0.1,3.8V17H5z"/>
		<path id="XMLID_91_" class="st0" d="M13.4,13.3h-2v3h2.3V17h-3.2V9.1h3v0.8h-2.1v2.6h2V13.3z"/>
		<path id="XMLID_94_" class="st0" d="M15.8,17l-1.5-7.9h0.9l0.7,3.8c0.2,1,0.3,1.9,0.4,2.9h0c0.1-1,0.3-1.9,0.5-2.9l0.7-3.8h0.8
			l0.7,3.7c0.2,0.9,0.4,1.8,0.5,2.9h0c0.1-1.1,0.3-2,0.4-2.9l0.7-3.8h0.9L19.9,17h-0.9l-0.8-3.8c-0.2-0.8-0.3-1.7-0.4-2.6h0
			c-0.1,0.9-0.2,1.7-0.4,2.6L16.6,17H15.8z"/>
	</g>
	<g id="XMLID_31_">
		<path id="XMLID_58_" class="st0" d="M2.9,11.9c0.5-4.7,4.3-8.5,9-9V0C5.6,0.5,0.5,5.6,0,11.9H2.9z"/>
		<path id="XMLID_78_" class="st0" d="M14.1,2.9c4.7,0.5,8.5,4.3,9,9H26C25.5,5.6,20.4,0.5,14.1,0V2.9z"/>
		<path id="XMLID_79_" class="st0" d="M23.1,14.1c-0.5,4.7-4.3,8.5-9,9V26c6.3-0.5,11.4-5.6,11.9-11.9H23.1z"/>
		<path id="XMLID_80_" class="st0" d="M11.9,23.1c-4.7-0.5-8.5-4.3-9-9H0C0.5,20.4,5.6,25.5,11.9,26V23.1z"/>
	</g>
</g>
</svg>
