<svg xmlns="http://www.w3.org/2000/svg" xmlns:xlink="http://www.w3.org/1999/xlink" viewBox="0 0 22.4 26">
<style type="text/css">
	.st0{fill-rule:evenodd;clip-rule:evenodd;fill:#007EC2;}
</style>
<g id="XMLID_131_">
	<path id="XMLID_135_" class="st0" d="M22.3,21.1c-1-0.7-2.8-2.3-3-5c-0.4-3.9,0.1-6.6-0.7-9.3s-3-4.3-4.4-5
		c-0.6-0.3-1.3-0.5-1.7-0.6c0,0,0,0,0,0c0-0.7-0.5-1.2-1.2-1.2C10.5,0,10,0.5,10,1.2c0,0,0,0,0,0C9.5,1.3,8.9,1.5,8.2,1.8
		c-1.4,0.7-3.6,2.3-4.4,5s-0.3,5.4-0.7,9.3c-0.3,2.6-2.1,4.2-3,5c-0.2,0.2-0.1,0.5,0.2,0.5h10.9h10.9C22.4,21.6,22.5,21.3,22.3,21.1
		z"/>
	<path id="XMLID_134_" class="st0" d="M11.2,26c1.7,0,3.1-1.2,3.5-2.8h-7C8.1,24.8,9.5,26,11.2,26z"/>
</g>
</svg>
