<svg xmlns="http://www.w3.org/2000/svg" xmlns:xlink="http://www.w3.org/1999/xlink" viewBox="0 0 30.1 25.6">
<style type="text/css">
	.st0{fill:#DB0E16;}
</style>
<path id="XMLID_32_" class="st0" d="M29.4,4.5c-1.3-2.8-3.5-4.3-6.5-4.4c-3.2-0.2-5.8,1.1-7.6,3.9C15.2,4,15.2,4.2,15,4.2
	c-0.1-0.1-0.2-0.2-0.3-0.4C13,1.1,10.4-0.2,7.2,0c-3,0.2-5.2,1.7-6.5,4.4c-1,2.2-0.8,4.5,0.1,6.8c1,2.5,2.6,4.6,4.5,6.4
	c3,2.9,6.3,5.3,9.5,7.8c0.1,0.1,0.2,0.1,0.3,0.1c0.1,0,0.2-0.1,0.3-0.1c3.2-2.5,6.5-5,9.5-7.8c1.9-1.9,3.5-3.9,4.5-6.4
	C30.2,9,30.4,6.7,29.4,4.5z"/>
</svg>
