<svg xmlns="http://www.w3.org/2000/svg" xmlns:xlink="http://www.w3.org/1999/xlink" viewBox="0 0 15.1 16.9">
<style type="text/css">
	.st0{fill-rule:evenodd;clip-rule:evenodd;fill:#c7c7c7;}
</style>
<path id="XMLID_42_" class="st0" d="M12.2,11.3c-0.7,0-1.3,0.3-1.8,0.7L5.6,8.8c0-0.1,0-0.2,0-0.3c0-0.1,0-0.3,0-0.4l4.7-3.2
	c0.5,0.5,1.2,0.7,1.9,0.7c1.6,0,2.8-1.3,2.8-2.8S13.8,0,12.2,0S9.4,1.3,9.4,2.8c0,0.5,0.1,0.9,0.3,1.3l-4.5,3
	C4.8,6.3,3.9,5.6,2.8,5.6C1.3,5.6,0,6.9,0,8.5s1.3,2.8,2.8,2.8c1.1,0,2-0.6,2.5-1.5l4.5,3c-0.2,0.4-0.4,0.9-0.4,1.4
	c0,1.6,1.3,2.8,2.8,2.8s2.8-1.3,2.8-2.8S13.8,11.3,12.2,11.3z"/>
</svg>
