<svg xmlns="http://www.w3.org/2000/svg" xmlns:xlink="http://www.w3.org/1999/xlink" width="950.7px" height="236.9px" viewBox="177 303 950.7 236.9" style="enable-background:new 177 303 950.7 236.9;"
	 xml:space="preserve">
<style type="text/css">
	.st0{fill:#B6B6B6;}
	.st1{fill:#9B9B9B;}
	.st2{fill:#A9A9A9;}
	.st3{fill:#CFCFCF;}
	.st4{fill:#A1A1A1;}
	.st5{fill:#999999;}
	.st6{fill:#838383;}
	.st7{fill:#ACACAC;}
	.st8{fill:#D0D0D0;}
	.st9{fill:#A7A7A7;}
	.st10{fill:#D7D7D7;}
	.st11{fill:#8D8D8D;}
	.st12{fill:#D8D8D8;}
	.st13{fill:#C3C3C3;}
	.st14{fill:#CDCDCD;}
	.st15{fill:#C7C7C7;}
	.st16{fill:#C2C2C2;}
	.st17{fill:#9E9E9E;}
	.st18{fill:#8F8F8F;}
	.st19{fill:#A6A6A6;}
	.st20{fill:#8B8B8B;}
	.st21{fill:#949494;}
	.st22{fill:#878787;}
	.st23{fill:#858585;}
	.st24{fill:#B4B4B4;}
	.st25{fill:#989898;}
	.st26{fill:#909090;}
	.st27{fill:#A0A0A0;}
	.st28{fill:#C6C6C6;}
	.st29{fill:#9A9A9A;}
	.st30{fill:#8E8E8E;}
	.st31{fill:#919191;}
	.st32{fill:#888888;}
	.st33{fill:#A4A4A4;}
	.st34{fill:#9F9F9F;}
	.st35{fill:#9D9D9D;}
	.st36{fill:#E5E5E5;}
	.st37{fill:#9C9C9C;}
</style>
<g>
	<path id="XMLID_47_" class="st0" d="M279.9,307.1c-56.8,0-102.9,45.4-102.9,101.4c0,56,46.1,101.4,102.9,101.4
		s102.9-45.4,102.9-101.4C382.9,352.5,336.8,307.1,279.9,307.1z M279.9,496c-49,0-88.9-39.2-88.9-87.4c0-48.2,39.9-87.4,88.9-87.4
		s88.9,39.2,88.9,87.4C368.9,456.8,329,496,279.9,496z"/>
	<g id="XMLID_27_">
		<path id="XMLID_314_" class="st1" d="M230.9,400.3c4.9,2,8.1,6.1,11,10.2c2.5,3.5,4.7,7.1,7.7,10.2c5.2,5.3,8.7,4.6,11.9-2.1
			c0.9-1.8,1.1-3.8,1.5-5.7c0.5-0.3,1-0.4,1.5-0.3c1.1,0.4,1.8,1.1,2.2,2.1c0.6,2,0.4,4.1,0.5,6.1c0,1.3,0,2.5,0,3.8
			c0,1-0.2,1.9-0.4,2.9c-0.3,1.1-1.3,2.2-0.7,3.2c2,3-0.2,4.7-1.7,6.6c-1.5,1.6-2.9,3.9-5.3,3.7c-1.8-1.4-3.6-2.5-5.7-1
			c-1.6,1.1-3,3-5.4,2.8c-5.7-11.5-13.4-21.7-19.9-32.8C231.5,407.5,229.8,403.5,230.9,400.3z"/>
		<path id="XMLID_313_" class="st2" d="M278.9,399c1.8-6.9,0.4-14,0.9-21.1c0.7-8.7,1.1-14.8,2.8-23.4c0.2-0.9,0.7-3.6,1.4-5
			c3.5,1.1,4.2,5.1,6.7,7.1c0,13.1-0.1,26.1-0.1,39.2c0,1.9-0.2,5.1,2,5.2c2.6,1.7,4.2,4.3,6.2,6.6c1.1,1.2,1.3,2.6-0.7,3.4
			c-2.8,0.7-5.6,0.3-8.3-0.7c-0.9-0.3-1.8-0.8-2.6-1.4c-1.7-1.4-4-1.4-5.8-2.6C279.8,404.3,278.4,402,278.9,399z"/>
		<path id="XMLID_312_" class="st3" d="M305.6,447.1c-1.4,4.5-4.2,11.3-7.4,15c-3.5-0.8-5.4-0.6-8.8-1.7c-1-0.5-1.4-1.2-1.3-2.3
			c0.1-3.3,3.1-3.3,5-4.6c0.8-0.5,1.8-1.2,1.3-2.3c-0.5-1.3-1.9-1.3-2.9-0.8c-3.2,1.6-5,4.1-3.6,7.9c-0.6,1.5-2,2.1-3.3,2.7
			c-3.7,1.7-4.4,1.2-4.8-3.2c0.6-3.2,1.1-6.5-0.5-9.6c-1.4-4.9-0.3-9.5,1.2-14.1c3.3-2.5,5.5-6.4,9.9-7.4c2.3,1.8,4.9,2.5,7.8,2.7
			c2.2,0.2,4.4,0.5,4.3,3.5c-0.8,1-2.2,0.3-3.6,1.2c4.2,1.6,4.8,3.9,2.4,7.5c-1.8,2.7-1.4,4.4,2.5,3.2
			C306.2,444.2,306.1,445.6,305.6,447.1z"/>
		<path id="XMLID_311_" class="st4" d="M259.1,440.3c1.7-0.8,2.5-2.9,4.6-3.1c1.8,0.1,2.5,1.5,3,2.8c1.8,4.8,4.6,8.9,7.1,13.3
			c0.5,1.7,1.4,3.2,1.8,5c1.2,5.3,1.2,5.3,6.5,4.4c1-0.2,2-0.3,3-0.4c4.3,1.6,9-0.8,13.2,0.5c-2.8,6-6.2,5.3-12.5,4.4
			c-2.2-0.3-4.2-1.8-6.6-1.6c-12.7,1-22-4.5-27.3-15.9c-0.3-0.6-1-2.6-1.3-3.1c-0.6-2.1,0.9-2.7,2.7-4c1.4-0.9,3-1.4,4.4-2.3
			C258.2,440.2,258.7,440.2,259.1,440.3z"/>
		<path id="XMLID_310_" class="st5" d="M278.9,399c1.1,2.4,2.2,4.7,3.3,7.1c-2.8,1.3-4.9,6.2-8.8,1.7c-0.1-0.7-0.1-1.3,0.3-1.9
			c0.6-0.9,0.6-0.9-0.2-1c-1-0.1-2.5-0.5-2.4-1.3c0.7-5.7-5.8-6.5-7.2-10.7c-0.5-0.8-0.9-1.7-1-2.6c-0.1-1-0.3-2.2,0.4-2.9
			c3.4-3.3,2-7,0.7-10.4c-1.2-3.1-0.1-6.6-2-9.5c-1.2-4.9-5-9.5-3.4-14.8c2.4-1.9,4.8-0.7,5.8,1.5c0.6,1.2,0.9,2.5,1.1,3.8
			c1.7,12.8,7.4,24.6,9.5,37.3C275.2,397.3,275.8,400,278.9,399z"/>
		<path id="XMLID_309_" class="st6" d="M259.2,352.2c1.2,5,2.6,10.4,3.8,15.4c0.9,6,1.4,12,0.7,18c-0.2,1.6-0.7,3.2,0.3,4.8
			c0.3,0.7,0.5,1.5,0.8,2.2c1,2.3,1.5,4.8,2.1,7.3c-0.3,3.6,1.8,6.6,2.8,9.8c-0.3,2.2-1.4,3.8-3.8,4.2c-0.7-0.3-1.3-0.6-2-0.8
			c-1.1-3.7-0.2-7.4-0.5-11.1c-0.1-1.5,0.9-3.2-0.8-4.4c-2.9-12.8-5.2-25.7-5.7-38.9C256.8,356.2,256.6,353.4,259.2,352.2z"/>
		<path id="XMLID_308_" class="st7" d="M306.6,377.6c0.2,8.1-1.3,15.9-2.8,23.8c-1.2-0.5-2.2-0.7-3.5,0.4c-4.7,4.1-5.1,4-6.9-1.9
			c0.8-4.8,1.6-10,3-15.1c4-0.4,4.8-3.5,6.3-6.3c0.9-1.7,1.1-3.7,2.3-5.3c0.5-0.8,1.3-1.6,2.1,0
			C306.9,374.7,307.3,376.2,306.6,377.6z"/>
		<path id="XMLID_307_" class="st8" d="M302.5,432.9c-1.6-3.9-5.4-1.8-8.1-2.8c-2-0.7-3.7-1-4-3.4c-0.8-1.8,0.7-2.5,1.7-3.4
			c2.1-0.8,3.1-3.5,5.8-3.4c3.8,2.5,7,6,11.9,6.9c1.4,0.3,2.7,1.4,1.7,3.3c-0.6,1.9-1,3-2,4.9C306.2,437.7,304.2,435.9,302.5,432.9z
			"/>
		<path id="XMLID_306_" class="st9" d="M306.4,372.5c-2.3,4.2-2.7,9.4-6.4,12.9c-1.2,1.2-2.9,4.6-4,1c1.6-8.3,3.1-17.5,4.4-25.7
			c4.3-0.2,5.5,3.2,6.4,6.3C307.3,368.6,307.6,370.7,306.4,372.5z"/>
		<path id="XMLID_305_" class="st10" d="M302.5,432.9c2.1,1.3,4.1,3.2,7,2c-1.1,4.3-2.2,8.2-3.9,12.1c-0.2-0.9-0.2-2.1-1.7-1.2
			c-1.3,0.8-2.6,2.2-4.3,0.4c-1.7-1.8-0.6-3.8,0.3-4.9c2.8-3.2,3-5.2-1.6-6.3c-0.9-0.2-1.9-0.9-1.5-2.1c0.3-1.2,1.4-1.2,2.4-1
			C300.4,432.3,301.5,432.7,302.5,432.9z"/>
		<path id="XMLID_304_" class="st11" d="M324.5,395.4c-0.3,1.1-0.6,2.1-0.9,3.2c-1.4-0.6-2.7-1.4-3.3,1c-0.4,1.7-0.5,3.6-1.8,5
			c-0.7,0.3-1.4,0.3-2.1,0c-1.5-1.5-2.8-3-1.9-5.3c2-4.6,3.9-9.3,5.9-13.9c3.7-2,5.3-0.1,6.1,3.2c-0.3,1.3-0.6,2.6-1,3.9
			c-0.6-0.2-0.8-1-1.4-1c-0.1,0,0.1,0.8,0.1,1.2C324.3,393.5,324.3,394.5,324.5,395.4z"/>
		<path id="XMLID_303_" class="st2" d="M293.4,400c2.9,4.8,2.9,4.8,6.6,0.3c0.7-0.8,1.1-2.2,2.6-1.7c1.4,0.5,0.9,1.9,1.2,2.9
			c-0.1,3.2-1.2,6.5,0.1,9.7c-0.7,3.5-2.8,2.8-5,1.7c-0.4-0.3-0.7-0.7-0.8-1.2c0-0.5,0.1-1,0.4-1.4c1.2-2.4-1.3-2.9-2.2-4
			c-1.3-1.6-2.9-3.1-3.6-5.2C293.1,401,293.2,400.6,293.4,400z"/>
		<path id="XMLID_302_" class="st12" d="M311.5,430.1c-0.6-2.9-3.6-3.4-5.3-3.4c-5,0-6-4.3-8.7-6.7c-0.4-0.4-0.6-0.8-0.8-1.2
			c-0.2-1.3,0-2.4,1.4-3.1c1.3-0.3,2.3,0.2,3.4,0.8c0.6,0.3,1.1,0.8,1.6,1.2c1.2,2.1,4.6,1.5,5.4,4.2c-0.1,0.3-0.3,0.4-0.6,0.4
			c0.5,0.2,0.5-0.4,0.9-0.5c1.7,1.1,2.9,2.6,3.8,4.4C312.6,427.6,312.2,428.1,311.5,430.1z"/>
		<path id="XMLID_301_" class="st13" d="M298.3,462.9c-4.3,0.8-8.9,2.5-13.4,0.5c0.3-2.9,2.8-3,4.8-3.7c2.4-0.4,4.9-0.7,7.2-1.3
			c1.6-0.4,3.1-0.8,3.3,1C299.9,460.6,299.2,461.4,298.3,462.9z"/>
		<path id="XMLID_300_" class="st14" d="M312.7,426.2c-2.3-0.5-3-2.5-4.3-4.1l0,0c-1.7-1.6-5.1-1-5.9-4c5.9-3.7,8-3.3,11.9,1.9
			C313.9,422.1,313.6,424.4,312.7,426.2z"/>
		<path id="XMLID_299_" class="st15" d="M230.9,400.3c0.5,3.6,3.8,8.1-2.7,9.7c-0.7-1.2-1.5-2.3-2.2-3.5c-0.4-2-1.2-4,0.1-5.9
			C227.6,399.4,229.5,399.6,230.9,400.3z"/>
		<path id="XMLID_298_" class="st0" d="M306.4,372.5c1.2-5.5-2-8.9-5.9-11.9c0.2-2.5,1.9-3.9,4.1-3.7c2.1,0.2,3.2,2.3,3.2,4.3
			c-0.2,5.5-0.2,14.2-1.2,19.9C306.5,379.4,306.5,374.2,306.4,372.5z"/>
		<path id="XMLID_297_" class="st11" d="M322,403.5c-0.6,2-3.4,7.8-5,11.1c-4.9,2.3-6.5,1.7-9.6-3.5c0.2-0.3,0.5-0.7,0.7-1
			C311.8,408.5,318.1,404.5,322,403.5z"/>
		<path id="XMLID_296_" class="st16" d="M307.6,410.7c2.9,2,5,5.8,9.4,4c-0.9,1.8-1.7,3.6-2.6,5.4c-3.4-3.9-7.6-3.3-11.9-1.9
			c-0.4-0.3-0.7-0.6-1.1-0.9c1.3-1.8,5.8-1.6,3.4-5.6C306.1,411.4,306.7,411.3,307.6,410.7z"/>
		<path id="XMLID_295_" class="st17" d="M259.1,440.3c-0.3,0.2-0.5,0.4-0.8,0.6c-1.6,0.5-3.5,0.2-4.2,2.3c-1.2,1.3-2.3,3.4-2.7,5.1
			c-1-1.6-2.5-3.6-3.3-5.5c1.7-2.8,4.8-3.7,7.3-5.4C257.9,435.7,258.2,438.8,259.1,440.3z"/>
		<path id="XMLID_294_" class="st18" d="M319.6,406.4c-3.2,3.4-7.2,4-11.6,3.6c0.8-1.3,1.6-2.6,2.4-3.9c1.6-1.8,3.7-2.1,5.9-2
			c0.7,0,1.3,0,2,0C319.4,404.6,320,405.2,319.6,406.4L319.6,406.4z"/>
		<path id="XMLID_293_" class="st19" d="M304.9,411.6c1,1.1,3.8,1.7,2.7,3.4c-1.1,1.9-3.9,2.1-6.2,2.3c-1-0.3-2-0.7-3-1
			c-0.9-0.9-0.9-2-0.6-3.1c0.2-0.6,0.6-0.9,1.2-1c1.9,1.3,3.6,1.6,4.8-0.9C304.2,411.5,304.4,411.6,304.9,411.6z"/>
		<path id="XMLID_292_" class="st0" d="M290.7,356.7c-4-0.7-4.9-4.5-6.7-7.1c0.8-1.8,2.5-2.8,4.5-2.1c2.1,0.7,2.4,2.6,2.4,4.4
			C290.9,353.5,290.8,355.1,290.7,356.7z"/>
		<path id="XMLID_291_" class="st20" d="M319.6,406.4c-0.4-0.7-0.8-1.5-1.2-2.2c-0.1-1.8,0.4-3.6,0.9-5.3c0.4-1.2-0.1-2.9,1.8-3
			c1.5,0,2.2,1.2,2.5,2.6C322.4,401.3,322.6,404.7,319.6,406.4z"/>
		<path id="XMLID_290_" class="st19" d="M326.4,388.6c-1.4-2.3-3.5-3.3-6.1-3.2c0.4-1.4,2.7-4.7,4.7-3.9
			C328.4,382.9,327.4,385.3,326.4,388.6z"/>
		<path id="XMLID_289_" class="st21" d="M316.4,404.2c-1.6,1.9-3.9,1.5-5.9,2c1.3-2.3,2.7-4.6,4-7
			C315.1,400.9,315.7,402.5,316.4,404.2z"/>
		<path id="XMLID_288_" class="st22" d="M324.5,395.4c-1.3-0.6-1.2-1.8-1.2-2.9c0-1.2-2.8-2.7-0.4-3.5c2.6-0.9,2.3,1.9,2.6,3.5
			C325,393.6,325,393.9,324.5,395.4z"/>
		<path id="XMLID_287_" class="st23" d="M262.6,397.4c2.2,0.5,0.9,6.1,1.3,9.2c0.3,2.1,0,4.2,0,6.3l-0.4,0c0,0-0.4,0-0.4,0
			C262.9,407.8,263.9,402.6,262.6,397.4z"/>
		<path id="XMLID_286_" class="st24" d="M226.1,400.6c0,2,0.9,4-0.1,5.9C224.3,404.5,224.2,402.3,226.1,400.6z"/>
		<path id="XMLID_285_" class="st19" d="M272.8,453.3c-4.4-4.6-5.4-11-9-16.1c0.8-2.2,3.7-4.2,0.7-6.8c-0.2-0.2,0.8-1.6,1.3-2.5
			c0.4-0.3,0.9-0.6,1.4-0.8c6.1-0.9,11.7-0.5,14.7,6.1c0,0.3,0.1,0.5,0.1,0.8c-1.3,4.6-2.6,9.2-1.2,14c1.1,1.2,0.4,2.7,0.6,4.1
			c-1.6,3.7-4.6,2.9-7.6,2.2C273.3,454,273,453.7,272.8,453.3z"/>
		<path id="XMLID_284_" class="st19" d="M265.9,413.8c1-1.2,2-2.3,3-3.5c0.6-0.9,0.9-2.1,1.8-2.8c1-0.6,1.9-1.4,3-0.2
			c1,1.7,2.4,2.4,3.8,0.7c1.3-1.5,3-1.5,4.7-1.9c2.3-0.4,4.1,0.3,5.5,2.2c1.3,2.2-0.4,3.2-1.7,4.4c-5,1.7-10.3,2.6-15.1,5
			c-1.6,0.8-2.7,1.5-3.4,3.1c-0.3,0.4-0.7,0.5-1.2,0.3C266.1,418.6,266,416.2,265.9,413.8z"/>
		<path id="XMLID_283_" class="st25" d="M266.3,421c0.2,0,0.4-0.1,0.6-0.1c1.9-1.4,4.3-1.4,6.4-2.1c2.4-0.9,4.1,0.3,4.8,2.7
			c0,0.8-0.5,1.4-1,1.9c-3.4,2.2-7.2,1.3-10.9,1.5C266.2,423.6,266.2,422.3,266.3,421z"/>
		<path id="XMLID_282_" class="st26" d="M266.2,424.9c0.9-1.1,1.8-2.4,3.6-1.4c2.5,1.4,4.7-0.7,7-0.4c0.4,2.3-1.5,2.8-2.9,3.7
			c-2.2,1.1-4.8,0.3-7,1.2c-0.4,0-0.7,0-1.1,0C265.9,426.9,266,425.9,266.2,424.9z"/>
		<path id="XMLID_281_" class="st27" d="M285.6,412.2c0.6-1.3,2.2-2.2,2.1-3.9c0.7,0.3,1.3,0.7,2,1c0.6,0.7,0.8,1.4,0.6,2.3
			C288.9,413.5,287.6,415.6,285.6,412.2z"/>
		<path id="XMLID_280_" class="st27" d="M289.8,411.2c-0.1-0.6-0.1-1.3-0.2-1.9c2.8,1.1,5.8,1.5,8.8,1c0.2,0.3,0.2,0.5,0,0.8
			C295.6,413.1,292.7,413.2,289.8,411.2z"/>
		<path id="XMLID_279_" class="st25" d="M273.8,426c1-1,2-2,3-2.9c0.3-0.3,0.7-0.7,1-1c1.2-1,1.4-2.5,2-3.8c2.1-4.7,6.1-5.5,9.7-1.8
			c1.6,1.6,3.9,1.5,5.5,2.8c1,2.4-1.8,3.2-2.2,5c-0.9,0.7-2,1.2-2.3,2.6c-3.2,1.9-4.9,5.8-8.6,7.2c0,0-0.3-0.4-0.3-0.4
			c-1.1-1.9,0.6-3,1.3-4.7C279.9,427.6,276.1,429,273.8,426z"/>
		<path id="XMLID_278_" class="st10" d="M287.7,457.7c-2.1-0.2-2.5-2-1.6-3.2c1.6-2.1,2.3-5.3,5.5-5.7c1.6-0.2,3.4-0.5,4.4,1.2
			c1.2,2,0.2,3.2-1.6,4.3c-1.9,1.2-4.6,0.8-5.8,3.3C288.4,458.1,288,458.2,287.7,457.7z"/>
		<path id="XMLID_277_" class="st28" d="M287.7,457.7c0.3,0,0.7,0,1,0c0,0.8,0.2,1.6,1,2c-1.6,1.2-3.2,2.5-4.8,3.7
			c-0.9,0.1-1.8,0.2-2.6,0.2c-1.5,0.7-3,0.6-3.5-1c-0.7-1.9-0.4-3.7,1.4-5c0.3,0.1,0.5,0.2,0.8,0.2c-0.1,2-0.6,4.4,2.7,2.4
			C285,459.4,286.3,458.5,287.7,457.7z"/>
		<path id="XMLID_276_" class="st28" d="M280.8,452.7c0-1.6-0.1-3.2-0.1-4.8c1.9,2.2,1.5,6.5,0.2,9.8l-0.3-0.2
			c-0.6-0.6-0.8-1.3-0.9-2.1C279.7,454.4,280,453.5,280.8,452.7z"/>
		<path id="XMLID_275_" class="st18" d="M280.5,455.8c0,0.6,0.1,1.2,0.1,1.8c-0.5,2.3-3.7,5.3,1.6,6c-2.1,1.6-4.3,0.6-6.5,0.3
			c-1-0.1-2.1-0.7-1.5-1.9c1.5-3.3-1.2-5.8-1.4-8.8c0.4,0.2,0.8,0.4,1.3,0.6C276.2,454.4,277.9,456.6,280.5,455.8z"/>
		<path id="XMLID_274_" class="st29" d="M254.1,443.3c-0.4-4.1,1.7-3.5,4.2-2.3C257.4,442.6,255.8,442.9,254.1,443.3z"/>
		<path id="XMLID_273_" class="st30" d="M273.8,407.3c-0.9,0.4-1.9,0.8-2.8,1.2c-4-1.3-3.3-5.5-5-8.2c-1.5-2.4-0.7-5.2-1.2-7.7
			c1.9,2,3.8,3.9,5.7,5.9c0.6,0.6,1.7,1.3,1.6,1.6c-1.4,4.8,0.2,5.2,3.9,2.8c0.8-0.5,1.7-0.2,2,0.6c0.5,1-0.4,1.6-1.2,1.7
			C275.4,405.4,274.3,405.9,273.8,407.3z"/>
		<path id="XMLID_272_" class="st31" d="M264,390.3c-1.4-3.1-2-6.1-1.4-9.6c0.7-4.3,0.3-8.7,0.4-13.1c2.7,3.3,1.1,7.6,2.6,11.4
			c1.1,2.6,3.7,6.8-1.6,9C263.8,388.1,264,389.5,264,390.3z"/>
		<path id="XMLID_271_" class="st32" d="M265.9,400.3c3,1.9,2.5,6,5,8.2c-0.7,0.6-1.4,1.3-2.1,1.9
			C267.8,407,264.7,404.3,265.9,400.3z"/>
		<path id="XMLID_270_" class="st33" d="M292.8,424.2c-0.4-2.1,2.5-3,1.9-5.2c-0.5-0.7,0-1,0.5-1.2c0.8,0,1.4,0.4,2,1
			c0.1,0.4,0.2,0.8,0.3,1.2C296.2,421.7,294.8,423.3,292.8,424.2z"/>
		<path id="XMLID_269_" class="st34" d="M295.5,418.4c-0.3,0.2-0.5,0.4-0.8,0.6c-3,1.9-5.5-0.3-6.5-2.1c-1.1-1.9-1.9-2.1-3.6-1.8
			c-2.2,0.5-3.4,1.8-3.7,4.1c-0.2,1.8-0.9,3.2-3.1,2.8c-1.2-2.2-2.6-3.6-5.2-1.5c-1.6,1.2-3.7,0.5-5.6,0.4c-0.2-2.7,0.1-3.8,3.7-4.7
			c5-1.2,9.7-3.7,15-4.1c2,2,3.1,0.6,4.2-1c2.9,0,5.8,0,8.6-0.1c0.2,0.3,0.4,0.7,0.6,1c-0.1,0.3-0.3,0.6-0.4,0.9
			C296.9,414.3,296.7,416.7,295.5,418.4z"/>
		<path id="XMLID_268_" class="st35" d="M295.5,418.4c-0.3-2.6-0.3-5,3.2-5.4c-0.1,1.1-0.1,2.1-0.2,3.2c-0.4,0.9-0.8,1.7-1.3,2.6
			C296.6,418.8,295.9,419.2,295.5,418.4z"/>
		<path id="XMLID_267_" class="st36" d="M308.4,422.1c-0.3,1.5-0.5,3-2.6,2.4c-0.6-0.2-1.1-0.9-0.8-1.5
			C305.8,421.4,307.3,422.3,308.4,422.1L308.4,422.1z"/>
		<path id="XMLID_266_" class="st17" d="M273.8,426c2.3,0.7,4.7,1.2,7.1,1c1.5-0.1,3.3,0.1,3.9,1.4c0.7,1.8-1.3,2.1-2.4,3
			c-0.5,0.4-0.6,1.4-0.9,2.2c-3.6-5.2-8.9-6.3-14.7-5.7C268.9,426.3,271.6,427,273.8,426z"/>
		<path id="XMLID_265_" class="st37" d="M280.5,455.8c-3.4,3.6-4.6-0.3-6.4-1.9c2.2-0.6,4.7,0.2,6.8-1.1
			C280.7,453.8,280.6,454.8,280.5,455.8z"/>
		<path id="XMLID_264_" class="st30" d="M276.8,425.8c2.2-2.3,3.8-1.7,6.1-1.3C281,426.6,279.3,425.9,276.8,425.8z"/>
	</g>
	<path id="XMLID_22_" class="st0" d="M569.8,488.1L505,319.8H460l-65.1,168.3h40.9l10.6-28.5h72.2l10.3,28.5L569.8,488.1
		L569.8,488.1z M508.7,428h-52.5l26.2-72.4L508.7,428L508.7,428z M625.7,357.1c18.1,0,34.5,7.3,46.3,19.2
		c11.9,11.9,19.2,28.2,19.2,46.3c0,18.1-7.3,34.5-19.2,46.3c-11.9,11.8-28.2,19.2-46.3,19.2c-18.1,0-34.5-7.3-46.3-19.2
		c-13.4-13.4-19-29.2-19.2-47.9V319.8h32v46.5C602,360.4,613.5,357.1,625.7,357.1L625.7,357.1z M649.4,398.9
		c-6.1-6.1-14.4-9.8-23.7-9.8c-9.2,0-17.6,3.7-23.7,9.8c-6.1,6.1-9.8,14.4-9.8,23.7c0,9.2,3.7,17.6,9.8,23.7
		c6.1,6.1,14.4,9.8,23.7,9.8c9.2,0,17.6-3.8,23.7-9.8c6.1-6.1,9.8-14.4,9.8-23.7C659.2,413.3,655.4,405,649.4,398.9L649.4,398.9z
		 M768.5,357.1c18.1,0,34.5,7.3,46.3,19.2c11.9,11.9,19.2,28.2,19.2,46.3c0,18.1-7.3,34.5-19.2,46.3c-11.9,11.9-28.2,19.2-46.3,19.2
		c-18.1,0-34.5-7.3-46.3-19.2c-13.4-13.4-19-29.2-19.2-47.9V319.8h32v46.5C744.8,360.4,756.3,357.1,768.5,357.1L768.5,357.1z
		 M792.1,398.9c-6.1-6.1-14.4-9.8-23.7-9.8c-9.2,0-17.6,3.7-23.7,9.8c-6.1,6.1-9.8,14.4-9.8,23.7c0,9.2,3.7,17.6,9.8,23.7
		c6.1,6.1,14.4,9.8,23.7,9.8c9.2,0,17.6-3.8,23.7-9.8c6.1-6.1,9.8-14.4,9.8-23.7C802,413.3,798.2,405,792.1,398.9L792.1,398.9z
		 M877.8,488.1V357.1h-32v130.9L877.8,488.1L877.8,488.1z M954.9,488.1c-18.1,0-34.5-7.3-46.3-19.2c-11.9-11.9-19.2-28.2-19.2-46.3
		c0-18.1,7.3-34.5,19.2-46.3c11.8-11.9,28.2-19.2,46.3-19.2c18.1,0,34.5,7.3,46.3,19.2c11.9,11.9,19.2,28.2,19.2,46.3
		c0,18.5,0,36.9,0,55.4c-0.7,41.1-27.4,57.7-65.7,57.7c-20.9,0-37.1-4.8-52.5-18.2l14.4-23.2c9.8,10.9,22.7,15.1,38.1,15.1
		c18.8,0,33.7-10.5,33.7-30.5C978.6,484.7,967.2,488.1,954.9,488.1L954.9,488.1z M931.3,446.2c6.1,6.1,14.4,9.8,23.7,9.8
		c9.2,0,17.6-3.7,23.7-9.8c6.1-6.1,9.8-14.4,9.8-23.7c0-9.2-3.7-17.6-9.8-23.7c-6.1-6.1-14.4-9.8-23.7-9.8s-17.6,3.7-23.7,9.8
		c-6.1,6.1-9.8,14.4-9.8,23.7C921.5,431.8,925.2,440.2,931.3,446.2L931.3,446.2z M1064.3,488.1V319.8h-32v168.3L1064.3,488.1
		L1064.3,488.1z"/>
	<g id="XMLID_3_">
		<path id="XMLID_17_" class="st0" d="M1090.7,483.7c-5-21.2-3.8-65-2.8-93.2c0.4-11.7-0.4-25.3,8.3-28.3c5.3-1.8,19.3-2.1,23.4,0.7
			c4.7,3.3,4.8,18.8,5.5,27.6c1.6,18.9,2.3,38.6,2.1,59.3c0,11.2-0.3,29.5-2,34C1119.6,489.1,1097,490,1090.7,483.7z M1112,411.2
			L1112,411.2"/>
	</g>
	<ellipse id="XMLID_103_" class="st0" cx="1105.7" cy="337.6" rx="15.1" ry="17.9"/>
</g>
</svg>
