<?xml version="1.0" encoding="iso-8859-1"?>
<svg version="1.0" id="&#x421;&#x43B;&#x43E;&#x439;_1"
	 xmlns="http://www.w3.org/2000/svg" xmlns:xlink="http://www.w3.org/1999/xlink" x="0px" y="0px" width="32px" height="32px"
	 viewBox="0 0 32 32" style="enable-background:new 0 0 32 32;" xml:space="preserve">
<g id="&#x421;&#x43B;&#x43E;&#x439;_2">
	<g id="&#x421;&#x43B;&#x43E;&#x439;_1-2">
		
			<path id="_&#x421;&#x43E;&#x441;&#x442;&#x430;&#x432;&#x43D;&#x43E;&#x439;_&#x43A;&#x43E;&#x43D;&#x442;&#x443;&#x440;_"  d="
			M16,0C7.163,0,0,7.163,0,16s7.163,16,16,16s16-7.163,16-16S24.837,0,16,0z M16,29.79C8.384,29.768,2.228,23.576,2.25,15.96
			C2.272,8.344,8.464,2.188,16.08,2.21C23.68,2.232,29.83,8.4,29.83,16C29.813,23.625,23.625,29.796,16,29.79z"/>
		<g id="_&#x413;&#x440;&#x443;&#x43F;&#x43F;&#x430;_">
			<path id="_&#x41A;&#x43E;&#x43D;&#x442;&#x443;&#x440;_" d="M7.08,14.71c0.803,0.407,1.47,1.04,1.92,1.82
				c0.399,0.643,0.851,1.251,1.35,1.82c0.91,0.94,1.52,0.82,2.1-0.38c0.122-0.324,0.213-0.659,0.27-1
				c0.083-0.033,0.177-0.033,0.26,0c0.178,0.056,0.319,0.193,0.38,0.37c0.074,0.358,0.101,0.725,0.08,1.09c0,0.22,0,0.45,0,0.67
				c-0.003,0.172-0.026,0.343-0.07,0.51c-0.05,0.19-0.23,0.4-0.12,0.56c0.35,0.53,0,0.83-0.29,1.18s-0.5,0.7-0.93,0.67
				c-0.32-0.26-0.62-0.45-1-0.18s-0.53,0.54-0.95,0.5c-1-2-2.36-3.87-3.49-5.84C7.19,16,6.89,15.28,7.08,14.71z"/>
			<path id="_&#x41A;&#x43E;&#x43D;&#x442;&#x443;&#x440;_2" d="M15.51,14.48
				c0.165-1.243,0.219-2.498,0.16-3.75c0.076-1.396,0.24-2.785,0.49-4.16c0.049-0.304,0.129-0.602,0.24-0.89
				c0.61,0.2,0.74,0.91,1.18,1.27c0,2.32,0,4.65,0,7c0,0.34,0,0.91,0.36,0.93c0.403,0.323,0.76,0.7,1.06,1.12
				c0.19,0.22,0.23,0.47-0.12,0.61c-0.487,0.114-0.998,0.072-1.46-0.12c-0.162-0.063-0.316-0.143-0.46-0.24
				c-0.3-0.24-0.71-0.25-1-0.46C15.629,15.438,15.465,14.961,15.51,14.48z"/>
			<path id="_&#x41A;&#x43E;&#x43D;&#x442;&#x443;&#x440;_3" d="M20.2,23c-0.268,0.963-0.705,1.87-1.29,2.68
				c-0.522-0.076-1.039-0.18-1.55-0.31c-0.161-0.068-0.253-0.239-0.22-0.41c0-0.58,0.55-0.59,0.88-0.81
				c0.15-0.1,0.31-0.21,0.23-0.41c-0.071-0.174-0.269-0.257-0.443-0.186c-0.024,0.01-0.046,0.022-0.067,0.036
				c-0.558,0.195-0.852,0.805-0.658,1.363c0.006,0.016,0.011,0.032,0.018,0.047c-0.121,0.227-0.325,0.399-0.57,0.48
				c-0.64,0.3-0.78,0.21-0.84-0.58c0.17-0.563,0.138-1.168-0.09-1.71c-0.18-0.84-0.103-1.714,0.22-2.51c0.58-0.44,1-1.14,1.75-1.31
				c0.396,0.299,0.874,0.47,1.37,0.49c0.39,0,0.77,0.09,0.76,0.63c-0.15,0.18-0.38,0.06-0.64,0.21c0.74,0.28,0.84,0.7,0.42,1.33
				c-0.31,0.47-0.24,0.79,0.45,0.57C20.29,22.52,20.28,22.77,20.2,23z"/>
			<path id="_&#x41A;&#x43E;&#x43D;&#x442;&#x443;&#x440;_4" d="M12,21.84c0.3-0.14,0.44-0.52,0.81-0.56
				s0.44,0.27,0.53,0.51c0.352,0.821,0.766,1.613,1.24,2.37c0.09,0.3,0.24,0.58,0.31,0.89c0.21,1,0.21,1,1.14,0.78
				c0.171-0.039,0.345-0.06,0.52-0.06c0.75,0.28,1.57-0.15,2.32,0.09c-0.5,1.08-1.09,0.94-2.19,0.78c-0.39-0.06-0.74-0.32-1.15-0.29
				c-2.058,0.275-4.038-0.894-4.79-2.83c0-0.11-0.17-0.46-0.23-0.56c-0.1-0.38,0.15-0.48,0.47-0.72s0.52-0.26,0.77-0.41
				C11.832,21.807,11.92,21.81,12,21.84z"/>
			<path id="_&#x41A;&#x43E;&#x43D;&#x442;&#x443;&#x440;_5" d="M15.51,14.48l0.58,1.26
				c-0.49,0.24-0.86,1.1-1.55,0.31c-0.028-0.116-0.01-0.237,0.05-0.34c0.1-0.15,0.1-0.17,0-0.18s-0.44-0.09-0.42-0.23
				c0.11-1-1-1.16-1.27-1.91c-0.097-0.14-0.159-0.301-0.18-0.47c0-0.18-0.05-0.4,0.06-0.51c0.6-0.59,0.35-1.25,0.12-1.85
				s0-1.18-0.35-1.7c-0.22-0.87-0.88-1.69-0.6-2.64c0.266-0.225,0.663-0.191,0.888,0.075c0.049,0.058,0.087,0.124,0.112,0.195
				c0.099,0.215,0.163,0.445,0.19,0.68c0.29,2.28,1.29,4.38,1.67,6.64C14.86,14.17,15,14.65,15.51,14.48z"/>
			<path id="_&#x41A;&#x43E;&#x43D;&#x442;&#x443;&#x440;_6" d="M12,6.13l0.67,2.74
				c0.175,1.057,0.215,2.133,0.12,3.2c-0.105,0.274-0.105,0.576,0,0.85l0.14,0.39c0.158,0.423,0.282,0.857,0.37,1.3
				c0.043,0.607,0.209,1.2,0.49,1.74c-0.011,0.374-0.289,0.687-0.66,0.74L12.88,17c-0.098-0.662-0.132-1.332-0.1-2
				c0-0.26,0.16-0.58-0.14-0.79c-0.542-2.275-0.877-4.595-1-6.93C11.62,6.85,11.59,6.35,12,6.13z"/>
			<path id="_&#x41A;&#x43E;&#x43D;&#x442;&#x443;&#x440;_7" d="M20.36,10.67
				c-0.021,1.426-0.185,2.847-0.49,4.24c-0.195-0.123-0.448-0.094-0.61,0.07c-0.82,0.74-0.9,0.71-1.21-0.33
				c0.126-0.891,0.296-1.776,0.51-2.65c0.7-0.07,0.85-0.63,1.11-1.11c0.113-0.325,0.246-0.642,0.4-0.95c0.1-0.14,0.24-0.29,0.36,0
				C20.456,10.186,20.432,10.434,20.36,10.67z"/>
			<path id="_&#x41A;&#x43E;&#x43D;&#x442;&#x443;&#x440;_8" d="M19.65,20.52c-0.28-0.7-0.95-0.32-1.41-0.5
				s-0.65-0.18-0.7-0.6s0.12-0.45,0.3-0.61c0.37-0.15,0.54-0.63,1-0.61c0.599,0.552,1.308,0.971,2.08,1.23
				c0.209,0.013,0.369,0.193,0.357,0.402c-0.004,0.063-0.023,0.124-0.057,0.178c-0.082,0.3-0.2,0.588-0.35,0.86
				C20.3,21.36,20,21,19.65,20.52z"/>
			<path id="_&#x41A;&#x43E;&#x43D;&#x442;&#x443;&#x440;_9" d="M20.34,9.76c-0.41,0.75-0.48,1.67-1.13,2.29
				c-0.21,0.21-0.52,0.81-0.69,0.17c0.28-1.48,0.54-3.12,0.78-4.58c0.76,0,1,0.57,1.12,1.12C20.533,9.09,20.504,9.452,20.34,9.76z"
				/>
			<path id="_&#x41A;&#x43E;&#x43D;&#x442;&#x443;&#x440;_10" d="M19.65,20.52c0.38,0.24,0.73,0.57,1.23,0.35
				c-0.171,0.727-0.398,1.439-0.68,2.13c0-0.16,0-0.38-0.3-0.21s-0.45,0.39-0.75,0.08c-0.216-0.259-0.19-0.643,0.06-0.87
				c0.48-0.57,0.53-0.92-0.28-1.12c-0.16,0-0.33-0.16-0.27-0.38s0.25-0.21,0.42-0.18S19.46,20.47,19.65,20.52z"/>
			<path id="_&#x41A;&#x43E;&#x43D;&#x442;&#x443;&#x440;_11" d="M23.51,13.83l-0.17,0.56
				c-0.24-0.11-0.47-0.25-0.58,0.18c-0.027,0.317-0.137,0.62-0.32,0.88c-0.117,0.057-0.253,0.057-0.37,0
				c-0.27-0.26-0.49-0.53-0.33-0.95l1-2.48c0.65-0.36,0.93,0,1.07,0.58l-0.17,0.69c-0.11,0-0.14-0.18-0.24-0.18s0,0.14,0,0.21
				S23.48,13.67,23.51,13.83z"/>
			<path id="_&#x41A;&#x43E;&#x43D;&#x442;&#x443;&#x440;_12" d="M18,14.64c0.51,0.85,0.51,0.85,1.15,0.05
				c0.12-0.15,0.19-0.38,0.45-0.3s0.16,0.33,0.22,0.51c-0.121,0.57-0.121,1.16,0,1.73c-0.12,0.62-0.48,0.5-0.88,0.3
				c-0.071-0.055-0.12-0.133-0.14-0.22c-0.008-0.088,0.013-0.176,0.06-0.25c0.22-0.42-0.22-0.51-0.38-0.72
				c-0.266-0.265-0.479-0.577-0.63-0.92C18,14.83,18,14.76,18,14.64z"/>
			<path id="_&#x41A;&#x43E;&#x43D;&#x442;&#x443;&#x440;_13" d="M21.23,20c-0.1-0.52-0.64-0.61-0.92-0.61
				c-0.87,0-1.05-0.76-1.53-1.19c-0.06-0.062-0.104-0.138-0.13-0.22c-0.063-0.217,0.038-0.448,0.24-0.55
				c0.211-0.032,0.425,0.018,0.6,0.14c0.104,0.063,0.201,0.137,0.29,0.22c0.22,0.38,0.81,0.27,0.94,0.75
				c-0.009,0.043-0.052,0.071-0.095,0.061c-0.002,0-0.003-0.001-0.005-0.001c0.09,0,0.09-0.07,0.16-0.08
				c0.29,0.192,0.519,0.462,0.66,0.78C21.403,19.542,21.333,19.778,21.23,20z"/>
			<path id="_&#x41A;&#x43E;&#x43D;&#x442;&#x443;&#x440;_14" d="M18.91,25.85
				c-0.754,0.278-1.577,0.31-2.35,0.09c0.06-0.51,0.5-0.53,0.84-0.66s0.85-0.12,1.27-0.23s0.54-0.15,0.58,0.18
				C19.16,25.449,19.046,25.657,18.91,25.85z"/>
			<path id="_&#x41A;&#x43E;&#x43D;&#x442;&#x443;&#x440;_15" d="M21.44,19.32c-0.4-0.09-0.53-0.45-0.75-0.73
				l0,0c-0.31-0.29-0.89-0.18-1-0.71c1-0.66,1.41-0.6,2.09,0.34C21.701,18.596,21.587,18.965,21.44,19.32z"/>
			<path id="_&#x41A;&#x43E;&#x43D;&#x442;&#x443;&#x440;_16" d="M7.08,14.71c0.08,0.65,0.66,1.44-0.48,1.73
				l-0.38-0.62c-0.07-0.35-0.21-0.71,0-1.06C6.469,14.567,6.811,14.547,7.08,14.71z"/>
			<path id="_&#x41A;&#x43E;&#x43D;&#x442;&#x443;&#x440;_17" d="M20.34,9.76c0.154-0.845-0.248-1.694-1-2.11
				C19.334,7.297,19.616,7.005,19.97,7c0.01,0,0.02,0,0.03,0c0.362,0.066,0.609,0.405,0.56,0.77c-0.004,1.183-0.074,2.365-0.21,3.54
				C20.35,11,20.34,10.06,20.34,9.76z"/>
			<path id="_&#x41A;&#x43E;&#x43D;&#x442;&#x443;&#x440;_18" d="M23.08,15.28c-0.1,0.35-0.6,1.39-0.88,2
				c-0.86,0.41-1.15,0.3-1.69-0.63l0.12-0.19C21.421,16.016,22.239,15.622,23.08,15.28z"/>
			<path id="_&#x41A;&#x43E;&#x43D;&#x442;&#x443;&#x440;_19" d="M20.55,16.55c0.51,0.36,0.88,1,1.64,0.71
				l-0.45,1c-0.541-0.57-1.396-0.709-2.09-0.34l-0.19-0.16c0.23-0.32,1-0.29,0.6-1C20.239,16.736,20.409,16.663,20.55,16.55z"/>
			<path id="_&#x41A;&#x43E;&#x43D;&#x442;&#x443;&#x440;_20" d="M12,21.84l-0.14,0.11
				c-0.27,0.09-0.62,0-0.74,0.41c-0.224,0.265-0.388,0.575-0.48,0.91c-0.219-0.32-0.416-0.654-0.59-1c0.29-0.49,0.85-0.65,1.27-1
				S11.88,21.57,12,21.84z"/>
			<path id="_&#x41A;&#x43E;&#x43D;&#x442;&#x443;&#x440;_21" d="M22.65,15.8
				c-0.524,0.525-1.268,0.767-2,0.65l0.42-0.69c0.255-0.276,0.628-0.41,1-0.36h0.34c0.18,0.07,0.29,0.18,0.22,0.39L22.65,15.8z"/>
			<path id="_&#x41A;&#x43E;&#x43D;&#x442;&#x443;&#x440;_22" d="M20.07,16.71c0.17,0.2,0.66,0.3,0.48,0.6
				s-0.68,0.37-1.08,0.4l-0.52-0.18c-0.139-0.147-0.181-0.361-0.11-0.55c0.027-0.097,0.11-0.168,0.21-0.18
				c0.34,0.24,0.63,0.28,0.84-0.17C19.932,16.686,20,16.717,20.07,16.71z"/>
			<path id="_&#x41A;&#x43E;&#x43D;&#x442;&#x443;&#x440;_23" d="M17.58,6.94c-0.7-0.13-0.86-0.8-1.18-1.27
				c0.104-0.315,0.443-0.486,0.758-0.382c0.011,0.004,0.022,0.007,0.032,0.012c0.36,0.13,0.42,0.47,0.42,0.79S17.59,6.65,17.58,6.94
				z"/>
			<path id="_&#x41A;&#x43E;&#x43D;&#x442;&#x443;&#x440;_24" d="M22.65,15.8l-0.22-0.39
				c-0.007-0.321,0.047-0.64,0.16-0.94c0.07-0.21,0-0.52,0.32-0.53s0.39,0.21,0.43,0.46C23.14,14.88,23.18,15.48,22.65,15.8z"/>
			<path id="_&#x41A;&#x43E;&#x43D;&#x442;&#x443;&#x440;_25"  d="M23.85,12.61
				c-0.212-0.395-0.632-0.632-1.08-0.61c0.07-0.24,0.47-0.84,0.82-0.69C24.19,11.6,24,12,23.85,12.61z"/>
			<path id="_&#x41A;&#x43E;&#x43D;&#x442;&#x443;&#x440;_26"  d="M22.09,15.4c-0.28,0.33-0.69,0.27-1,0.36
				l0.7-1.24L22.09,15.4z"/>
			<path id="_&#x41A;&#x43E;&#x43D;&#x442;&#x443;&#x440;_27"  d="M23.51,13.83
				c-0.23-0.11-0.21-0.33-0.22-0.52s-0.49-0.49-0.07-0.63s0.4,0.34,0.46,0.62S23.6,13.57,23.51,13.83z"/>
			<path id="_&#x41A;&#x43E;&#x43D;&#x442;&#x443;&#x440;_28"  d="M12.64,14.19c0.38,0.08,0.16,1.09,0.23,1.64
				c0.025,0.376,0.025,0.754,0,1.13h-0.15C12.788,16.036,12.762,15.108,12.64,14.19z"/>
			<path id="_&#x41A;&#x43E;&#x43D;&#x442;&#x443;&#x440;_29"  d="M6.23,14.76c0,0.35,0.16,0.71,0,1.06
				c-0.293-0.269-0.312-0.725-0.043-1.017C6.201,14.788,6.215,14.774,6.23,14.76z"/>
			<path id="_&#x41A;&#x43E;&#x43D;&#x442;&#x443;&#x440;_30"  d="M14.43,24.14c-0.78-0.81-0.95-2-1.58-2.86
				c0.13-0.39,0.65-0.74,0.12-1.22c0,0,0.15-0.29,0.22-0.44l0.24-0.14c1.08-0.17,2-0.08,2.58,1.08v0.14
				c-0.306,0.793-0.379,1.657-0.21,2.49c0.19,0.22,0.06,0.49,0.1,0.73c-0.29,0.67-0.81,0.53-1.33,0.39
				C14.506,24.27,14.457,24.211,14.43,24.14z"/>
			<path id="_&#x41A;&#x43E;&#x43D;&#x442;&#x443;&#x440;_31"  d="M13.23,17.11l0.53-0.62
				c0.11-0.16,0.15-0.38,0.32-0.5s0.34-0.25,0.53,0s0.42,0.42,0.67,0.13s0.53-0.27,0.82-0.34c0.383-0.101,0.787,0.056,1,0.39
				c0.23,0.39-0.07,0.57-0.29,0.78c-0.904,0.238-1.792,0.532-2.66,0.88c-0.264,0.098-0.479,0.295-0.6,0.55
				c-0.043,0.072-0.135,0.098-0.21,0.06L13.23,17.11z"/>
			<path id="_&#x41A;&#x43E;&#x43D;&#x442;&#x443;&#x440;_32"  d="M13.29,18.39h0.11
				c0.353-0.19,0.735-0.322,1.13-0.39c0.43-0.16,0.71,0,0.84,0.48c-0.009,0.134-0.074,0.258-0.18,0.34
				c-0.599,0.266-1.262,0.357-1.91,0.26L13.29,18.39z"/>
			<path id="_&#x41A;&#x43E;&#x43D;&#x442;&#x443;&#x440;_33"  d="M13.28,19.09c0.17-0.19,0.32-0.43,0.63-0.25
				s0.82-0.13,1.23-0.08c0.08,0.42-0.26,0.5-0.51,0.66s-0.84,0.05-1.24,0.21h-0.2L13.28,19.09z"/>
			<path id="_&#x41A;&#x43E;&#x43D;&#x442;&#x443;&#x440;_34"  d="M16.68,16.82c0.11-0.24,0.38-0.39,0.36-0.69
				l0.35,0.18c0.105,0.109,0.146,0.264,0.11,0.41C17.27,17.05,17,17.42,16.68,16.82z"/>
			<path id="_&#x41A;&#x43E;&#x43D;&#x442;&#x443;&#x440;_35"  d="M17.42,16.64V16.3
				c0.487,0.202,1.02,0.264,1.54,0.18c0.029,0.046,0.029,0.104,0,0.15C18.517,17.006,17.868,17.01,17.42,16.64z"/>
			<path id="_&#x41A;&#x43E;&#x43D;&#x442;&#x443;&#x440;_36"  d="M14.61,19.28l0.52-0.52l0.17-0.18
				c0.21-0.18,0.24-0.45,0.34-0.68c0.111-0.507,0.613-0.828,1.12-0.716c0.237,0.052,0.445,0.194,0.58,0.396
				c0.28,0.29,0.68,0.27,1,0.5c0.18,0.43-0.32,0.56-0.38,0.88c-0.16,0.13-0.36,0.22-0.4,0.46c-0.57,0.35-0.86,1-1.51,1.28L16,20.64
				c-0.2-0.33,0.1-0.54,0.23-0.84C15.68,19.57,15,19.81,14.61,19.28z"/>
			<path id="_&#x41A;&#x43E;&#x43D;&#x442;&#x443;&#x440;_37"  d="M17,24.93
				c-0.187,0.018-0.353-0.119-0.371-0.306c-0.009-0.092,0.02-0.184,0.081-0.254c0.27-0.38,0.4-0.94,1-1c0.27,0,0.6-0.09,0.78,0.22
				s0,0.57-0.28,0.77s-0.81,0.15-1,0.58C17.17,25,17.11,25,17,24.93z"/>
			<path id="_&#x41A;&#x43E;&#x43D;&#x442;&#x443;&#x440;_38"  d="M17,24.93h0.17
				c-0.016,0.145,0.054,0.286,0.18,0.36l-0.84,0.66h-0.46c-0.26,0.13-0.52,0.1-0.62-0.19c-0.145-0.321-0.039-0.7,0.25-0.9h0.14
				c0,0.35-0.1,0.78,0.48,0.43L17,24.93z"/>
			<path id="_&#x41A;&#x43E;&#x43D;&#x442;&#x443;&#x440;_39"  d="M15.84,24v-0.85
				c0.285,0.549,0.285,1.201,0,1.75h-0.05c-0.094-0.101-0.147-0.232-0.15-0.37C15.616,24.331,15.69,24.133,15.84,24z"/>
			<path id="_&#x41A;&#x43E;&#x43D;&#x442;&#x443;&#x440;_40"  d="M15.78,24.59v0.32
				c-0.08,0.41-0.66,0.95,0.29,1.07c-0.37,0.28-0.76,0.11-1.14,0.06c-0.18,0-0.36-0.12-0.27-0.33c0.26-0.59-0.21-1-0.24-1.57
				l0.22,0.11C15,24.35,15.33,24.74,15.78,24.59z"/>
			<path id="_&#x41A;&#x43E;&#x43D;&#x442;&#x443;&#x440;_41"  d="M11.16,22.36c-0.08-0.73,0.3-0.63,0.74-0.41
				C11.726,22.189,11.455,22.34,11.16,22.36z"/>
			<path id="_&#x41A;&#x43E;&#x43D;&#x442;&#x443;&#x440;_42"  d="M14.6,15.95l-0.49,0.21
				c-0.71-0.23-0.58-1-0.89-1.46s-0.13-0.92-0.2-1.38l1,1c0.1,0.1,0.3,0.23,0.28,0.29c-0.24,0.85,0,0.93,0.68,0.49
				c0.1-0.078,0.245-0.06,0.323,0.04c0.016,0.021,0.029,0.045,0.037,0.07c0.08,0.19-0.08,0.28-0.21,0.3
				C14.884,15.543,14.678,15.714,14.6,15.95z"/>
			<path id="_&#x41A;&#x43E;&#x43D;&#x442;&#x443;&#x440;_43"  d="M12.88,12.93
				c-0.259-0.534-0.343-1.136-0.24-1.72c0.081-0.774,0.108-1.552,0.08-2.33c0.48,0.59,0.19,1.36,0.46,2
				c0.19,0.47,0.65,1.22-0.28,1.6C12.85,12.53,12.89,12.78,12.88,12.93z"/>
			<path id="_&#x41A;&#x43E;&#x43D;&#x442;&#x443;&#x440;_44"  d="M13.23,14.7c0.53,0.34,0.44,1.07,0.89,1.46
				l-0.36,0.34C13.55,15.9,13,15.41,13.23,14.7z"/>
			<path id="_&#x41A;&#x43E;&#x43D;&#x442;&#x443;&#x440;_45"  d="M17.94,19c-0.07-0.38,0.44-0.54,0.34-0.93
				c-0.08-0.12,0-0.17,0.1-0.22c0.135,0.006,0.259,0.072,0.34,0.18l0.06,0.21C18.568,18.56,18.279,18.821,17.94,19z"/>
			<path id="_&#x41A;&#x43E;&#x43D;&#x442;&#x443;&#x440;_46"  d="M18.42,17.92l-0.14,0.11
				c-0.379,0.227-0.87,0.104-1.097-0.275c-0.02-0.034-0.038-0.069-0.053-0.105c-0.19-0.33-0.33-0.38-0.63-0.31
				c-0.361,0.058-0.63,0.364-0.64,0.73c0,0.32-0.16,0.57-0.55,0.5c-0.22-0.4-0.45-0.64-0.92-0.27c-0.27,0.22-0.66,0.08-1,0.07
				c0-0.49,0-0.68,0.65-0.84c0.854-0.319,1.734-0.564,2.63-0.73c0.34,0.35,0.55,0.1,0.74-0.18h1.52l0.11,0.18L19,17
				C18.66,17.21,18.63,17.62,18.42,17.92z"/>
			<path id="_&#x41A;&#x43E;&#x43D;&#x442;&#x443;&#x440;_47"  d="M18.42,17.92c-0.05-0.46,0-0.89,0.55-1v0.57
				l-0.22,0.46C18.62,18,18.49,18.06,18.42,17.92z"/>
			<path id="_&#x41A;&#x43E;&#x43D;&#x442;&#x443;&#x440;_48"  d="M20.69,18.59c0,0.26-0.09,0.54-0.46,0.43
				c-0.108-0.025-0.175-0.133-0.149-0.24c0.002-0.01,0.006-0.02,0.009-0.03C20.22,18.47,20.48,18.63,20.69,18.59z"/>
			<path id="_&#x41A;&#x43E;&#x43D;&#x442;&#x443;&#x440;_49"  d="M14.61,19.28
				c0.402,0.139,0.825,0.203,1.25,0.19c0.26,0,0.59,0,0.68,0.25s-0.23,0.38-0.42,0.53s-0.1,0.25-0.15,0.39
				c-0.589-0.817-1.605-1.21-2.59-1C13.75,19.34,14.22,19.47,14.61,19.28z"/>
			<path id="_&#x41A;&#x43E;&#x43D;&#x442;&#x443;&#x440;_50"  d="M15.78,24.59c-0.6,0.63-0.81-0.06-1.13-0.35
				c0.39-0.1,0.82,0,1.19-0.2L15.78,24.59z"/>
			<path id="_&#x41A;&#x43E;&#x43D;&#x442;&#x443;&#x440;_51"  d="M15.14,19.25c0.39-0.41,0.66-0.31,1.08-0.24
				C15.87,19.39,15.57,19.27,15.14,19.25z"/>
		</g>
	</g>
</g>
</svg>
