<?xml version="1.0" encoding="utf-8"?>
<!-- Generator: Adobe Illustrator 20.1.0, SVG Export Plug-In . SVG Version: 6.00 Build 0)  -->
<svg version="1.1" id="Слой_1" xmlns="http://www.w3.org/2000/svg" xmlns:xlink="http://www.w3.org/1999/xlink" x="0px" y="0px"
	 width="16px" height="16px" viewBox="0 0 16 16" style="enable-background:new 0 0 16 16;" xml:space="preserve">
<style type="text/css">
	.st0{fill:#278CCC;}
	.st1{fill:#009841;}
	.st2{fill:#E84C2E;}
	.st3{fill:#EDB800;}
	.st4{fill:#E5362F;}
	.st5{fill:#009341;}
	.st6{fill:#005A2F;}
	.st7{fill:#E8438B;}
	.st8{fill:#F7B500;}
	.st9{fill:#E73B6F;}
	.st10{fill:#EFCB00;}
	.st11{fill:#7A2982;}
	.st12{fill:#E83F71;}
	.st13{fill:#F7CA00;}
	.st14{fill:#E69A06;}
	.st15{fill:#EDAF0F;}
	.st16{fill:#EF9924;}
	.st17{fill:#EA5A99;}
	.st18{fill:#762C76;}
	.st19{fill:#EF8C1F;}
	.st20{fill:#009B5C;}
	.st21{fill:#832A7E;}
	.st22{fill:#E14632;}
	.st23{fill:#EC6C30;}
	.st24{fill:#6E2A75;}
	.st25{fill:#BD4692;}
	.st26{fill:#A22683;}
	.st27{fill:#6B2470;}
	.st28{fill:#065D33;}
	.st29{fill:#65A54E;}
	.st30{fill:#00A2B0;}
	.st31{fill:#00A2AE;}
	.st32{fill:#00818E;}
	.st33{fill:#006F85;}
	.st34{fill:#009884;}
	.st35{fill:#0094A1;}
	.st36{fill:#007F98;}
	.st37{fill:#EACD00;}
	.st38{fill:#D5AB00;}
	.st39{fill:#006D7D;}
	.st40{fill:#00953F;}
	.st41{fill:#007638;}
	.st42{fill:#007D3D;}
	.st43{fill:#006732;}
	.st44{fill:#C65224;}
	.st45{fill:#0090A7;}
	.st46{fill:#009A55;}
	.st47{fill:#F5E336;}
	.st48{fill:#008CA9;}
	.st49{fill:#00899E;}
	.st50{fill:#00678C;}
</style>
<g>
	<path id="XMLID_450_" class="st0" d="M8,0C3.6,0,0,3.6,0,8s3.6,8,8,8s8-3.6,8-8S12.4,0,8,0z M8,14.9c-3.8,0-6.9-3.1-6.9-6.9
		S4.2,1.1,8,1.1s6.9,3.1,6.9,6.9S11.8,14.9,8,14.9z"/>
	<g id="XMLID_398_">
		<path id="XMLID_449_" class="st1" d="M3.8,7.3c0.4,0.2,0.7,0.5,1,0.9C5,8.5,5.1,8.8,5.4,9.1c0.5,0.5,0.8,0.4,1-0.2
			c0.1-0.2,0.2-0.6,0.2-0.8l0,0.3c0.1,0,0.2,0.1,0.2,0.2C7,8.7,7,8.9,7,9.1c0,0.1,0,0.2,0,0.3s0,0.2,0,0.3S6.9,9.9,6.9,10
			c0.2,0.3,0,0.4-0.1,0.6c-0.1,0.1-0.3,0.3-0.5,0.3c-0.2-0.1-0.3-0.2-0.5-0.1c-0.1,0.1-0.3,0.3-0.5,0.2c-0.5-1-1.2-1.9-1.7-2.9
			C3.8,7.9,3.7,7.6,3.8,7.3z"/>
		<path id="XMLID_448_" class="st2" d="M8,7.2c0.2-0.6,0-1.3,0.1-1.9c0-0.8,0.1-1.3,0.2-2.1c0-0.2,0-0.3,0.1-0.4
			C8.7,2.9,8.8,3.2,9,3.4c0,1.2,0,2.3,0,3.5C9,7,9,7.3,9.2,7.3c0.2,0.1,0.4,0.4,0.5,0.6c0.1,0.1,0.2,0.3,0,0.3
			C9.5,8.3,9.2,8.2,9,8.1c-0.1,0-0.2,0-0.3-0.1C8.6,7.9,8.4,7.9,8.2,7.8C8.1,7.6,7.9,7.4,8,7.2z"/>
		<path id="XMLID_447_" class="st3" d="M10.3,11.4c-0.1,0.4-0.4,1-0.6,1.3c-0.3-0.1-0.5-0.1-0.8-0.2c-0.1,0-0.1-0.1-0.1-0.2
			c0-0.3,0.3-0.3,0.4-0.4c0.1,0,0.2-0.1,0.1-0.2c0-0.1-0.2-0.1-0.3-0.1c-0.3,0.1-0.2,0.6-0.1,0.9c-0.1,0.1-0.4,0.2-0.5,0.2
			C8.1,12.9,8,12.6,8,12.2c0.1-0.3,0.1-0.6,0-0.9c-0.1-0.4,0-0.8,0.1-1.3C8.4,10.1,8.6,9.7,9,9.6c0.2,0.2,0.4,0.2,0.7,0.2
			c0.2,0,0.4,0,0.4,0.3c-0.1,0.1-0.2,0-0.3,0.1c0.4,0.1,0.4,0.3,0.2,0.7c-0.2,0.2-0.2,0.4,0.1,0.3C10.3,11.2,10.3,11.2,10.3,11.4z"
			/>
		<path id="XMLID_446_" class="st4" d="M6.2,10.8c0.2-0.1,0.2-0.3,0.4-0.3c0.2,0,0.2,0.1,0.3,0.3c0.2,0.4,0.4,0.8,0.6,1.2
			c0,0.1,0.1,0.3,0.2,0.4c0.1,0.5,0.1,0.5,0.6,0.4c0.1,0,0.2,0,0.3,0c0.4,0.1,0.8-0.2,1.2-0.1c-0.2,0.5-0.5,0.6-1.1,0.5
			c-0.2,0-0.4-0.2-0.6-0.1c-1.1,0.1-1.9-0.4-2.4-1.4c0-0.1-0.1-0.2-0.1-0.3c-0.1-0.2,0.1-0.2,0.2-0.4C5.9,11,6,10.9,6.2,10.8
			C6.2,10.8,6.2,10.8,6.2,10.8z"/>
		<path id="XMLID_445_" class="st5" d="M8,7.2c0.1,0.2,0.2,0.4,0.3,0.6C8,7.9,7.8,8.3,7.5,7.9c0-0.1,0-0.1,0-0.2s0-0.1,0-0.1
			c-0.3,0.2-0.3,0-0.3-0.1c0.1-0.5-0.4-0.6-0.5-1c0-0.1-0.1-0.1-0.1-0.2s0-0.2,0-0.3c0.3-0.3,0.2-0.6,0.1-0.9s0-0.6-0.2-0.8
			C6.4,3.9,6.1,3.5,6.2,3c0.2-0.1,0.4,0,0.5,0.2c0.1,0.1,0.1,0.2,0.1,0.3C7,4.6,7.4,5.7,7.6,6.8C7.7,7,7.7,7.2,8,7.2z"/>
		<path id="XMLID_444_" class="st6" d="M6.3,3c0.1,0.4,0.2,0.9,0.3,1.4c0.1,0.5,0.1,1,0,1.6c0,0.1,0,0.3,0.1,0.4
			c0,0.1,0,0.1,0.1,0.2C6.9,6.8,6.9,7,6.9,7.2c0,0.3,0.2,0.6,0.2,0.9c0,0.2-0.1,0.3-0.3,0.4c-0.1,0-0.1,0-0.2-0.1
			c-0.1-0.3,0-0.7,0-1c0-0.1,0-0.1-0.1-0.4C6.3,5.9,6.1,4.7,6,3.5C6,3.3,6,3.1,6.3,3z"/>
		<path id="XMLID_443_" class="st7" d="M10.5,5.3c0,0.7-0.2,1.3-0.3,2c-0.1,0-0.2-0.1-0.3,0C9.4,7.8,9.4,7.8,9.3,7.2
			c0.1-0.4,0.1-0.9,0.2-1.4c0.3,0,0.5-0.2,0.7-0.5c0.1-0.2,0-0.3,0.1-0.5c0-0.1,0.1-0.1,0.2,0C10.4,5.1,10.5,5.2,10.5,5.3z"/>
		<path id="XMLID_442_" class="st8" d="M10.1,10.2C9.9,9.8,9.6,10,9.3,9.9C9.2,9.9,9,9.8,9,9.6C8.9,9.5,9.1,9.4,9.1,9.3
			C9.3,9.2,9.4,9,9.7,9c0.3,0.2,0.6,0.5,1,0.6c0.1,0,0.2,0.1,0.2,0.3s-0.1,0.4-0.2,0.5C10.4,10.7,10.2,10.4,10.1,10.2z"/>
		<path id="XMLID_441_" class="st9" d="M10.4,4.8c-0.2,0.4-0.2,0.8-0.6,1.1C9.7,6,9.6,6.3,9.5,6c0.1-0.7,0.3-1.6,0.4-2.3
			c0.4,0,0.5,0.3,0.6,0.6C10.5,4.4,10.5,4.6,10.4,4.8z"/>
		<path id="XMLID_440_" class="st10" d="M10.1,10.1c0.2,0.1,0.4,0.4,0.6,0.3c-0.1,0.4-0.4,0.8-0.5,1.2c0-0.1,0-0.2-0.2-0.1
			c-0.1,0.1-0.1,0.1-0.3-0.1c-0.1-0.2,0-0.3,0-0.4c0.2-0.3,0.3-0.5-0.1-0.6c-0.1,0-0.2-0.1-0.1-0.2c0-0.1,0.1-0.1,0.2-0.1
			C9.9,10.1,10,10,10.1,10.1z"/>
		<path id="XMLID_439_" class="st11" d="M12,6.8c0,0.1-0.1,0.3-0.1,0.4c-0.1-0.1-0.1-0.2-0.2,0c0,0.2,0,0.3-0.2,0.4
			c-0.1,0-0.1,0-0.2,0c-0.1-0.1-0.2-0.2-0.2-0.4c0.2-0.4,0.3-0.9,0.5-1.3c0.3-0.2,0.6,0,0.6,0.3C12.2,6.3,12,6.7,12,6.8
			c-0.1,0-0.1-0.4-0.1-0.4v0.1C12.1,6.7,12.1,6.7,12,6.8z"/>
		<path id="XMLID_438_" class="st12" d="M9.3,7.2c0.3,0.4,0.3,0.4,0.6,0C10,7.1,10,7,10.1,7.1c0.1,0,0.1,0.2,0.1,0.3
			c0,0.3-0.1,0.8,0.1,0.9C10.2,8.6,10,8.5,9.8,8.5L9.7,8.4V8.3C9.6,8.2,9.5,8,9.4,7.9C9.3,7.7,9.3,7.5,9.2,7.3
			C9.2,7.3,9.2,7.3,9.3,7.2z"/>
		<path id="XMLID_437_" class="st13" d="M10.9,10.1c0-0.3-0.4-0.5-0.6-0.5C10,9.6,9.9,9.2,9.6,9L9.5,8.9c0-0.1,0-0.2,0.1-0.3
			c0.1,0,0.2,0,0.3,0.1C10,8.7,10,8.8,10,8.8C10.2,9,10.5,9,10.6,9.2l0,0c0,0,0,0,0.1,0C10.9,9.3,11,9.4,11,9.6
			C11,9.8,11,9.9,10.9,10.1z"/>
		<path id="XMLID_436_" class="st14" d="M9.7,12.8c-0.4,0.1-0.8,0.2-1.2,0c0-0.3,0.2-0.3,0.4-0.3s0.4-0.1,0.6-0.1
			c0.1,0,0.3-0.1,0.3,0.1C9.8,12.6,9.8,12.7,9.7,12.8z"/>
		<path id="XMLID_435_" class="st15" d="M11,9.6c-0.2,0-0.3-0.2-0.4-0.4l0,0c-0.2-0.1-0.4-0.1-0.5-0.4c0.5-0.3,0.7-0.3,1,0.2
			C11.1,9.2,11,9.4,11,9.6z"/>
		<path id="XMLID_434_" class="st16" d="M3.8,7.3c0,0.3,0.3,0.7-0.2,0.9C3.5,8,3.4,7.9,3.3,7.8c0-0.2-0.1-0.4,0-0.5
			C3.4,7.2,3.6,7.2,3.8,7.3z"/>
		<path id="XMLID_433_" class="st17" d="M10.4,4.8c0.1-0.5-0.2-0.8-0.5-1.1c0-0.2,0.2-0.3,0.4-0.3s0.3,0.2,0.3,0.4
			c0,0.5,0,1.4-0.1,1.9C10.4,5.5,10.4,4.9,10.4,4.8z"/>
		<path id="XMLID_432_" class="st18" d="M11.8,7.5c-0.1,0.2-0.4,0.9-0.5,1.2c-0.4,0.2-0.6,0.1-0.8-0.4c0,0,0-0.2,0.1-0.2
			C10.8,7.9,11.4,7.5,11.8,7.5z"/>
		<path id="XMLID_431_" class="st19" d="M10.5,8.2c0.3,0.2,0.4,0.5,0.8,0.4c-0.1,0.2-0.1,0.4-0.2,0.6c-0.3-0.3-0.7-0.4-1-0.3L10,8.8
			c0.1-0.2,0.5-0.1,0.3-0.5C10.4,8.3,10.4,8.2,10.5,8.2z"/>
		<path id="XMLID_430_" class="st20" d="M6.2,10.8C6.2,10.8,6.2,10.9,6.2,10.8c-0.2,0.1-0.4,0.1-0.4,0.3c-0.1,0.1-0.1,0.4-0.1,0.6
			c-0.1-0.1-0.3-0.5-0.4-0.7c0.1-0.2,0.4-0.2,0.6-0.4C6.1,10.4,6.2,10.7,6.2,10.8z"/>
		<path id="XMLID_429_" class="st21" d="M11.6,7.8c-0.3,0.3-0.6,0.4-1,0.3c0-0.1,0.1-0.2,0.2-0.3c0.1-0.2,0.3-0.2,0.5-0.2
			c0.1,0,0.1,0,0.2,0C11.5,7.7,11.6,7.7,11.6,7.8L11.6,7.8z"/>
		<path id="XMLID_428_" class="st22" d="M10.3,8.3c0.1,0.1,0.3,0.1,0.2,0.3S10.2,8.8,10,8.8c-0.1,0-0.2-0.1-0.3-0.1
			C9.6,8.6,9.6,8.5,9.6,8.4s0.1-0.1,0.1-0.1C9.9,8.4,10.1,8.5,10.3,8.3C10.2,8.3,10.2,8.3,10.3,8.3z"/>
		<path id="XMLID_427_" class="st23" d="M9,3.4C8.7,3.3,8.6,3,8.4,2.8c0.1-0.2,0.1-0.2,0.4-0.2C9,2.6,9,2.8,9,3C9,3.1,9,3.2,9,3.4z"
			/>
		<path id="XMLID_426_" class="st24" d="M11.6,7.8c0-0.1-0.1-0.1-0.1-0.2c0-0.2,0-0.3,0.1-0.5c0-0.1,0-0.3,0.2-0.3
			C11.9,6.8,12,6.9,12,7C11.8,7.4,11.8,7.7,11.6,7.8z"/>
		<path id="XMLID_425_" class="st25" d="M12.2,6.2C12,6,11.8,6,11.6,6c0-0.1,0.2-0.5,0.4-0.4C12.3,5.7,12.2,6,12.2,6.2z"/>
		<path id="XMLID_424_" class="st26" d="M11.3,7.6c-0.1,0.2-0.3,0.1-0.5,0.2c0.1-0.2,0.2-0.4,0.3-0.6C11.2,7.3,11.2,7.5,11.3,7.6z"
			/>
		<path id="XMLID_423_" class="st27" d="M12,6.8c-0.1-0.1-0.1-0.2-0.1-0.3c0-0.1-0.2-0.2,0-0.3c0.2-0.1,0.2,0.2,0.2,0.3
			C12,6.7,12,6.7,12,6.8z"/>
		<path id="XMLID_422_" class="st28" d="M6.6,7c0.2,0,0.1,0.5,0.1,0.8c0,0.2,0,0.4,0,0.6l0,0l0,0C6.6,7.9,6.7,7.5,6.6,7z"/>
		<path id="XMLID_421_" class="st29" d="M3.3,7.3c0,0.2,0.1,0.4,0,0.5C3.2,7.6,3.2,7.4,3.3,7.3z"/>
		<path id="XMLID_420_" class="st30" d="M7.4,12c-0.4-0.4-0.5-1-0.8-1.4c0.1-0.2,0.3-0.4,0.1-0.6c0,0,0.1-0.1,0.1-0.2
			c0,0,0.1,0,0.1-0.1c0.5-0.1,1,0,1.3,0.5c0,0,0,0,0,0.1c-0.1,0.4-0.2,0.8-0.1,1.2c0.1,0.1,0,0.2,0,0.4C8,12.2,7.8,12.1,7.4,12
			C7.5,12.1,7.5,12,7.4,12z"/>
		<path id="XMLID_419_" class="st31" d="M6.7,8.5C6.8,8.4,7,8.3,7.1,8.2C7.2,8.1,7.2,8,7.3,7.9c0.1-0.1,0.2-0.1,0.3,0
			C7.6,8,7.7,8.1,7.9,8C8,7.8,8.1,7.8,8.3,7.8s0.4,0,0.5,0.2c0.1,0.2,0,0.3-0.1,0.4c-0.5,0.1-1,0.2-1.4,0.4C7.1,8.9,7,8.9,7,9.1H6.9
			C6.9,8.9,6.8,8.7,6.7,8.5z"/>
		<path id="XMLID_418_" class="st32" d="M6.9,9.1L6.9,9.1C7.1,9,7.3,9,7.5,8.9s0.4,0,0.4,0.2c0,0.1,0,0.1-0.1,0.2
			c-0.3,0.2-0.6,0.1-1,0.1C6.9,9.3,6.9,9.2,6.9,9.1z"/>
		<path id="XMLID_417_" class="st33" d="M6.9,9.5C7,9.4,7,9.2,7.2,9.3s0.4-0.1,0.6,0c0,0.2-0.1,0.3-0.3,0.3c-0.2,0.1-0.4,0-0.6,0.1
			H6.8C6.8,9.6,6.9,9.5,6.9,9.5z"/>
		<path id="XMLID_416_" class="st34" d="M8.6,8.3c0-0.1,0.2-0.2,0.2-0.3c0,0,0.1,0,0.1,0.1C9,8.1,9,8.2,9,8.3
			C8.9,8.4,8.7,8.6,8.6,8.3z"/>
		<path id="XMLID_415_" class="st35" d="M8.9,8.2c0-0.1,0-0.1,0-0.2c0.2,0.1,0.5,0.1,0.8,0.1c0,0,0,0,0,0.1C9.4,8.4,9.2,8.4,8.9,8.2
			z"/>
		<path id="XMLID_414_" class="st36" d="M7.5,9.6c0.1-0.1,0.2-0.2,0.3-0.3l0.1-0.1C8,9.1,8,9,8.1,8.9c0.2-0.4,0.5-0.5,0.8-0.2
			c0.1,0.1,0.4,0,0.6,0.2c0.1,0.2-0.3,0.4-0.3,0.5C9.1,9.5,9,9.5,9,9.6c-0.3,0.2-0.4,0.5-0.8,0.6l0,0C8.1,10.1,8.3,10,8.3,9.8
			C8.1,9.7,7.7,9.8,7.5,9.6z"/>
		<path id="XMLID_413_" class="st37" d="M8.8,12.4c-0.2,0-0.3-0.4-0.2-0.5c0.1-0.2,0.3-0.4,0.6-0.4c0.1,0,0.4,0.1,0.4,0.2
			c0.1,0.2,0,0.3-0.1,0.4C9.2,12.2,8.9,12.2,8.8,12.4L8.8,12.4z"/>
		<path id="XMLID_412_" class="st38" d="M8.8,12.4L8.8,12.4c0.1,0.1,0.1,0.1,0.2,0.2c-0.1,0.1-0.3,0.2-0.4,0.3c-0.1,0-0.2,0-0.2,0
			C8.1,13,8,13,8,12.8c-0.1-0.2,0-0.3,0.1-0.4c0,0,0,0,0.1,0c0,0.2-0.1,0.4,0.2,0.2C8.5,12.5,8.6,12.5,8.8,12.4z"/>
		<path id="XMLID_411_" class="st38" d="M8.2,11.9c0-0.1,0-0.3,0-0.4c0.2,0.2,0.1,0.6,0,0.9l0,0c-0.1-0.1-0.1-0.1-0.1-0.2
			C8.1,12.1,8.1,12,8.2,11.9z"/>
		<path id="XMLID_410_" class="st39" d="M8.1,12.2c0,0.1,0,0.1,0,0.2c0,0.2-0.3,0.5,0.1,0.5C8,13,7.8,13,7.6,12.9
			c-0.1,0-0.2-0.1-0.1-0.2c0.1-0.3-0.1-0.5-0.1-0.8c0,0,0.1,0,0.1,0.1C7.7,12.1,7.9,12.3,8.1,12.2z"/>
		<path id="XMLID_409_" class="st40" d="M5.8,11.1c0-0.4,0.2-0.3,0.4-0.2C6.1,11,6,11.1,5.8,11.1z"/>
		<path id="XMLID_408_" class="st41" d="M7.5,7.9C7.4,7.9,7.4,8,7.3,8C6.9,7.9,7,7.5,6.8,7.3C6.7,7,6.8,6.7,6.7,6.5
			c0.2,0.2,0.3,0.3,0.5,0.5c0,0.1,0.2,0.2,0.1,0.2C7.3,7.7,7.3,7.7,7.6,7.4c0.1,0,0.1,0,0.2,0.1c0,0.1,0,0.1-0.1,0.2
			C7.7,7.7,7.6,7.8,7.5,7.9z"/>
		<path id="XMLID_407_" class="st42" d="M6.7,6.4C6.5,6.1,6.5,5.8,6.5,5.5c0.1-0.4,0-0.8,0-1.2c0.2,0.3,0.2,0.7,0.3,1
			C7,5.6,7.1,6,6.7,6.2C6.7,6.2,6.7,6.3,6.7,6.4z"/>
		<path id="XMLID_406_" class="st43" d="M6.8,7.3C7.1,7.4,7.1,7.8,7.3,8C7.2,8,7.2,8.1,7.1,8.2C7,7.9,6.7,7.6,6.8,7.3z"/>
		<path id="XMLID_405_" class="st44" d="M9.2,9.4c0-0.2,0.2-0.3,0.2-0.5c0-0.1,0-0.1,0-0.1c0.1,0,0.1,0,0.2,0.1V9
			C9.5,9.2,9.4,9.3,9.2,9.4z"/>
		<path id="XMLID_404_" class="st45" d="M9.4,8.9L9.4,8.9c-0.3,0.2-0.6,0-0.6-0.1C8.7,8.6,8.6,8.6,8.5,8.6C8.3,8.6,8.2,8.8,8.2,9
			S8.1,9.3,7.9,9.3C7.8,9,7.7,8.9,7.4,9.1c-0.1,0.1-0.3,0-0.5,0c0-0.2,0-0.3,0.3-0.4c0.4-0.1,0.9-0.3,1.3-0.4
			c0.2,0.2,0.3,0.1,0.4-0.1c0.3,0,0.5-0.1,0.8-0.1c0,0,0,0.2,0.1,0.2v0.1C9.6,8.5,9.5,8.7,9.4,8.9z"/>
		<path id="XMLID_403_" class="st46" d="M9.4,8.9c0-0.2,0-0.4,0.3-0.5c0,0.1,0,0.2,0,0.3S9.6,8.9,9.6,8.9C9.5,8.9,9.5,8.9,9.4,8.9z"
			/>
		<path id="XMLID_402_" class="st47" d="M10.6,9.2c0,0.1,0,0.3-0.2,0.2c-0.1,0-0.1-0.1-0.1-0.1C10.3,9.1,10.5,9.2,10.6,9.2L10.6,9.2
			z"/>
		<path id="XMLID_401_" class="st48" d="M7.5,9.6c0.2,0.1,0.4,0.1,0.6,0.1c0.1,0,0.3,0,0.3,0.1c0.2,0.1,0,0.2-0.1,0.2
			c0,0-0.1,0.1-0.1,0.2C7.9,9.8,7.4,9.7,6.9,9.7C7.1,9.6,7.3,9.6,7.5,9.6z"/>
		<path id="XMLID_400_" class="st49" d="M8.1,12.2c-0.3,0.3-0.4,0-0.6-0.2c0.2-0.1,0.4,0,0.6-0.1C8.1,12,8.1,12.1,8.1,12.2z"/>
		<path id="XMLID_399_" class="st50" d="M7.8,9.5C8,9.3,8.1,9.4,8.3,9.4C8.2,9.6,8,9.5,7.8,9.5z"/>
	</g>
</g>
</svg>
