<?xml version="1.0" encoding="utf-8"?>
<!-- Generator: Adobe Illustrator 20.1.0, SVG Export Plug-In . SVG Version: 6.00 Build 0)  -->
<svg version="1.1" id="Слой_1" xmlns="http://www.w3.org/2000/svg" xmlns:xlink="http://www.w3.org/1999/xlink" x="0px" y="0px"
	 width="16px" height="16px" viewBox="0 0 16 16" style="enable-background:new 0 0 16 16;" xml:space="preserve">
<path id="XMLID_213_" d="M15.4,6.2h-3.7c0-0.1,0-0.1-0.1-0.2L8.5,1.4c0-0.1-0.1-0.1-0.1-0.1l0,0l0,0c-0.1,0-0.1-0.1-0.2-0.1l0,0H8.1
	H8l0,0c-0.1,0-0.1,0-0.2,0.1l0,0l0,0c-0.1,0-0.1,0.1-0.1,0.1L4.3,6c0,0.1-0.1,0.1-0.1,0.2H0.6C0.2,6.2-0.1,6.6,0,7l2.2,7.5
	c0.1,0.3,0.3,0.4,0.6,0.4h10.4c0.3,0,0.5-0.2,0.6-0.4L16,7C16.1,6.6,15.8,6.2,15.4,6.2z M8,2.8l2.3,3.5H5.7L8,2.8z M8,12.4
	c-1,0-1.9-0.8-1.9-1.9c0-1,0.8-1.9,1.9-1.9s1.9,0.8,1.9,1.9C9.9,11.5,9,12.4,8,12.4z"/>
</svg>
