<?xml version="1.0" encoding="utf-8"?>
<!-- Generator: Adobe Illustrator 20.1.0, SVG Export Plug-In . SVG Version: 6.00 Build 0)  -->
<svg version="1.1" id="Слой_1" xmlns="http://www.w3.org/2000/svg" xmlns:xlink="http://www.w3.org/1999/xlink" x="0px" y="0px"
	 width="16px" height="16px" viewBox="0 0 16 16" style="enable-background:new 0 0 16 16;" xml:space="preserve">
<g id="XMLID_113_">
	<path id="XMLID_139_" d="M3,5.2C3,4.8,3,4.4,3.1,4C1.3,4.9,0,6.6,0,8.6c0,1.7,0.9,3.2,2.4,4.2L2.5,16l2.1-2.2
		c0.4,0.1,0.8,0.1,1.2,0.1c2,0,3.7-0.9,4.8-2.2c-0.2,0-0.4,0-0.5,0C6.2,11.7,3,8.8,3,5.2z"/>
	<path id="XMLID_138_" d="M10.1,0C6.9,0,4.2,2.3,4.2,5.2s2.6,5.2,5.9,5.2c0.4,0,0.8,0,1.2-0.1l2.1,2.2l0.1-3.2
		c1.4-1,2.4-2.5,2.4-4.2C16,2.3,13.4,0,10.1,0z"/>
</g>
</svg>
