<?xml version="1.0" encoding="utf-8"?>
<!-- Generator: Adobe Illustrator 20.1.0, SVG Export Plug-In . SVG Version: 6.00 Build 0)  -->
<svg version="1.1" id="Слой_1" xmlns="http://www.w3.org/2000/svg" xmlns:xlink="http://www.w3.org/1999/xlink" x="0px" y="0px"
	 width="16px" height="16px" viewBox="0 0 16 16" style="enable-background:new 0 0 16 16;" xml:space="preserve">
<path id="XMLID_22_" d="M10.7,8l4.7-4.7c0.7-0.7,0.7-2,0-2.7c-0.7-0.7-2-0.7-2.7,0L8,5.3L3.3,0.6c-0.7-0.7-2-0.7-2.7,0s-0.7,2,0,2.7
	L5.3,8l-4.7,4.7c-0.7,0.7-0.7,2,0,2.7s2,0.7,2.7,0L8,10.7l4.7,4.7c0.7,0.7,2,0.7,2.7,0c0.7-0.7,0.7-2,0-2.7L10.7,8z"/>
</svg>
