<?xml version="1.0" encoding="utf-8"?>
<!-- Generator: Adobe Illustrator 20.1.0, SVG Export Plug-In . SVG Version: 6.00 Build 0)  -->
<svg version="1.1" id="Слой_1" xmlns="http://www.w3.org/2000/svg" xmlns:xlink="http://www.w3.org/1999/xlink" x="0px" y="0px"
	 width="16px" height="16px" viewBox="0 0 16 16" style="enable-background:new 0 0 16 16;" xml:space="preserve">
<g id="XMLID_242_">
	<path id="XMLID_245_" d="M13.1,2v1.3c0,1.2-0.9,2.1-2.1,2.1S8.9,4.5,8.9,3.3V2H7.2v1.3c0,1.2-0.9,2.1-2.1,2.1S3,4.5,3,3.3V2H0v13.7
		h16V2H13.1z M5.2,13.8H2.5v-2.3h2.7V13.8z M5.2,9.6H2.5V7.3h2.7V9.6z M9.3,13.8H6.7v-2.3h2.7L9.3,13.8L9.3,13.8z M9.3,9.6H6.7V7.3
		h2.7L9.3,9.6L9.3,9.6z M10.8,13.8v-2.3h2.7L10.8,13.8z M13.5,9.6h-2.7V7.3h2.7V9.6z"/>
	<path id="XMLID_244_" d="M5.1,4.4c0.6,0,1.1-0.5,1.1-1.1v-2c0-0.6-0.5-1.1-1.1-1.1s-1,0.6-1,1.1v2C4.1,3.9,4.5,4.4,5.1,4.4z"/>
	<path id="XMLID_243_" d="M11,4.4c0.6,0,1.1-0.5,1.1-1.1v-2c0-0.6-0.5-1.1-1.1-1.1s-1,0.6-1,1.1v2C10,3.9,10.5,4.4,11,4.4z"/>
</g>
</svg>
