<?xml version="1.0" encoding="utf-8"?>
<!-- Generator: Adobe Illustrator 20.1.0, SVG Export Plug-In . SVG Version: 6.00 Build 0)  -->
<svg version="1.1" id="Слой_1" xmlns="http://www.w3.org/2000/svg" xmlns:xlink="http://www.w3.org/1999/xlink" x="0px" y="0px"
	 width="16px" height="16px" viewBox="0 0 16 16" style="enable-background:new 0 0 16 16;" xml:space="preserve">
<g id="XMLID_474_">
	<path id="XMLID_479_" d="M8.2,12.4c-2.4,0-2.5,0-4.9,0c-0.3,0-0.4-0.1-0.4-0.4c0-2.6,0-5.2,0-7.8c0-0.4,0.1-0.5,0.5-0.5
		c2.3,0,2.5,0,4.8,0c0.3,0,0.5,0,0.8-0.1c0.6-0.3,1-1,0.9-1.6C9.7,1.2,9.1,0.8,8.3,0.8c-3,0-3.7,0-6.7,0C0.6,0.8,0,1.3,0,2.4
		C0,4.3,0,6.1,0,8s0,3.7,0,5.6c0,1,0.6,1.6,1.6,1.6c2.9,0,3.7,0,6.6,0c1,0,1.6-0.6,1.7-1.4C9.9,12.9,9.2,12.4,8.2,12.4z"/>
	<path id="XMLID_19_" d="M15.5,7c-1-1-2-2-3-3c-0.6-0.6-1.3-0.6-1.7-0.1c-0.5,0.5-0.4,1.2,0.1,1.7c0.4,0.4,0.7,0.7,1.2,1.2
		c-0.3,0-0.5,0-0.6,0c-1.6,0-3.1,0-4.7,0c-0.9,0-1.4,0.4-1.4,1.1c0,0.7,0.5,1.2,1.4,1.2c1,0,1.9,0,2.9,0c0.8,0,1.5,0,2.3,0
		c0,0.1,0,0.1,0.1,0.2c-0.4,0.3-0.7,0.6-1,1c-0.6,0.6-0.6,1.3-0.1,1.7c0.5,0.5,1.2,0.4,1.7-0.1c1-1,2-2,3-3
		C16.2,8.2,16.2,7.6,15.5,7z"/>
</g>
</svg>
