<?xml version="1.0" encoding="utf-8"?>
<!-- Generator: Adobe Illustrator 20.1.0, SVG Export Plug-In . SVG Version: 6.00 Build 0)  -->
<svg version="1.1" id="Слой_1" xmlns="http://www.w3.org/2000/svg" xmlns:xlink="http://www.w3.org/1999/xlink" x="0px" y="0px"
	 width="16px" height="16px" viewBox="0 0 16 16" style="enable-background:new 0 0 16 16;" xml:space="preserve">
<g>
	<path d="M8,5.7c0.4,0,0.7,0.1,1,0.2l0.9-0.6C9.3,5,8.7,4.7,8,4.7C6.2,4.7,4.7,6.2,4.7,8c0,0.4,0.1,0.7,0.2,1.1l0.8-0.6
		c0-0.1,0-0.3,0-0.4C5.7,6.7,6.8,5.7,8,5.7z"/>
	<path d="M8,10.3c-0.4,0-0.7-0.1-1-0.2l-0.9,0.6C6.7,11,7.3,11.3,8,11.3c1.8,0,3.3-1.5,3.3-3.3c0-0.4-0.1-0.7-0.2-1.1l-0.8,0.6
		c0,0.1,0,0.3,0,0.4C10.3,9.3,9.3,10.3,8,10.3z"/>
	<path d="M2.6,10.9l0.8-0.6C2.5,9.7,1.8,8.9,1.2,8C2.7,5.7,5.2,4.3,8,4.3c0.9,0,1.8,0.2,2.6,0.4l0.9-0.7C10.4,3.6,9.2,3.4,8,3.4
		C4.8,3.4,1.9,5,0.2,7.7L0,8l0.2,0.3C0.8,9.3,1.6,10.2,2.6,10.9z"/>
	<path d="M15.8,7.7c-0.6-1-1.5-1.9-2.4-2.6l-0.8,0.6c0.9,0.6,1.6,1.3,2.2,2.3c-1.5,2.3-4.1,3.7-6.8,3.7c-0.9,0-1.8-0.2-2.6-0.4
		l-0.9,0.7c1.1,0.5,2.3,0.7,3.5,0.7c3.2,0,6.2-1.6,7.8-4.4L16,8L15.8,7.7z"/>
	<rect x="-1.1" y="7.5" transform="matrix(0.7951 -0.6064 0.6064 0.7951 -3.2124 6.4907)" width="18.2" height="1"/>
</g>
</svg>
