<?xml version="1.0" encoding="utf-8"?>
<!-- Generator: Adobe Illustrator 20.1.0, SVG Export Plug-In . SVG Version: 6.00 Build 0)  -->
<svg version="1.1" id="Слой_1" xmlns="http://www.w3.org/2000/svg" xmlns:xlink="http://www.w3.org/1999/xlink" x="0px" y="0px"
	 width="16px" height="16px" viewBox="0 0 16 16" style="enable-background:new 0 0 16 16;" xml:space="preserve">
<g>
	<path d="M15.8,7.7C14.2,5,11.2,3.4,8,3.4S1.9,5,0.2,7.7L0,8l0.2,0.3C1.9,11,4.8,12.6,8,12.6s6.2-1.6,7.8-4.4L16,8L15.8,7.7z
		 M8,11.7c-2.8,0-5.3-1.4-6.8-3.7C2.7,5.7,5.2,4.3,8,4.3c2.8,0,5.3,1.4,6.8,3.7C13.3,10.3,10.8,11.7,8,11.7z"/>
	<path d="M8,4.7C6.2,4.7,4.7,6.2,4.7,8c0,1.8,1.5,3.3,3.3,3.3c1.8,0,3.3-1.5,3.3-3.3C11.3,6.2,9.8,4.7,8,4.7z M8,10.3
		c-1.3,0-2.3-1-2.3-2.3s1-2.3,2.3-2.3s2.3,1,2.3,2.3S9.3,10.3,8,10.3z"/>
</g>
</svg>
