<?xml version="1.0" encoding="utf-8"?>
<!-- Generator: Adobe Illustrator 20.1.0, SVG Export Plug-In . SVG Version: 6.00 Build 0)  -->
<svg version="1.1" id="Слой_1" xmlns="http://www.w3.org/2000/svg" xmlns:xlink="http://www.w3.org/1999/xlink" x="0px" y="0px"
	 width="24px" height="24px" viewBox="0 0 24 24" style="enable-background:new 0 0 24 24;" xml:space="preserve">
<title>fb</title>
<path d="M9.1,17.5v-5.1C9.1,12.1,9,12,8.7,12H7.2c-0.3,0-0.4-0.1-0.4-0.4v-3c0-0.3,0.1-0.4,0.4-0.4h1.6c0.1,0,0.3-0.1,0.3-0.2V7.9
	V5.2c0-1.4,0.6-2.7,1.8-3.5C11.6,1.3,12.4,1,13.2,1h3.7c0.1,0,0.3,0.1,0.3,0.2v0.1v3.2c0,0.3-0.1,0.3-0.3,0.3h-1.8
	c-0.7,0-1.3,0.4-1.3,1.1v1.9c0,0.2,0.1,0.3,0.4,0.3h2.7c0.1,0,0.3,0.1,0.3,0.2v0.1l-0.3,3.3c0,0.1-0.1,0.3-0.2,0.3h-0.1h-2.3
	c-0.3,0-0.4,0.1-0.4,0.4v10.1c0,0.2,0,0.5-0.5,0.5H9.7c-0.3,0-0.6-0.1-0.6-0.5C9.1,20.7,9.1,19.2,9.1,17.5z"/>
</svg>
