<svg id="Слой_1" data-name="Слой 1" xmlns="http://www.w3.org/2000/svg" width="24" height="24" viewBox="0 0 24 24">
  <title>g+</title>
  <g>
    <path d="M14.55269,10.45669c-2.23122.0071-4.46247.00464-6.69371.00474H7.62764c-.00432.08921-.00944.14563-.00943.202.00012.87678.00676,1.75363-.00294,2.63029-.00218.197.05419.2528.25078.25172,1.19037-.00658,2.38081-.0003,3.57122.00164.08187.00013.16375,0,.25756,0a3.36243,3.36243,0,0,1-.80555,1.65785,4.17589,4.17589,0,0,1-4.22222,1.21078A4.544,4.544,0,0,1,4.108,9.24235a4.34022,4.34022,0,0,1,6.3594-.71195.35357.35357,0,0,0,.06209.03907l2.195-2.204a.06167.06167,0,0,0-.01015-.02484.33208.33208,0,0,0-.044-.0463A7.20234,7.20234,0,0,0,8.267,4.39432a7.6235,7.6235,0,0,0-8.1914,8.60654,7.47134,7.47134,0,0,0,3.86726,5.6622,7.54209,7.54209,0,0,0,5.14339.83727A6.6169,6.6169,0,0,0,13.70113,16.589a8.14717,8.14717,0,0,0,1.14472-5.87906C14.81723,10.5127,14.75028,10.45606,14.55269,10.45669Z"/>
    <polygon points="21.336 10.655 21.336 7.991 19.422 7.991 19.422 10.655 16.758 10.655 16.758 12.569 19.422 12.569 19.422 15.233 21.336 15.233 21.336 12.569 24 12.569 24 10.655 21.336 10.655"/>
  </g>
</svg>
