<svg id="Слой_1" data-name="Слой 1" xmlns="http://www.w3.org/2000/svg" width="16" height="16" viewBox="0 0 16 16">
  <title>abbigli 16х16</title>
  <path d="M4.78017,13.41155a7.56766,7.56766,0,0,1-.59426-1.02813c-.4758-.92124-1.04423-1.78733-1.59841-2.66178-.26544-.41883-.52907-.83879-.77719-1.26822-.02356-.04078-.042-.0845-.06286-.12688A.54979.54979,0,0,0,2.23326,7.56a4.78686,4.78686,0,0,1-.12677-.51737,2.63142,2.63142,0,0,1,1.06317.83966c.31759.38822.5777.81735.86577,1.2266a4.44257,4.44257,0,0,0,.70767.81928,1.42865,1.42865,0,0,0,.29286.20357A.5625.5625,0,0,0,5.77515,9.988a2.19058,2.19058,0,0,0,.49842-1.1155c.00849-.0508.02232-.1007.03367-.151.13831-.02156.24889.06333.3728.09709l.03567.95356a5.739,5.739,0,0,1-.06044.93025c-.04072.0671-.07685.13761-.1234.20039a.1277.1277,0,0,0,.007.18046l.00591.00514a.37919.37919,0,0,1,.03454.50944q-.09279.16459-.18609.3289a.4006.4006,0,0,0-.20689.08376,4.53569,4.53569,0,0,0-.48915.43148.83149.83149,0,0,1-.48092.28023.20847.20847,0,0,0-.134.08668A2.02278,2.02278,0,0,0,4.78017,13.41155Z" fill="#019741"/>
  <path d="M11.86641,13.244a6.34814,6.34814,0,0,1-.668,1.569.3491.3491,0,0,0-.41273-.09371c-.305.09857-.62686.11267-.93733.18428a.12246.12246,0,0,1-.11771-.03954.25821.25821,0,0,1-.064-.21976.46562.46562,0,0,1,.354-.2846,1.64222,1.64222,0,0,0,.468-.19892.37671.37671,0,0,0-.01919-.66693.83547.83547,0,0,0-.73068.10758,2.66885,2.66885,0,0,0-.42185.61469.25418.25418,0,0,0,.18331.42836c-.13339.09013-.26523.18267-.40072.26953a1.09649,1.09649,0,0,1-.27315.14075c-.13652.04092-.175.00748-.18823-.13317a4.79352,4.79352,0,0,1,.13755-.812,1.04,1.04,0,0,0-.1596-.75473,2.12958,2.12958,0,0,1-.061-.915,7.5516,7.5516,0,0,1,.20556-.92365,1.69025,1.69025,0,0,0,.50743-.36864,3.61038,3.61038,0,0,1,.59538-.58135.07325.07325,0,0,0,.031-.0346.57508.57508,0,0,1,.28232-.309,1.33905,1.33905,0,0,0,.4074-.3024c.07407-.08183.14985-.1621.22486-.24307a.13563.13563,0,0,1,.105.06968q.1336.1731.26316.34932a.92634.92634,0,0,0,.76775.44195.67436.67436,0,0,1,.70522.42894,2.79154,2.79154,0,0,1-.26921.66853.69738.69738,0,0,1-.68942-.13108,1.57932,1.57932,0,0,0-.72319-.2716.20856.20856,0,0,0-.251.20133.24592.24592,0,0,0,.21393.24483.96023.96023,0,0,1,.33.12893.26019.26019,0,0,1,.11086.309.85943.85943,0,0,1-.16842.28447.72142.72142,0,0,0-.2261.5047.414.414,0,0,0,.22548.329.26868.26868,0,0,0,.29973-.04625c.05241-.03564.10464-.072.15979-.10306.11491-.06464.14774-.05046.18749.07689A.76235.76235,0,0,1,11.86641,13.244Z" fill="#ebb601"/>
  <path d="M8.37405,6.86389a4.90065,4.90065,0,0,0,.11859-1.516,17.86,17.86,0,0,1,.11813-2.6406,16.68672,16.68672,0,0,1,.31738-2.059A1.49631,1.49631,0,0,1,9.065.256.43264.43264,0,0,1,9.53437.00636.44752.44752,0,0,1,9.9277.39585a3.6568,3.6568,0,0,1,.00084.71359c-.004.42142-.008.84285-.00911,1.26428Q9.914,4.46763,9.911,6.56153a1.45189,1.45189,0,0,0,.03634.35452.26585.26585,0,0,0,.22.22162,2.16149,2.16149,0,0,0,.64409.83156.28768.28768,0,0,1,.1201.38863A2.25009,2.25009,0,0,1,9.816,8.24166l-.28929-.14552a.7025.7025,0,0,0-.72-.30123Z" fill="#e74c2e"/>
  <path d="M4.78017,13.41155a2.02278,2.02278,0,0,1,.30212-.60269.20847.20847,0,0,1,.134-.08668.83149.83149,0,0,0,.48092-.28023,4.53559,4.53559,0,0,1,.48915-.43148.4006.4006,0,0,1,.20689-.08376,5.34214,5.34214,0,0,1,.50157.98042A3.839,3.839,0,0,0,7.574,14.06894a2.83924,2.83924,0,0,0,.19079.6105.76474.76474,0,0,1,.00714.51259c-.05983.1643-.01607.24679.15391.282.128.02649.25638.05381.386.06892a.59879.59879,0,0,0,.49535-.10635,1.41669,1.41669,0,0,1,.5592.03727,2.05989,2.05989,0,0,0,1.05634-.027,2.1408,2.1408,0,0,1,.46523-.085.86693.86693,0,0,1-.78868.63659,2.95584,2.95584,0,0,1-1.12475-.16472,1.777,1.777,0,0,0-.73231-.1171,3.38031,3.38031,0,0,1-2.04082-.48772A3.61089,3.61089,0,0,1,4.78017,13.41155Z" fill="#e33731"/>
  <path d="M8.37405,6.86389l.4328.931c-.01.006-.01946.016-.03.01733a.91762.91762,0,0,0-.64461.30168.19931.19931,0,0,1-.30548-.00481,1.47472,1.47472,0,0,1-.11907-.14595A.51461.51461,0,0,1,8.1151,7.6722a.17929.17929,0,0,0,.16408-.1345.16791.16791,0,0,0-.08232-.17354.20134.20134,0,0,0-.224.00945c-.09765.05275-.193.11039-.29355.157-.14633.06779-.242.01015-.2549-.1495a.32128.32128,0,0,1,.0124-.117.35483.35483,0,0,0-.13513-.47224,1.65641,1.65641,0,0,1-.2973-.291,5.02436,5.02436,0,0,0-.46456-.47573l-.14313-.38165c.00765-.0174.02426-.03636.02155-.052-.02409-.13877.05075-.2.16476-.26187a.47633.47633,0,0,0,.2693-.4634A1.05067,1.05067,0,0,0,6.744,4.43308a2.0415,2.0415,0,0,1-.2068-.9146,1.85063,1.85063,0,0,0-.09047-.5697.36439.36439,0,0,0-.1451-.21872c-.05593-.24538-.10882-.49149-.16845-.736-.1091-.4473-.22219-.89362-.33362-1.34036a.437.437,0,0,1,.60129.1428l.00165.00271a1.193,1.193,0,0,1,.20241.56581,13.93122,13.93122,0,0,0,.53967,2.31359A24.27913,24.27913,0,0,1,7.816,6.14329a2.95559,2.95559,0,0,0,.10361.48791.32267.32267,0,0,0,.45445.23269Z" fill="#019741"/>
  <path d="M12.13664,8.40941c.19169-.32476.37793-.65289.57631-.97351a12.36378,12.36378,0,0,0,.77394-1.67216q.15475-.36044.30771-.72161a.929.929,0,0,1,.679.28341c.03906.04289.05622.10679.11883.12767-.06633.36734-.199.71669-.2922,1.07639A11.75257,11.75257,0,0,1,13.378,8.90469c-.00884.01741-.02056.03336-.031.05a.79073.79073,0,0,1-.861-.241C12.37333,8.60829,12.25333,8.51063,12.13664,8.40941Z" fill="#7a2b82"/>
  <path d="M10.26741,7.00517a17.81582,17.81582,0,0,1,.335-1.81467l.02815.0642c.077.18079.15032.19858.28428.05779.12539-.13179.24687-.268.3611-.4095a1.82811,1.82811,0,0,0,.23439-.3837c.11682-.25254.19983-.51762.2952-.77778a2.726,2.726,0,0,0,.1741-.42894,1.18562,1.18562,0,0,0-.17314-.908A2.06964,2.06964,0,0,0,11.19692,1.8a.48183.48183,0,0,1,.61717-.49953.53956.53956,0,0,1,.33348.56308c-.01364.44861-.03108.89709-.04523,1.34569-.01379.43695-.06587.87025-.10779,1.30493-.03694.38308-.05531.76837-.109,1.15-.06851.48707-.14447.973-.25025,1.4537-.01184-.04593-.02689-.09121-.03474-.13771a.19247.19247,0,0,0-.1553-.1846.19788.19788,0,0,0-.21562.086c-.11582.15018-.22639.30578-.3551.44429-.16391.1764-.24395.19148-.395-.00774A2.41058,2.41058,0,0,0,10.26741,7.00517Z" fill="#e6458a"/>
  <path d="M6.39669,5.64349l.14308.38161a4.3892,4.3892,0,0,0,.02533.67567.4755.4755,0,0,0,.1943.38814.44608.44608,0,0,1,.14954.17951,4.437,4.437,0,0,0,.41778.857A6.093,6.093,0,0,0,6.68,8.81859c-.1239-.03376-.23448-.11865-.37278-.09709a8.22859,8.22859,0,0,1,.0193-.88164A6.19813,6.19813,0,0,0,6.12734,6.118a26.75709,26.75709,0,0,1-.63607-4.65706,1.54131,1.54131,0,0,1,.02195-.43942A.48563.48563,0,0,1,5.79955.65374c.11143.44673.22452.89306.33362,1.34036.05963.24447.11252.49059.16844.736-.00043.07137-.00152.14273-.00115.21409a10.03825,10.03825,0,0,1-.0722,1.62051A1.793,1.793,0,0,0,6.39669,5.64349Z" fill="#035b31"/>
  <path d="M11.19692,1.8a2.06965,2.06965,0,0,1,.60961.60451,1.18562,1.18562,0,0,1,.17314.908,2.726,2.726,0,0,1-.1741.42894c-.09536.26015-.17837.52524-.2952.77778a1.82811,1.82811,0,0,1-.23439.3837c-.11423.14151-.23571.27771-.3611.4095-.134.1408-.20725.123-.28428-.05779l-.02815-.0642c.229-1.08067.384-2.17424.56835-3.26268C11.17805,1.885,11.18815,1.84262,11.19692,1.8Z" fill="#e53c6f"/>
  <path d="M11.86641,13.244a.76253.76253,0,0,0-.01633-.08128c-.03975-.12735-.07258-.14153-.18749-.07689-.05515.031-.10737.06742-.15979.10306a.26868.26868,0,0,1-.29973.04625.414.414,0,0,1-.22548-.329.72142.72142,0,0,1,.2261-.5047.85943.85943,0,0,0,.16842-.28447.26019.26019,0,0,0-.11086-.309.96023.96023,0,0,0-.33-.12893.24592.24592,0,0,1-.21393-.24483.20856.20856,0,0,1,.251-.20133,1.57932,1.57932,0,0,1,.72319.2716.69738.69738,0,0,0,.68942.13108,10.59191,10.59191,0,0,1-.469,1.51421C11.89885,13.182,11.88168,13.21258,11.86641,13.244Z" fill="#ecc901"/>
  <path d="M10.88794,15.3618a2.1408,2.1408,0,0,0-.46523.085,2.05989,2.05989,0,0,1-1.05634.027,1.4173,1.4173,0,0,0-.55922-.0373l-.02308-.0055c-.39868-.09729-.444-.18428-.26851-.55734a.73085.73085,0,0,0,.071-.4463,3.95645,3.95645,0,0,0,.03173-.42893L8.616,13.35471a1.04,1.04,0,0,1,.1596.75473,4.79352,4.79352,0,0,0-.13755.812c.01321.14065.05171.17409.18823.13317a1.09649,1.09649,0,0,0,.27315-.14075c.13549-.08686.26733-.1794.40072-.26955l.16643-.00017a.25821.25821,0,0,0,.064.21976.12246.12246,0,0,0,.11771.03954c.31047-.07161.63231-.08571.93733-.18428a.3491.3491,0,0,1,.41273.09371,2.41273,2.41273,0,0,1-.29092.5259L10.885,15.362Z" fill="#dc9f05"/>
  <path d="M10.26741,7.00517a2.41068,2.41068,0,0,1,.21212.31292c.151.19922.23109.18414.395.00774.12871-.13852.23928-.29411.3551-.44429a.19788.19788,0,0,1,.21562-.086.19247.19247,0,0,1,.1553.1846c.00786.0465.02291.09178.03474.13771-.026.2807-.05946.56088-.07552.84205a1.15265,1.15265,0,0,0,.086.52447c-.02471.035-.04924.07013-.07419.105a.27517.27517,0,0,1-.326.1277,1.58309,1.58309,0,0,1-.23065-.11362.60953.60953,0,0,1-.08327-.24558.28765.28765,0,0,0-.12009-.38861,2.16149,2.16149,0,0,1-.64409-.83156C10.23307,7.11791,10.2459,7.05827,10.26741,7.00517Z" fill="#e53c6f"/>
  <path d="M12.65011,10.967a.67436.67436,0,0,0-.70522-.42894.92634.92634,0,0,1-.76775-.44195q-.12953-.17618-.26316-.34932a.13561.13561,0,0,0-.105-.06968c.01389-.06687-.02692-.12557-.02839-.19019l.1582-.33476.423.14709a.19144.19144,0,0,0,.11779.09562.33027.33027,0,0,0,.27066.30768,1.131,1.131,0,0,1,.72358.56328.42027.42027,0,0,0,.32228.201A1.54163,1.54163,0,0,1,12.65011,10.967Z" fill="#ecc901"/>
  <path d="M12.79621,10.46681a.42027.42027,0,0,1-.32228-.201,1.131,1.131,0,0,0-.72358-.56328.33026.33026,0,0,1-.27065-.30772,2.322,2.322,0,0,1,.78088-.124.97123.97123,0,0,1,.75193.39233A3.19417,3.19417,0,0,1,12.79621,10.46681Z" fill="#ebb601"/>
  <path d="M2.10649,7.04267A4.78687,4.78687,0,0,0,2.23326,7.56a.54979.54979,0,0,1-.48582.7665,4.57882,4.57882,0,0,1-.29229-.47436.65091.65091,0,0,0,.05462-.40269c-.01433-.12135-.02988-.24256-.04488-.36383A.53721.53721,0,0,1,2.10649,7.04267Z" fill="#dc9f05"/>
  <path d="M13.01251,9.66315a.97123.97123,0,0,0-.75193-.39233,2.322,2.322,0,0,0-.78088.124.19123.19123,0,0,1-.11781-.09561.89154.89154,0,0,1,.26216-.04819.75285.75285,0,0,0,.4641-.21192.19337.19337,0,0,0-.03623-.32014c-.08539-.06231-.19355-.09287-.2579-.18438a.93952.93952,0,0,0,.34262-.12515c.11667.10123.23668.1989.34937.30438a.79073.79073,0,0,0,.861.241Z" fill="#dc9f05"/>
  <path d="M11.794,8.53454c.06435.09151.17251.12207.2579.18438a.19337.19337,0,0,1,.03623.32014.75285.75285,0,0,1-.4641.21192.89154.89154,0,0,0-.26216.04819l-.42306-.14706.01911-.42649.05691-.12222a1.582,1.582,0,0,0,.23065.11362.27517.27517,0,0,0,.326-.1277c.025-.03482.04948-.07.07419-.105A.24606.24606,0,0,0,11.794,8.53454Z" fill="#e74c2e"/>
  <path d="M14.59238,5.45321c-.0626-.02087-.07976-.08478-.11883-.12767a.929.929,0,0,0-.679-.28341.89993.89993,0,0,1,.29794-.43413.29642.29642,0,0,1,.34086-.06274.40163.40163,0,0,1,.27332.343A1.37378,1.37378,0,0,1,14.59238,5.45321Z" fill="#e6458a"/>
  <path d="M1.46489,7.08566c.015.12127.03056.24248.04488.36383a.65091.65091,0,0,1-.05462.40269.52.52,0,0,1-.02247-.73512Q1.4481,7.10067,1.46489,7.08566Z" fill="#019741"/>
  <path d="M10.885,15.362l.02248-.02312C10.90548,15.35191,10.90651,15.36789,10.885,15.362Z" fill="#e33731"/>
  <path d="M8.61608,13.35475l.00226.64373a.83375.83375,0,0,1-.41949.09666,1.57247,1.57247,0,0,0-.44149.0465l-.18336-.0727a3.839,3.839,0,0,1-.67917-1.16181,5.34214,5.34214,0,0,0-.50157-.98042l.18609-.3289a.37919.37919,0,0,0-.03454-.50944.1277.1277,0,0,1-.01808-.17969l.00514-.00591c.04655-.06278.08268-.13329.12343-.20037l.17.00152A2.383,2.383,0,0,1,7.42759,10.7a1.75008,1.75008,0,0,1,.87161.31339,3.00745,3.00745,0,0,1,.41295.40745c-.00313.04158.03407.06264.0485.09528a7.5516,7.5516,0,0,0-.20556.92365A2.12959,2.12959,0,0,0,8.61608,13.35475Z" fill="#01a0ad"/>
  <path d="M8.76065,11.5161c-.01443-.03264-.05162-.0537-.0485-.09528.00961-.00689.02676-.01284.02775-.0208.0233-.18791.157-.27013.30594-.35868a.22312.22312,0,0,0-.01134-.409.47657.47657,0,0,0-.30838-.06218,2.29539,2.29539,0,0,1-.93351-.11236.17661.17661,0,0,0-.12706-.00412,1.704,1.704,0,0,1-.42726.08606c-.14687.02773-.309.02542-.413.16416l-.17-.00152a5.73305,5.73305,0,0,0,.06032-.93026l.08594.0008c.11349.01281.2272.02381.34039.03883a.53935.53935,0,0,0,.44317-.11755.33637.33637,0,0,1,.5352.05146A.47033.47033,0,0,1,8.185,9.845a.11307.11307,0,0,0,.12.07336.31045.31045,0,0,0,.33382-.3338.79179.79179,0,0,1,.05386-.242.59339.59339,0,0,1,.524-.35343c.18774-.02659.275.11225.366.24984a.65431.65431,0,0,0,.629.36927c.08-.008.14877-.05758.23061-.05022a.40487.40487,0,0,1-.13838.3221.47262.47262,0,0,0-.12722.34237.57508.57508,0,0,0-.28232.309.07325.07325,0,0,1-.031.0346,3.61042,3.61042,0,0,0-.59538.58135A1.69026,1.69026,0,0,1,8.76065,11.5161Z" fill="#037f96"/>
  <path d="M6.80155,9.77294l-.08593-.00079q-.0177-.47679-.03558-.95356a6.091,6.091,0,0,1,.64669-.69313l.38092-.16231a1.47483,1.47483,0,0,0,.11907.14595.19931.19931,0,0,0,.30548.00481.91762.91762,0,0,1,.64461-.30168c.01058-.00137.02-.01136.03-.01733a.7025.7025,0,0,1,.72.30123.50263.50263,0,0,1-.09885.25819c-.0496.08755-.1433.1452-.16757.24946-.094.01145-.18906.01727-.28173.0354a6.31359,6.31359,0,0,0-.84459.23869c-.356.12274-.7175.22923-1.07564.34578a.34926.34926,0,0,0-.2565.35831C6.80163,9.64562,6.80167,9.70928,6.80155,9.77294Z" fill="#01a0ad"/>
  <path d="M9.66664,14.64422l-.16643.00017A.25418.25418,0,0,1,9.3169,14.216a2.66885,2.66885,0,0,1,.42185-.61469.83547.83547,0,0,1,.73068-.10758.37671.37671,0,0,1,.01919.66693,1.64222,1.64222,0,0,1-.468.19892A.46562.46562,0,0,0,9.66664,14.64422Z" fill="#ecc901"/>
  <path d="M10.17675,10.22253a.47262.47262,0,0,1,.12722-.34237.4049.4049,0,0,0,.13839-.3221l-.00189-.02739a.02465.02465,0,0,0,.00892-.01847l.0992-.06934c.06237.09351.15176.04477.232.04406.0015.06458.04231.12328.02842.19015-.075.081-.15082.16123-.22489.24306A1.33906,1.33906,0,0,1,10.17675,10.22253Z" fill="#c15426"/>
  <path d="M10.44047,9.53067l.00189.02739c-.08185-.00736-.15062.04217-.23062.05021a.65431.65431,0,0,1-.629-.36927c-.09108-.13759-.17829-.27643-.366-.24984a.59339.59339,0,0,0-.524.35343.79179.79179,0,0,0-.05386.242.31045.31045,0,0,1-.33382.3338.11307.11307,0,0,1-.12-.07336.47034.47034,0,0,0-.06463-.09934.33637.33637,0,0,0-.5352-.05146.53935.53935,0,0,1-.44317.11755c-.11319-.015-.22691-.026-.34039-.03883.00011-.06367.00007-.12733.00038-.191a.34926.34926,0,0,1,.2565-.35831c.35814-.11655.71968-.223,1.07564-.34578a6.31359,6.31359,0,0,1,.84459-.23869c.09267-.01813.18775-.02395.28173-.0354a.27073.27073,0,0,0,.32254.10081A.35346.35346,0,0,0,9.79,8.361c-.00614-.04128-.01814-.08752.02617-.11938a2.25009,2.25009,0,0,0,1.11548.1162.60926.60926,0,0,0,.08326.24557l-.0569.1222a.41415.41415,0,0,0-.42677.37647.96892.96892,0,0,0,.01741.34077l-.09918.06933Z" fill="#008fa5"/>
  <path d="M9.81612,8.24165c-.04431.03186-.03231.07811-.02617.11938a.35346.35346,0,0,1-.207.34355.27073.27073,0,0,1-.32254-.10081c.02427-.10426.118-.16191.16756-.24946a.50263.50263,0,0,0,.09885-.25819Z" fill="#037f96"/>
  <path d="M7.574,14.06894l.18334.0727a2.93239,2.93239,0,0,0,.302.36286.273.273,0,0,0,.36457.03706c.05863-.03338.09168-.10061.16264-.11416a.73085.73085,0,0,1-.071.4463c-.17545.37307-.13017.46.26851.55734l.02308.0055a.59864.59864,0,0,1-.49533.10638c-.12959-.0151-.258-.04243-.386-.06892-.17-.03518-.21374-.11767-.15391-.282a.76474.76474,0,0,0-.00714-.51259A2.83925,2.83925,0,0,1,7.574,14.06894Z" fill="#037f96"/>
  <path d="M7.70765,7.96315l-.38092.16231a4.437,4.437,0,0,1-.41779-.857.44608.44608,0,0,0-.14954-.17951.4755.4755,0,0,1-.1943-.38814,4.3892,4.3892,0,0,1-.02533-.67567,5.02344,5.02344,0,0,1,.46457.47572,1.65641,1.65641,0,0,0,.2973.291.35483.35483,0,0,1,.13513.47224.32128.32128,0,0,0-.0124.117c.01291.15965.10857.21729.2549.1495.10052-.04657.1959-.10421.29355-.157a.20134.20134,0,0,1,.224-.00945.16791.16791,0,0,1,.08232.17354.17929.17929,0,0,1-.16408.1345A.51461.51461,0,0,0,7.70765,7.96315Z" fill="#007739"/>
  <path d="M6.39669,5.64349a1.793,1.793,0,0,1-.16843-1.07883,10.03825,10.03825,0,0,0,.0722-1.62051c-.00036-.07136.00072-.14272.00115-.21409a.36431.36431,0,0,1,.14511.21871,1.85061,1.85061,0,0,1,.09047.5697,2.04149,2.04149,0,0,0,.2068.9146,1.05067,1.05067,0,0,1,.10832.43317.47633.47633,0,0,1-.2693.4634c-.114.06189-.18885.1231-.16476.26187C6.421,5.60713,6.40434,5.62609,6.39669,5.64349Z" fill="#007739"/>
  <path d="M8.5866,14.4274c-.071.01355-.104.08078-.16264.11416a.273.273,0,0,1-.36457-.03706,2.93239,2.93239,0,0,1-.302-.36286,1.57222,1.57222,0,0,1,.4415-.04651.83375.83375,0,0,0,.41949-.09666A3.9562,3.9562,0,0,1,8.5866,14.4274Z" fill="#008fa5"/>
  <path d="M10.54859,9.44286a.96892.96892,0,0,1-.01741-.34077.41415.41415,0,0,1,.42677-.37647l-.01911.42651-.1582.33476C10.70036,9.48763,10.611,9.53637,10.54859,9.44286Z" fill="#019741"/>
  <path d="M6.82525,10.70393c.104-.13874.26616-.13643.413-.16416a1.704,1.704,0,0,0,.42726-.08606.17661.17661,0,0,1,.12706.00412,2.2954,2.2954,0,0,0,.93351.11236.47657.47657,0,0,1,.30838.06218.22312.22312,0,0,1,.01134.409c-.14891.08855-.28264.17077-.30594.35868-.001.008-.01814.01391-.02775.0208a3.00727,3.00727,0,0,0-.41295-.40744A1.75008,1.75008,0,0,0,7.42759,10.7,2.383,2.383,0,0,0,6.82525,10.70393Z" fill="#008fa5"/>
  <path d="M10.44047,9.53067l.00894-.01849A.02475.02475,0,0,1,10.44047,9.53067Z" fill="#037f96"/>
</svg>
