<?xml version="1.0" encoding="utf-8"?>
<!-- Generator: Adobe Illustrator 20.1.0, SVG Export Plug-In . SVG Version: 6.00 Build 0)  -->
<svg version="1.1" id="Слой_1" xmlns="http://www.w3.org/2000/svg" xmlns:xlink="http://www.w3.org/1999/xlink" x="0px" y="0px"
	 width="16px" height="16px" viewBox="0 0 16 16" style="enable-background:new 0 0 16 16;" xml:space="preserve">
<g id="XMLID_578_">
	<path id="XMLID_583_" d="M8,0C3.6,0,0,3.6,0,8s3.6,8,8,8s8-3.6,8-8S12.4,0,8,0z M8,14.9c-3.8,0-6.9-3.1-6.9-6.9S4.2,1.1,8,1.1
		s6.9,3.1,6.9,6.9S11.8,14.9,8,14.9z"/>
	<path id="XMLID_579_" d="M11.8,5.8c-0.2-0.1-0.4,0.2-0.4,0.3l0,0c-0.2,0.4-0.3,0.8-0.5,1.2l0,0c-0.1,0.2-0.2,0.4-0.3,0.6
		c-0.1,0.1-0.1,0.2-0.2,0.3l0,0c-0.1,0.1-0.2,0.2-0.4,0.1V8.2c0-0.2,0-0.4,0-0.7c0,0,0.2-1.2,0.2-1.8l0,0c0.1-0.5,0.1-1.2,0.1-1.7
		c0-0.2-0.1-0.4-0.3-0.4C9.9,3.7,9.7,3.8,9.7,4l0,0C9.6,4.7,9.5,5.4,9.4,6.1C9.3,6.5,9.2,7,9.1,7.4c0,0.1,0,0.1-0.1,0.1l0,0
		C8.9,7.5,8.9,7.2,8.9,7c0-1.1,0-2.2,0-3.4c0-0.1,0-0.3,0-0.4c0-0.2,0-0.3-0.2-0.4C8.5,2.7,8.4,2.8,8.3,3c0,0.2-0.1,0.4-0.1,0.5
		C8.1,4.2,8,4.8,8,5.5c0,0.6,0.1,1.2-0.1,1.8C7.6,7.4,7.6,7.2,7.6,7C7.4,5.9,6.9,4.9,6.8,3.8c0-0.1,0-0.2-0.1-0.3
		C6.6,3.3,6.4,3.2,6.2,3.3C6,3.4,6,3.7,6,3.8C6,4.9,6.2,6,6.5,7.1l0,0l0,0c0.1,0.4,0,0.9,0,1.3l0,0c0,0.2-0.1,0.3-0.1,0.5
		c-0.3,0.6-0.6,0.6-1,0.2C5.2,8.9,5,8.6,4.8,8.3c-0.3-0.4-0.5-0.7-1-0.9c-0.1-0.1-0.3-0.1-0.4,0C3.3,7.6,3.3,7.8,3.4,8l0,0
		c0.1,0.1,0.1,0.2,0.2,0.3l0,0c0.5,0.9,1.2,1.8,1.7,2.8l0,0l0,0c0.1,0.2,0.2,0.3,0.3,0.5l0,0c0,0.1,0,0.1,0,0.1
		c0.4,1,1.2,1.4,2.3,1.4c0.2,0,0.4,0.1,0.6,0.1c0.8,0.1,1.1-0.4,1.2-0.6l0,0c0.2-0.3,0.3-0.7,0.5-1.1l0,0c0.1-0.3,0.3-1,0.3-1
		c0.1-0.2,0.2-0.5,0.2-0.5c0-0.1,0.2-0.6,0.2-0.8C11,9,11,8.8,11.1,8.7c0.1-0.3,0.4-0.8,0.4-1l0,0c0.1-0.1,0.1-0.3,0.1-0.4l0,0l0,0
		c0-0.1,0.1-0.2,0.1-0.3c0-0.1,0-0.2,0.1-0.3l0,0l0,0c0-0.1,0.1-0.2,0.1-0.3C12,6.1,12.1,5.9,11.8,5.8z M9.2,9L9.2,9L9.2,9L9.2,9
		L9.2,9z M10.4,9.3L10.4,9.3L10.4,9.3L10.4,9.3L10.4,9.3z"/>
</g>
</svg>
