<?xml version="1.0" encoding="utf-8"?>
<!-- Generator: Adobe Illustrator 20.1.0, SVG Export Plug-In . SVG Version: 6.00 Build 0)  -->
<svg version="1.1" id="Слой_1" xmlns="http://www.w3.org/2000/svg" xmlns:xlink="http://www.w3.org/1999/xlink" x="0px" y="0px"
	 width="16px" height="16px" viewBox="0 0 16 16" style="enable-background:new 0 0 16 16;" xml:space="preserve">
<path id="XMLID_260_" d="M15.6,4.3c-0.6-1.5-1.8-2.4-3.4-2.5c-1.7-0.1-3.1,0.6-4,2.1c0,0.1-0.1,0.2-0.1,0.2C8,4.1,8,4,8,3.9
	C7.1,2.4,5.7,1.7,4,1.8c-1.8,0.1-3,1-3.6,2.5C-0.1,5.5,0,6.8,0.4,8c0.5,1.4,1.4,2.5,2.4,3.5c1.6,1.6,3.3,2.9,5.1,4.3
	C7.9,15.9,8,16,8,16s0.1,0,0.1-0.1c1.7-1.4,3.5-2.7,5.1-4.3c1-1,1.9-2.2,2.4-3.5S16.2,5.5,15.6,4.3z"/>
</svg>
