<?xml version="1.0" encoding="utf-8"?>
<!-- Generator: Adobe Illustrator 20.1.0, SVG Export Plug-In . SVG Version: 6.00 Build 0)  -->
<svg version="1.1" id="Слой_1" xmlns="http://www.w3.org/2000/svg" xmlns:xlink="http://www.w3.org/1999/xlink" x="0px" y="0px"
	 width="16px" height="16px" viewBox="0 0 16 16" style="enable-background:new 0 0 16 16;" xml:space="preserve">
<path id="XMLID_263_" d="M7.4,8l4.3-5.5c0.5-0.7,0.4-1.6-0.3-2.1S9.8,0,9.3,0.7l-5,6.5C4.1,7.3,4,7.5,4,7.8l0,0C4,7.9,4,7.9,4,8
	c0,0.1,0,0.1,0,0.2l0,0C4,8.5,4.1,8.7,4.3,9l5,6.5c0.5,0.7,1.5,0.8,2.1,0.3c0.7-0.5,0.8-1.5,0.3-2.1L7.4,8z"/>
</svg>
