<?xml version="1.0" encoding="utf-8"?>
<!-- Generator: Adobe Illustrator 20.1.0, SVG Export Plug-In . SVG Version: 6.00 Build 0)  -->
<svg version="1.1" id="Слой_1" xmlns="http://www.w3.org/2000/svg" xmlns:xlink="http://www.w3.org/1999/xlink" x="0px" y="0px"
	 width="16px" height="16px" viewBox="0 0 16 16" style="enable-background:new 0 0 16 16;" xml:space="preserve">
<path d="M13.3,3.5c1,1.2,1.6,2.8,1.6,4.5c0,3.8-3.1,6.9-6.9,6.9S1.1,11.8,1.1,8S4.2,1.1,8,1.1c1.7,0,3.3,0.6,4.5,1.6L13.3,2
	C11.8,0.7,10,0,8,0C3.6,0,0,3.6,0,8s3.6,8,8,8s8-3.6,8-8c0-2-0.7-3.8-2-5.2L13.3,3.5z"/>
</svg>
