<?xml version="1.0" encoding="utf-8"?>
<!-- Generator: Adobe Illustrator 20.1.0, SVG Export Plug-In . SVG Version: 6.00 Build 0)  -->
<svg version="1.1" id="Слой_1" xmlns="http://www.w3.org/2000/svg" xmlns:xlink="http://www.w3.org/1999/xlink" x="0px" y="0px"
	 width="16px" height="16px" viewBox="0 0 16 16" style="enable-background:new 0 0 16 16;" xml:space="preserve">
<path id="XMLID_493_" d="M12.5,0.9c1.8,0.5,2.9,1.6,3.3,3.4c0.3,1.6-0.1,3-1.2,4.1c-1.8,1.8-3.6,3.6-5.4,5.4C9.1,14,8.9,14.1,8.7,14
	c-0.3-0.1-0.5-0.5-0.3-0.8c0-0.1,0.1-0.1,0.1-0.1c1.8-1.8,3.5-3.5,5.3-5.3c0.5-0.5,0.9-1.2,1-2c0.2-1.4-0.5-2.9-1.7-3.6
	c-1.3-0.7-3-0.5-4.1,0.6C6.6,5.2,4.2,7.6,1.8,10c-0.7,0.7-0.9,1.5-0.6,2.5C1.4,13.4,2,14,2.9,14.2s1.7,0,2.3-0.7
	c1.7-1.6,3.3-3.3,5-4.9c0.8-0.7,1.5-1.5,2.3-2.2c0.8-0.8,0.5-2.2-0.7-2.5c-0.5-0.1-1,0-1.4,0.3c-0.1,0-0.1,0.1-0.2,0.2
	C8.6,6.1,6.8,7.8,5,9.6C4.9,9.8,4.7,9.9,4.4,9.8C4.1,9.7,4,9.3,4.2,9c0,0,0,0,0.1-0.1c1.8-1.8,3.6-3.6,5.4-5.4c1-1,2.5-1,3.5,0
	s1,2.6,0,3.6c-0.8,0.8-1.7,1.6-2.5,2.5c-1.6,1.5-3.1,3.1-4.7,4.7c-0.6,0.6-1.2,0.9-2,1c-1.8,0.3-3.5-0.9-3.9-2.6
	C0,12.1,0,11.6,0,11.2c0.1-0.8,0.4-1.4,1-2C3.5,6.9,5.9,4.4,8.4,2c0.6-0.5,1.2-0.9,2-1.1C11.3,0.6,12.1,0.8,12.5,0.9z"/>
</svg>
