<?xml version="1.0" encoding="utf-8"?>
<!-- Generator: Adobe Illustrator 20.1.0, SVG Export Plug-In . SVG Version: 6.00 Build 0)  -->
<svg version="1.1" id="Слой_1" xmlns="http://www.w3.org/2000/svg" xmlns:xlink="http://www.w3.org/1999/xlink" x="0px" y="0px"
	 width="16px" height="16px" viewBox="0 0 16 16" style="enable-background:new 0 0 16 16;" xml:space="preserve">
<g>
	<path d="M12,6c0-3.3-2.7-6-6-6S0,2.7,0,6s2.7,6,6,6S12,9.3,12,6z M6,10.6c-2.5,0-4.6-2.1-4.6-4.6S3.5,1.4,6,1.4s4.6,2.1,4.6,4.6
		S8.5,10.6,6,10.6z"/>
	<path d="M15.6,13.4l-3.7-3.6c-0.5,0.8-1.3,1.6-2.1,2.1l3.7,3.6c0.6,0.6,1.5,0.6,2.1,0l0,0C16.2,15,16.1,14,15.6,13.4z"/>
</g>
</svg>
