<?xml version="1.0" encoding="utf-8"?>
<!-- Generator: Adobe Illustrator 20.1.0, SVG Export Plug-In . SVG Version: 6.00 Build 0)  -->
<svg version="1.1" id="Слой_1" xmlns="http://www.w3.org/2000/svg" xmlns:xlink="http://www.w3.org/1999/xlink" x="0px" y="0px"
	 width="16px" height="16px" viewBox="0 0 16 16" style="enable-background:new 0 0 16 16;" xml:space="preserve">
<g>
	<path d="M15.5,13.2L13,10.7c-0.6,0.9-1.4,1.7-2.3,2.3l2.6,2.6c0.6,0.6,1.7,0.6,2.3,0C16.2,14.9,16.2,13.9,15.5,13.2z"/>
	<path d="M13.1,6.5c0-3.6-2.9-6.5-6.5-6.5C2.9,0,0,2.9,0,6.5S2.9,13,6.5,13C10.1,13.1,13.1,10.1,13.1,6.5z M6.5,11.6
		c-2.8,0-5-2.3-5-5c0-2.8,2.3-5,5-5c2.8,0,5,2.3,5,5C11.6,9.3,9.3,11.6,6.5,11.6z"/>
	<path d="M8.5,5.9H7.2V4.5c0-0.4-0.3-0.7-0.7-0.7S5.9,4.2,5.9,4.5v1.3H4.5c-0.4,0-0.7,0.3-0.7,0.7s0.3,0.7,0.7,0.7h1.3v1.3
		c0,0.4,0.3,0.7,0.7,0.7s0.7-0.3,0.7-0.7V7.2h1.3c0.4,0,0.7-0.3,0.7-0.7S8.9,5.9,8.5,5.9z"/>
</g>
</svg>
