<?xml version="1.0" encoding="utf-8"?>
<!-- Generator: Adobe Illustrator 20.1.0, SVG Export Plug-In . SVG Version: 6.00 Build 0)  -->
<svg version="1.1" id="Слой_1" xmlns="http://www.w3.org/2000/svg" xmlns:xlink="http://www.w3.org/1999/xlink" x="0px" y="0px"
	 width="16px" height="16px" viewBox="0 0 16 16" style="enable-background:new 0 0 16 16;" xml:space="preserve">
<g id="XMLID_462_">
	<path id="XMLID_468_" d="M7.8,8.8C7.9,8.9,8,8.9,8,8.8l7.1-6.3c0.1-0.1,0.1-0.4-0.1-0.4H1c-0.2,0-0.3,0.2-0.1,0.4L7.8,8.8z"/>
	<path id="XMLID_38_" d="M15.6,4.5L8,11.2c-0.1,0.1-0.3,0.1-0.4,0L0.4,4.5C0.3,4.4,0,4.5,0,4.7v8.8c0,0.1,0.1,0.3,0.3,0.3h15.5
		c0.1,0,0.3-0.1,0.3-0.3V4.7C16,4.5,15.7,4.4,15.6,4.5z"/>
</g>
</svg>
