<?xml version="1.0" encoding="utf-8"?>
<!-- Generator: Adobe Illustrator 20.1.0, SVG Export Plug-In . SVG Version: 6.00 Build 0)  -->
<svg version="1.1" id="Слой_1" xmlns="http://www.w3.org/2000/svg" xmlns:xlink="http://www.w3.org/1999/xlink" x="0px" y="0px"
	 width="16px" height="16px" viewBox="0 0 16 16" style="enable-background:new 0 0 16 16;" xml:space="preserve">
<path d="M8,0C3.6,0,0,3.6,0,8s3.6,8,8,8s8-3.6,8-8S12.4,0,8,0z M8.6,6.4c0.2-0.7,0.9-1.1,1.6-1.1c0.7,0,1.3,0.4,1.6,1.1
	c0,0.1,0,0.2,0,0.3c-0.1,0.1-0.2,0.1-0.3,0.1s-0.3-0.1-0.3-0.2c-0.1-0.4-0.5-0.7-1-0.7s-0.8,0.3-1,0.7c0,0.1-0.2,0.2-0.3,0.2
	S8.7,6.7,8.6,6.7C8.6,6.6,8.6,6.5,8.6,6.4z M4.2,6.4c0.2-0.7,0.9-1.1,1.6-1.1s1.3,0.4,1.6,1.1c0,0.1,0,0.2,0,0.3
	C7.3,6.8,7.2,6.8,7,6.8c-0.1,0-0.3-0.1-0.3-0.2c-0.1-0.4-0.5-0.7-1-0.7c-0.4,0-0.8,0.3-1,0.7c0,0.1-0.2,0.2-0.3,0.2
	c-0.1,0-0.2-0.1-0.3-0.1C4.2,6.6,4.2,6.5,4.2,6.4z M12,9.1C11.5,10.8,9.9,12,8,12s-3.5-1.2-4-2.9C3.9,8.8,4.1,8.5,4.4,8.5
	c0.2,0,0.4,0.1,0.4,0.3c0.5,1.3,1.7,2.3,3.2,2.3s2.7-0.9,3.2-2.3c0.1-0.2,0.2-0.3,0.4-0.3C11.9,8.5,12.1,8.8,12,9.1z"/>
</svg>
