<?xml version="1.0" encoding="utf-8"?>
<!-- Generator: Adobe Illustrator 20.1.0, SVG Export Plug-In . SVG Version: 6.00 Build 0)  -->
<svg version="1.1" id="Слой_1" xmlns="http://www.w3.org/2000/svg" xmlns:xlink="http://www.w3.org/1999/xlink" x="0px" y="0px"
	 width="16px" height="16px" viewBox="0 0 16 16" style="enable-background:new 0 0 16 16;" xml:space="preserve">
<g id="XMLID_229_">
	<g id="XMLID_235_">
		<path id="XMLID_240_" d="M3.1,10.5V5.6h0.5l0.9,2.3C4.7,8.4,5,9.1,5.1,9.6l0,0C5.1,8.8,5,8.2,5,7.4V5.6h0.5v4.9H5.1l-1-2.4
			c-0.2-0.5-0.4-1-0.6-1.7l0,0c0,0.6,0.1,1.3,0.1,2.3v1.7L3.1,10.5L3.1,10.5z"/>
		<path id="XMLID_238_" d="M8.2,8.2H7V10h1.4v0.5H6.5V5.6h1.9v0.5H7v1.6h1.2V8.2z"/>
		<path id="XMLID_236_" d="M9.7,10.5L8.8,5.6h0.6L9.8,8C9.9,8.6,10,9.1,10,9.7l0,0c0.1-0.6,0.2-1.1,0.3-1.8l0.4-2.3h0.5l0.4,2.3
			C11.8,8.5,11.9,9,12,9.7l0,0c0.1-0.7,0.2-1.2,0.3-1.8l0.4-2.3h0.5l-0.9,4.9h-0.5l-0.5-2.4C11.2,7.6,11.1,7,11,6.5l0,0
			c-0.1,0.5-0.2,1.1-0.3,1.6l-0.5,2.3L9.7,10.5L9.7,10.5z"/>
	</g>
	<g id="XMLID_230_">
		<path id="XMLID_234_" d="M1.8,7.3c0.3-2.9,2.6-5.2,5.5-5.5V0C3.4,0.3,0.3,3.4,0,7.3H1.8z"/>
		<path id="XMLID_233_" d="M8.7,1.8c2.9,0.3,5.2,2.6,5.5,5.5H16c-0.3-3.9-3.4-7-7.3-7.3V1.8z"/>
		<path id="XMLID_232_" d="M14.2,8.7c-0.3,2.9-2.6,5.2-5.5,5.5V16c3.9-0.3,7-3.4,7.3-7.3H14.2z"/>
		<path id="XMLID_231_" d="M7.3,14.2c-2.9-0.3-5.2-2.6-5.5-5.5H0c0.3,3.9,3.4,7,7.3,7.3V14.2z"/>
	</g>
</g>
</svg>
