<svg id="Слой_1" data-name="Слой 1" xmlns="http://www.w3.org/2000/svg" width="24.00009" height="24.00009" viewBox="0 0 24.00009 24.00009">
  <title>ok</title>
  <g>
    <path d="M12.09732,12.43794A6.219,6.219,0,1,0,5.88753,6.22385,6.21712,6.21712,0,0,0,12.09732,12.43794Zm-.03684-8.78413A2.56856,2.56856,0,1,1,9.53073,6.25023,2.56379,2.56379,0,0,1,12.06048,3.65381Z"/>
    <path d="M16.01717,19.089c-.5605-.56395-1.11224-1.13661-1.67469-1.7124.36834-.084.74865-.1762,1.12119-.297a9.74937,9.74937,0,0,0,2.83113-1.40188,1.68808,1.68808,0,1,0-2.01181-2.7112,5.72144,5.72144,0,0,1-1.2506.68056,7.92493,7.92493,0,0,1-4.20332.49818A7.20958,7.20958,0,0,1,7.648,12.91955a1.68874,1.68874,0,0,0-2.54523,1.94581A2.017,2.017,0,0,0,6.01829,15.9a10.93484,10.93484,0,0,0,3.63886,1.46627c.15566.03326.15979.06095.05412.17046Q8.70721,18.57725,7.711,19.62539c-.48409.50642-.97415,1.00732-1.45048,1.52094A1.68867,1.68867,0,1,0,8.736,23.4435q1.58014-1.67591,3.15011-3.36138c.10889-.117.16583-.10782.27-.00112.27391.28069.56029.54921.84128.823q1.32461,1.29075,2.64931,2.5814a1.68747,1.68747,0,0,0,2.43-2.342C17.402,20.44716,16.70071,19.77679,16.01717,19.089Z"/>
  </g>
</svg>
