<?xml version="1.0" encoding="utf-8"?>
<!-- Generator: Adobe Illustrator 20.1.0, SVG Export Plug-In . SVG Version: 6.00 Build 0)  -->
<svg version="1.1" id="Слой_1" xmlns="http://www.w3.org/2000/svg" xmlns:xlink="http://www.w3.org/1999/xlink" x="0px" y="0px"
	 width="16px" height="16px" viewBox="0 0 16 16" style="enable-background:new 0 0 16 16;" xml:space="preserve">
<g>
	<path d="M13.7,3.8h-1.4c0-1.1-1-2.1-2.1-2.1H5.8c-1.1,0-2.1,0.9-2.1,2.1H2.3C1,3.8,0,4.8,0,6v6c0,1.3,1,2.3,2.3,2.3h11.5
		c1.3,0,2.3-1,2.3-2.3V6C16,4.8,15,3.8,13.7,3.8z M8,12.3c-2,0-3.7-1.6-3.7-3.7S6,5,8,5s3.7,1.6,3.7,3.7S10,12.3,8,12.3z"/>
	<circle cx="8" cy="8.6" r="2.6"/>
</g>
</svg>
