<svg id="Слой_1" data-name="Слой 1" xmlns="http://www.w3.org/2000/svg" width="24.00009" height="24.00009" viewBox="0 0 24.00009 24.00009">
  <title>pin</title>
  <path d="M6.78808,23.78117H6.76923a15.22541,15.22541,0,0,1-.14706-1.60328,16.98172,16.98172,0,0,1,.04929-2.17454q.06982-.78863.19873-1.56937c.14319-.86143.33172-1.71345.55061-2.55851.24715-.95414.50251-1.90614.75219-2.85963q.21233-.81086.383-1.63168a.19794.19794,0,0,0-.01366-.15262,3.44553,3.44553,0,0,1-.39738-1.15136,5.04861,5.04861,0,0,1,.00349-1.7343,4.80548,4.80548,0,0,1,.61475-1.68944,2.89765,2.89765,0,0,1,.82743-.9036,1.95483,1.95483,0,0,1,1.07484-.35726,2.32081,2.32081,0,0,1,1.09061.2512,1.5024,1.5024,0,0,1,.83869,1.031,2.8565,2.8565,0,0,1,.04793,1.00162,7.73981,7.73981,0,0,1-.23335,1.17173c-.15414.5765-.34441,1.14195-.52182,1.71133a13.8746,13.8746,0,0,0-.45414,1.72928,3.72481,3.72481,0,0,0-.04585,1.13449,1.5356,1.5356,0,0,0,.88756,1.25835,3.14888,3.14888,0,0,0,2.21417.14724,3.34221,3.34221,0,0,0,1.22726-.7166A5.245,5.245,0,0,0,16.85284,12.624,9.37332,9.37332,0,0,0,17.8882,8.64586a8.842,8.842,0,0,0-.07027-1.62633,6.59046,6.59046,0,0,0-.41709-1.61887,3.98284,3.98284,0,0,0-.79136-1.27287,5.58819,5.58819,0,0,0-3.57333-1.73613,6.29177,6.29177,0,0,0-1.88436.099A7.34352,7.34352,0,0,0,7.9444,3.99937,6.69046,6.69046,0,0,0,6.02633,6.43511a5.82727,5.82727,0,0,0-.542,2.28467,6.70487,6.70487,0,0,0,.04348.97809,2.83979,2.83979,0,0,0,.27352.96428c.09238.18228.196.358.30181.53262a4.80994,4.80994,0,0,1,.33494.62135,1.77979,1.77979,0,0,1,.127.97712,3.11288,3.11288,0,0,1-.3741,1.0105.06315.06315,0,0,1-.08445.03336,5.5773,5.5773,0,0,1-.58715-.17172,3.63428,3.63428,0,0,1-2.22382-2.10121,6.219,6.219,0,0,1-.4287-1.99825,3.554,3.554,0,0,0-.03719-.37451v-.622a.55869.55869,0,0,0,.01744-.13955c.01259-.16585.022-.332.03719-.49758a7.52322,7.52322,0,0,1,.37137-1.73548A8.07535,8.07535,0,0,1,5.31446,2.95127,9.3362,9.3362,0,0,1,11.16816.27141c.08755-.00749.17538-.01187.26281-.02043.01933-.00189.05313.00856.05071-.03206h1.508c.00985.04983.052.03172.07966.03356.33861.02253.67512.06233,1.01045.11406A10.22894,10.22894,0,0,1,16.07358.88a8.41892,8.41892,0,0,1,2.56874,1.47438,6.95392,6.95392,0,0,1,2.45492,4.65768c.01529.13093.02459.26256.03986.3935.00288.02463-.01737.0663.03337.07049V9.248c-.04774.0051-.03172.04458-.03369.06952-.02124.26935-.05413.53721-.09431.80437a10.80108,10.80108,0,0,1-.72264,2.59738,8.73541,8.73541,0,0,1-1.41418,2.32516,6.67764,6.67764,0,0,1-2.024,1.622,5.996,5.996,0,0,1-2.07159.62569,6.59224,6.59224,0,0,1-1.38259.0086,3.65533,3.65533,0,0,1-1.21179-.329,5.91267,5.91267,0,0,1-.79485-.468c-.30975-.20916-.61232-.429-.9291-.62771-.02393-.015-.04789-.03011-.07271-.04355-.02553-.01382-.04154-.00467-.04728.02349l-.01534.07377c-.071.354-.13935.7085-.21341,1.06183a24.751,24.751,0,0,1-.66,2.56151,11.53833,11.53833,0,0,1-.93707,2.18669,6.44426,6.44426,0,0,1-1.70482,1.9898C6.82151,23.74429,6.79759,23.75564,6.78808,23.78117Z"/>
</svg>
