<?xml version="1.0" encoding="utf-8"?>
<!-- Generator: Adobe Illustrator 20.1.0, SVG Export Plug-In . SVG Version: 6.00 Build 0)  -->
<svg version="1.1" id="Слой_1" xmlns="http://www.w3.org/2000/svg" xmlns:xlink="http://www.w3.org/1999/xlink" x="0px" y="0px"
	 width="16px" height="16px" viewBox="0 0 16 16" style="enable-background:new 0 0 16 16;" xml:space="preserve">
<path id="XMLID_263_" d="M8.6,8L4.3,2.5C3.8,1.8,3.9,0.8,4.6,0.3s1.6-0.4,2.1,0.3l5,6.5C11.9,7.3,12,7.5,12,7.8l0,0
	c0,0.1,0,0.1,0,0.2c0,0.1,0,0.1,0,0.2l0,0c0,0.3-0.1,0.5-0.3,0.8l-5,6.5c-0.5,0.7-1.5,0.8-2.1,0.3c-0.7-0.5-0.8-1.5-0.3-2.1L8.6,8z"
	/>
</svg>
