<?xml version="1.0" encoding="utf-8"?>
<!-- Generator: Adobe Illustrator 20.1.0, SVG Export Plug-In . SVG Version: 6.00 Build 0)  -->
<svg version="1.1" id="Слой_1" xmlns="http://www.w3.org/2000/svg" xmlns:xlink="http://www.w3.org/1999/xlink" x="0px" y="0px"
	 width="16px" height="16px" viewBox="0 0 16 16" style="enable-background:new 0 0 16 16;" xml:space="preserve">
<g id="XMLID_18_">
	<g>
		<path d="M3.6,8c0-2.2,1.6-4,3.8-4.3V5l3.9-2.5L7.4,0v1.4C4,1.7,1.4,4.5,1.4,8c0,1.8,0.7,3.5,1.9,4.7L5,11.2
			C4.1,10.3,3.6,9.2,3.6,8z"/>
		<path d="M12.7,3.4L11,4.9c0.8,0.8,1.3,1.9,1.3,3.1c0,2.2-1.6,4-3.8,4.3V11l-3.9,2.5l4,2.5v-1.4c3.4-0.3,6.1-3.1,6.1-6.6
			C14.6,6.2,13.9,4.6,12.7,3.4z"/>
	</g>
</g>
</svg>
