<?xml version="1.0" encoding="utf-8"?>
<!-- Generator: Adobe Illustrator 20.1.0, SVG Export Plug-In . SVG Version: 6.00 Build 0)  -->
<svg version="1.1" id="Слой_1" xmlns="http://www.w3.org/2000/svg" xmlns:xlink="http://www.w3.org/1999/xlink" x="0px" y="0px"
	 width="16px" height="16px" viewBox="0 0 16 16" style="enable-background:new 0 0 16 16;" xml:space="preserve">
<path d="M12.9,10.8c-0.8,0-1.6,0.4-2.1,1L5.5,8.9C5.7,8.6,5.7,8.3,5.7,8c0-0.3-0.1-0.5-0.1-0.8l5.3-2.9c0.5,0.6,1.2,0.9,2,0.9
	c1.4,0,2.6-1.2,2.6-2.6S14.3,0,12.9,0s-2.6,1.2-2.6,2.6c0,0.3,0.1,0.6,0.2,0.9L5.1,6.4c-0.5-0.6-1.2-1-2-1C1.7,5.4,0.5,6.6,0.5,8
	s1.2,2.6,2.6,2.6c0.8,0,1.5-0.3,1.9-0.9l5.3,2.9c-0.1,0.2-0.1,0.5-0.1,0.7c0,1.4,1.2,2.6,2.6,2.6s2.6-1.2,2.6-2.6
	C15.5,11.9,14.3,10.8,12.9,10.8z"/>
</svg>
