<?xml version="1.0" encoding="utf-8"?>
<!-- Generator: Adobe Illustrator 20.1.0, SVG Export Plug-In . SVG Version: 6.00 Build 0)  -->
<svg version="1.1" id="Слой_1" xmlns="http://www.w3.org/2000/svg" xmlns:xlink="http://www.w3.org/1999/xlink" x="0px" y="0px"
	 width="16px" height="16px" viewBox="0 0 16 16" style="enable-background:new 0 0 16 16;" xml:space="preserve">
<path id="XMLID_164_" d="M15.4,8.2c-0.1,0.6,0,1.2,0.2,1.9c0.7,1.7,0.4,3.3-0.9,4.6c-1.3,1.4-2.9,1.6-4.7,1c-0.5-0.2-1-0.3-1.5-0.2
	c-4.5,0.3-8.1-3.1-8-7.6c0-0.7-0.1-1.4-0.3-2.1C-0.3,4,0,2.5,1.4,1.2C2.7-0.1,4.3-0.3,6,0.3c0.5,0.2,0.9,0.2,1.4,0.2
	c3.9-0.3,7.4,2.4,8,6.4C15.4,7.3,15.4,7.8,15.4,8.2z M8.2,13.3c1.1,0,2.1-0.2,3-0.9c1.7-1.4,1.3-3.9-0.6-4.8C10,7.3,9.3,7.1,8.6,7
	C8,6.7,7.4,6.6,6.8,6.3C6.2,6,6.1,5.3,6.7,4.9C7,4.7,7.3,4.6,7.6,4.6c0.8-0.1,1.4,0.2,2,0.7c0.3,0.2,0.5,0.4,0.8,0.6
	c0.4,0.3,1,0.2,1.3-0.1c0.3-0.3,0.4-0.9,0.1-1.3c-0.2-0.5-0.5-0.8-0.8-1C10.5,3.2,9.9,3,9.3,2.8C7.9,2.5,6.6,2.5,5.4,3.3
	C4.4,3.9,3.9,4.8,4,6c0,1,0.6,1.7,1.5,2.2c0.4,0.2,0.8,0.3,1.2,0.4C7.5,8.8,8.4,9,9.2,9.3c0.4,0.2,0.7,0.3,0.8,0.8
	c0,0.5-0.3,0.9-0.7,1.1c-0.9,0.5-2,0.3-2.8-0.4c-0.3-0.3-0.6-0.6-0.9-0.9c-0.3-0.3-0.7-0.3-1-0.2C4.2,9.9,4,10.3,4,10.7
	c0,0.7,0.4,1.2,0.9,1.6C5.9,13,7,13.2,8.2,13.3z"/>
</svg>
