<?xml version="1.0" encoding="utf-8"?>
<!-- Generator: Adobe Illustrator 20.1.0, SVG Export Plug-In . SVG Version: 6.00 Build 0)  -->
<svg version="1.1" id="Слой_1" xmlns="http://www.w3.org/2000/svg" xmlns:xlink="http://www.w3.org/1999/xlink" x="0px" y="0px"
	 width="16px" height="16px" viewBox="0 0 16 16" style="enable-background:new 0 0 16 16;" xml:space="preserve">
<g id="XMLID_480_">
	<path id="XMLID_490_" d="M8,0C3.6,0,0,3.6,0,8s3.6,8,8,8s8-3.6,8-8S12.4,0,8,0z M8,14.7c-3.7,0-6.7-3-6.7-6.7s3-6.7,6.7-6.7
		s6.7,3,6.7,6.7S11.7,14.7,8,14.7z"/>
	<circle id="XMLID_489_" cx="5.7" cy="6.2" r="1.1"/>
	<circle id="XMLID_484_" cx="10.3" cy="6.2" r="1.1"/>
	<path id="XMLID_483_" d="M10.4,9.7c-1.5,0.8-3.3,0.9-4.7,0C5.3,9.5,4.9,9.6,4.8,10c-0.2,0.3-0.1,0.7,0.2,0.9c0.9,0.5,1.9,0.8,3,0.8
		s2.1-0.3,3-0.8c0.3-0.2,0.4-0.6,0.2-0.9C11.1,9.6,10.7,9.5,10.4,9.7z"/>
</g>
</svg>
