<?xml version="1.0" encoding="utf-8"?>
<!-- Generator: Adobe Illustrator 20.1.0, SVG Export Plug-In . SVG Version: 6.00 Build 0)  -->
<svg version="1.1" id="Слой_1" xmlns="http://www.w3.org/2000/svg" xmlns:xlink="http://www.w3.org/1999/xlink" x="0px" y="0px"
	 width="16px" height="16px" viewBox="0 0 16 16" enable-background="new 0 0 16 16" xml:space="preserve">
<path d="M8.6,0.7l1.9,3.9C10.7,4.9,10.9,5,11.1,5l4.3,0.6c0.6,0.1,0.8,0.8,0.4,1.2l-3.1,3c-0.2,0.2-0.2,0.4-0.2,0.6l0.7,4.3
	c0.1,0.6-0.5,1-1,0.7l-3.9-2c-0.2-0.1-0.4-0.1-0.7,0l-3.9,2c-0.5,0.3-1.1-0.2-1-0.7l0.7-4.3c0-0.2,0-0.5-0.2-0.6l-3.1-3
	C-0.2,6.5,0,5.7,0.6,5.7L4.9,5c0.2,0,0.4-0.2,0.5-0.4l1.9-3.9C7.6,0.2,8.4,0.2,8.6,0.7z"/>
</svg>
