<svg id="Слой_1" data-name="Слой 1" xmlns="http://www.w3.org/2000/svg" width="16" height="16" viewBox="0 0 16 16">
  <title>статистика 16-01</title>
  <path d="M15.48422,4.12332a.82884.82884,0,0,0-.05878-.142.7292.7292,0,0,0-.14761-.25291.88828.88828,0,0,0-.46155-.29126l-.03067-.00622a.83194.83194,0,0,0-.17987-.03658H11.98612a.879.879,0,0,0,0,1.758h.5624L9.72981,8.57026,6.89032,5.73076a1.08143,1.08143,0,0,0-1.50873,0L.308,10.80437a1.05593,1.05593,0,0,0,1.49331,1.49331L6.136,7.963l2.92168,2.92174c.01226.01226.02884.016.04152.0275.01347.01238.01933.02969.0336.04146a.99514.99514,0,0,0,.14834.079,1.03813,1.03813,0,0,0,.1734.09231,1.01874,1.01874,0,0,0,.2123.04109.69883.69883,0,0,0,.3943-.023,1.01127,1.01127,0,0,0,.18-.05311,1.03549,1.03549,0,0,0,.18474-.12237.98434.98434,0,0,0,.12505-.0828c.01171-.01171.01536-.02768.0264-.03981.0125-.01366.03-.01951.04189-.034l3.53951-4.29183.09932.51106a.879.879,0,0,0,1.72579-.33528Z"/>
</svg>
