<?xml version="1.0" encoding="utf-8"?>
<!-- Generator: Adobe Illustrator 20.1.0, SVG Export Plug-In . SVG Version: 6.00 Build 0)  -->
<svg version="1.1" id="Слой_1" xmlns="http://www.w3.org/2000/svg" xmlns:xlink="http://www.w3.org/1999/xlink" x="0px" y="0px"
	 width="16px" height="16px" viewBox="0 0 16 16" style="enable-background:new 0 0 16 16;" xml:space="preserve">
<g id="XMLID_1_">
	<path id="XMLID_3_" d="M0.1,11.5c0.7,2.6,3.1,4.5,6,4.5s5.3-1.9,6-4.5c-1.4-1.1-3.6-1.8-6-1.8S1.5,10.5,0.1,11.5z"/>
	<circle id="XMLID_4_" cx="6.1" cy="5.6" r="3.4"/>
	<path id="XMLID_5_" d="M11.1,5.6c0,0.4,0,0.7-0.1,1.1c1.3-0.5,2.3-1.7,2.3-3.2c0-1.9-1.5-3.4-3.4-3.4C9.1,0,8.3,0.3,7.7,0.8
		C9.7,1.5,11.1,3.4,11.1,5.6z"/>
	<path id="XMLID_27_" d="M10.7,7.6C10.5,8,10.3,8.4,10,8.7c1.2,0.4,2.2,0.8,3.1,1.5l0.9,0.7L13.7,12c-0.1,0.3-0.2,0.6-0.3,0.8
		c1.2-0.8,2.1-2,2.5-3.4C14.6,8.4,12.8,7.8,10.7,7.6z"/>
</g>
</svg>
