<svg id="Слой_1" data-name="Слой 1" xmlns="http://www.w3.org/2000/svg" width="24.00009" height="24.00009" viewBox="0 0 24.00009 24.00009">
  <title>B</title>
  <path d="M16.53014,10.79167c.27.10408.50749.19725.74616.28729a7.84727,7.84727,0,0,1,1.39459.62636,4.624,4.624,0,0,1,2.35622,2.81646,6.38558,6.38558,0,0,1,.23454,1.59386,7.35564,7.35564,0,0,1-.25262,2.58951,6.054,6.054,0,0,1-2.30188,3.12458,9.24839,9.24839,0,0,1-3.64083,1.5429,12.37614,12.37614,0,0,1-2.52377.2326q-4.81932-.00535-9.63865-.00144l-.02026-.00231a.20352.20352,0,0,1-.16077-.20154L2.76625.62712A.2285.2285,0,0,1,2.992.39909c.11269-.00145.22916-.0026.25262-.0026C6.75267.39643,9.9212.39112,13.42921.3999a7.89217,7.89217,0,0,1,3.64277.82118,4.64524,4.64524,0,0,1,2.36478,2.58527,4.767,4.767,0,0,1,.2809,1.51844,7.7817,7.7817,0,0,1-.202,2.09959A4.25359,4.25359,0,0,1,17.98177,9.79c-.4086.32183-.85219.59925-1.28045.89605C16.657,10.71679,16.60946,10.74295,16.53014,10.79167ZM8.50248,13.54238V19.3256l.08344-.00054c1.06486-.0029,2.13011.00954,3.19443-.01606a5.29157,5.29157,0,0,0,1.71872-.32547,2.37863,2.37863,0,0,0,1.57978-1.63965A3.79622,3.79622,0,0,0,15.18539,15.97a2.28956,2.28956,0,0,0-1.50662-2.07635,5.13752,5.13752,0,0,0-1.7909-.34642c-.829-.02133-1.659-.005-2.48857-.00487C9.10462,13.54242,8.80993,13.54238,8.50248,13.54238ZM8.50086,4.63465V9.49927c.04032.00374.07331.00945.10629.00947.70989.00047,1.42066.02172,2.12935-.00745A7.47025,7.47025,0,0,0,12.092,9.3221a1.94223,1.94223,0,0,0,1.57232-1.5394,3.61852,3.61852,0,0,0,.05479-1.35057A1.81142,1.81142,0,0,0,12.527,4.92144a3.70119,3.70119,0,0,0-1.23588-.25808c-.65764-.02385-1.31625-.02147-1.97447-.02825C9.048,4.63234,8.77917,4.63465,8.50086,4.63465Z"/>
</svg>
