<?xml version="1.0" encoding="utf-8"?>
<!-- Generator: Adobe Illustrator 20.1.0, SVG Export Plug-In . SVG Version: 6.00 Build 0)  -->
<svg version="1.1" id="Layer_1" xmlns="http://www.w3.org/2000/svg" xmlns:xlink="http://www.w3.org/1999/xlink" x="0px" y="0px"
	 width="55px" height="23px" viewBox="0 0 55 23" style="enable-background:new 0 0 55 23;" xml:space="preserve">
<g id="XMLID_7_">
	<path id="lozenge_2_" style="fill:#D92632;" d="M54.7,5c0,0-0.3-2.3-1.3-3.2c-1.2-1.3-2.6-1.3-3.3-1.4C45.5,0,38.6,0,38.6,0l0,0
		c0,0-6.9,0-11.5,0.3c-0.6,0.1-2,0.1-3.3,1.4c-1,1-1.3,3.2-1.3,3.2s-0.3,2.6-0.3,5.3v2.5c0,2.6,0.3,5.3,0.3,5.3s0.3,2.3,1.3,3.2
		c1.2,1.3,2.9,1.3,3.6,1.4c2.6,0.3,11.1,0.3,11.1,0.3s6.9,0,11.5-0.3c0.6-0.1,2-0.1,3.3-1.4c1-1,1.3-3.2,1.3-3.2s0.3-2.6,0.3-5.3
		v-2.5C55,7.6,54.7,5,54.7,5z"/>
	<path id="u_3_" style="fill:#010101;" d="M20.5,18.6h-2.1v-1.2c-0.8,0.9-1.5,1.4-2.2,1.4c-0.6,0-1.1-0.3-1.3-0.9
		c-0.1-0.3-0.2-0.9-0.2-1.6V7.5h2.1v8.3c0,0.5,0,0.7,0,0.8c0,0.3,0.2,0.4,0.4,0.4c0.4,0,0.8-0.3,1.2-1V7.5h2.1V18.6z"/>
	<path id="o_2_" style="fill:#010101;" d="M13,11.1c0-1.2-0.1-1.9-0.5-2.6c-0.6-0.8-1.4-1.1-2.3-1.1c-1,0-1.8,0.3-2.3,1.1
		C7.5,9.1,7.2,10,7.2,11.1v4c0,1.2,0.2,2,0.6,2.6c0.6,0.8,1.5,1.2,2.3,1.2c0.9,0,1.8-0.4,2.3-1.2c0.4-0.6,0.6-1.4,0.6-2.6V11.1
		L13,11.1z M11.1,15.3c0.1,1.1-0.2,1.6-0.9,1.6c-0.6,0-1-0.5-0.9-1.6v-4.4c0-1.1,0.2-1.6,0.9-1.6c0.6,0,0.9,0.5,0.9,1.6V15.3z"/>
	<path id="y_2_" style="fill:#010101;" d="M4.9,12.6v6.1H2.7v-6.1c0,0-2.3-7.4-2.7-8.8h2.3l1.5,5.8l1.5-5.8h2.3L4.9,12.6z"/>
	<path id="e_2_" style="fill:#FFFFFF;" d="M52.3,13.4v-2.2c0-1.2-0.2-2-0.6-2.6c-0.6-0.8-1.3-1.2-2.3-1.2S47.6,7.8,47,8.6
		c-0.4,0.6-0.7,1.5-0.7,2.6v3.9c0,1.2,0.3,2,0.7,2.5c0.6,0.8,1.4,1.1,2.4,1.1s1.9-0.4,2.4-1.2c0.3-0.5,0.4-0.8,0.5-1.2
		c0.1-0.3,0.1-0.7,0.1-1.3v-0.3h-2.1c0,0.8,0,1.3,0,1.4c-0.1,0.5-0.4,0.8-0.9,0.8c-0.7,0-1-0.5-1-1.5v-2
		C48.4,13.4,52.3,13.4,52.3,13.4z M48.3,10.6c0-1,0.3-1.3,0.9-1.3c0.7,0,0.9,0.3,0.9,1.3v1.2h-1.8L48.3,10.6L48.3,10.6z"/>
	<path id="b_2_" style="fill:#FFFFFF;" d="M43,7.4c-0.7,0-1.5,0.5-2.1,1.2V3.8h-2v14.7h2v-1.1c0.7,0.8,1.4,1.2,2.1,1.2
		c0.8,0,1.4-0.4,1.6-1.2c0.1-0.5,0.2-1.2,0.2-2.2v-4.4c0-1-0.1-1.8-0.3-2.2C44.4,7.9,43.8,7.4,43,7.4z M42.8,15.4
		c0,1.1-0.3,1.5-0.8,1.5c-0.3,0-0.7-0.2-1-0.5V9.7c0.3-0.3,0.7-0.5,1-0.5c0.6,0,0.8,0.3,0.8,1.4V15.4z"/>
	<path id="u_2_" style="fill:#FFFFFF;" d="M37.3,18.6h-2.1v-1.2c-0.8,0.9-1.5,1.4-2.2,1.4c-0.6,0-1.1-0.3-1.3-0.9
		c-0.1-0.3-0.2-0.9-0.2-1.6V7.6h2.1v8.1c0,0.5,0,0.7,0,0.8c0,0.3,0.2,0.4,0.4,0.4c0.4,0,0.8-0.3,1.2-1V7.6h2.1V18.6z"/>
	<polygon id="T_2_" style="fill:#FFFFFF;" points="29.4,18.6 27.2,18.6 27.2,6 24.9,6 24.9,3.9 31.8,3.9 31.8,6 29.4,6 	"/>
</g>
</svg>
