<svg id="Слой_1" data-name="Слой 1" xmlns="http://www.w3.org/2000/svg" viewBox="0 0 980 253"><title>лого белое</title><path id="_Составной_контур_" data-name="&lt;Составной контур&gt;" d="M108.731,0C48.68087,0,0,48.01274,0,107.24205c0,59.22826,48.68087,107.24205,108.731,107.24205s108.731-48.01379,108.731-107.24205C217.462,48.01274,168.78112,0,108.731,0Z" fill="#fff"/><g id="_Группа_" data-name="&lt;Группа&gt;"><path id="_Контур_" data-name="&lt;Контур&gt;" d="M55.57621,95.72225c5.279,2.174,8.66641,6.468,11.78847,10.9149,2.622,3.73458,4.986,7.638,8.208,10.92139,5.5467,5.65231,9.27036,4.94116,12.742-2.29625.94318-1.96631,1.12533-4.03906,1.65-6.06485a2.13327,2.13327,0,0,1,1.58006-.27813A3.55477,3.55477,0,0,1,93.8485,111.156c.6572,2.147.43048,4.36268.50562,6.55591.00063,1.33868-.01121,2.67843-.04281,4.01653a12.54021,12.54021,0,0,1-.44566,3.06354c-.3075,1.13-1.38008,2.39169-.71906,3.38479,2.10815,3.16731-.19981,4.9929-1.78748,7.10164-1.56137,1.70246-3.06141,4.17955-5.62664,3.995-1.93728-1.53661-3.79724-2.70526-6.09706-1.10624-1.7158,1.193-3.21423,3.24417-5.75745,2.98626-6.13271-12.25156-14.357-23.23389-21.22508-35.03924C56.2417,103.387,54.44784,99.14286,55.57621,95.72225Z" fill="#009941"/><path id="_Контур_2" data-name="&lt;Контур&gt;" d="M106.82706,94.34772c1.945-7.42212.41315-15.00045.99518-22.49606.71981-9.26995,1.19167-15.84143,2.97061-24.96561a26.46716,26.46716,0,0,1,1.47161-5.36481c3.73441,1.20991,4.47048,5.46437,7.17119,7.59466-.04033,13.94371-.10514,27.88745-.09431,41.83112.0016,2.06838-.17066,5.48454,2.16265,5.57125,2.81274,1.76919,4.51043,4.61313,6.65346,7.01671,1.16137,1.30257,1.41736,2.80028-.70931,3.651a14.724,14.724,0,0,1-8.85808-.70247,14.19984,14.19984,0,0,1-2.81253-1.44871c-1.839-1.4447-4.29344-1.51267-6.22734-2.75665C107.76444,99.93754,106.28567,97.48906,106.82706,94.34772Z" fill="#e94c2e"/><path id="_Контур_3" data-name="&lt;Контур&gt;" d="M135.36269,145.66786c-1.46841,4.84706-4.45,12.10765-7.85232,16.04975-3.69712-.86957-5.72007-.63137-9.43954-1.8436a2.22459,2.22459,0,0,1-1.34161-2.45609c.07712-3.505,3.32038-3.53778,5.36255-4.884.89083-.58724,1.89664-1.24773,1.42241-2.43079-.57477-1.43386-2.03779-1.4415-3.11637-.89352-3.4481,1.75183-5.29042,4.38765-3.89055,8.45268-.6491,1.59265-2.10171,2.22834-3.495,2.87749-3.90356,1.81877-4.71553,1.25124-5.10066-3.45363.6574-3.46023,1.22474-6.9159-.5373-10.2549-1.4583-5.18934-.27332-10.1442,1.32488-15.06395,3.51933-2.64606,5.91958-6.81927,10.62017-7.8841a14.96306,14.96306,0,0,0,8.30312,2.92968c2.35967.21881,4.6692.56545,4.63585,3.76515-.90053,1.06449-2.32392.3326-3.88606,1.26475,4.46965,1.67177,5.13775,4.19092,2.58064,8.00237-1.90225,2.83539-1.46018,4.71508,2.72153,3.42628C135.92359,142.57826,135.887,144.09071,135.36269,145.66786Z" fill="#eeb900"/><path id="_Контур_4" data-name="&lt;Контур&gt;" d="M85.73246,138.47138c1.82908-.84723,2.69054-3.12605,4.943-3.34687,1.91394.11473,2.68835,1.63914,3.21119,3.04176,1.8935,5.07972,4.9152,9.53718,7.53828,14.21309.55135,1.79641,1.47987,3.46553,1.88691,5.31532,1.25476,5.7023,1.25089,5.70316,6.93409,4.6901a14.38765,14.38765,0,0,1,3.1546-.38757c4.54322,1.67762,9.563-.89782,14.10985.56567-3.02251,6.45075-6.6284,5.65792-13.30568,4.68849-2.36209-.34294-4.52162-1.90553-7.02-1.715-13.56541,1.03454-23.51935-4.79472-29.10133-16.9872-.2912-.636-1.04684-2.729-1.40013-3.3366-.628-2.29669.93172-2.86959,2.88118-4.31211,1.49846-.93393,3.17171-1.53747,4.69765-2.43085A2.4573,2.4573,0,0,1,85.73246,138.47138Z" fill="#e5362f"/><path id="_Контур_5" data-name="&lt;Контур&gt;" d="M106.82706,94.34772l3.53558,7.55511c-2.98033,1.42987-5.23688,6.57713-9.42054,1.84343a2.707,2.707,0,0,1,.333-2.013c.59645-.92953.5989-.99635-.241-1.06329-1.11606-.08894-2.66441-.51572-2.56306-1.40691.69466-6.10832-6.2109-6.953-7.70463-11.46344A6.3173,6.3173,0,0,1,89.6983,84.997c-.11394-1.0589-.3048-2.39068.38926-3.0574,3.67311-3.52842,2.1283-7.52222.73048-11.11724-1.30215-3.349-.05769-7.09584-2.14128-10.18135-1.31232-5.23045-5.32195-10.114-3.6529-15.8625,2.56741-2.02992,5.07628-.71719,6.21363,1.61478a13.23459,13.23459,0,0,1,1.15181,4.04893c1.77035,13.67962,7.86493,26.25173,10.14228,39.80336C102.9125,92.51236,103.55251,95.34161,106.82706,94.34772Z" fill="#009441"/><path id="_Контур_6" data-name="&lt;Контур&gt;" d="M85.78413,44.282c1.32245,5.32929,2.7531,11.09724,4.07555,16.42654a75.1847,75.1847,0,0,1,.73164,19.21685c-.1928,1.70877-.79832,3.4484.27511,5.09208l.86893,2.34816a49.418,49.418,0,0,1,2.263,7.78893c-.34862,3.86522,1.87021,7.00538,2.976,10.46354-.32631,2.3924-1.48008,4.04515-4.00431,4.46359l-2.08907-.89831c-1.16127-3.90366-.19038-7.90994-.58333-11.84314-.15868-1.5883.94466-3.45908-.88023-4.74541-3.1208-13.688-5.5357-27.48183-6.11252-41.54275C83.20368,48.58531,83.02923,45.61586,85.78413,44.282Z" fill="#005a2f"/><path id="_Контур_7" data-name="&lt;Контур&gt;" d="M136.34839,71.47294c.178,8.621-1.43048,17.03218-2.98471,25.4497-1.30646-.569-2.36739-.772-3.69671.40162-5.0075,4.42114-5.44448,4.24718-7.38734-2.00757a160.695,160.695,0,0,1,3.1542-16.13551c4.24211-.4486,5.166-3.76634,6.73947-6.68393.97376-1.80559,1.18792-3.98737,2.40909-5.69147.58539-.81689,1.4336-1.72526,2.20645-.05123C136.66109,68.33258,137.16518,69.96462,136.34839,71.47294Z" fill="#e9438c"/><path id="_Контур_8" data-name="&lt;Контур&gt;" d="M132.06118,130.57031c-1.68568-4.1996-5.75642-1.93656-8.60414-2.9753-2.129-.77656-3.94525-1.06552-4.2725-3.62461-.83192-1.93869.73449-2.68652,1.81046-3.68386,2.23142-.90669,3.31146-3.78319,6.16508-3.64494,4.07638,2.68854,7.50906,6.41846,12.66857,7.36334,1.51231.27695,2.8536,1.48261,1.837,3.50462a23.23251,23.23251,0,0,1-2.1359,5.1837C136.00685,135.6275,133.85983,133.71277,132.06118,130.57031Z" fill="#f7b600"/><path id="_Контур_9" data-name="&lt;Контур&gt;" d="M136.21179,66.01734c-2.48032,4.493-2.9287,10.00579-6.86889,13.76207-1.30548,1.24454-3.14486,4.864-4.21943,1.01834,1.72018-8.8568,3.30008-18.71136,4.7445-27.46145,4.63516-.20687,5.84857,3.40054,6.78226,6.69321A7.44331,7.44331,0,0,1,136.21179,66.01734Z" fill="#e83b6f"/><path id="_Контур_10" data-name="&lt;Контур&gt;" d="M132.06118,130.57031c2.28226,1.43794,4.41578,3.40021,7.46853,2.12277a85.43288,85.43288,0,0,1-4.1673,12.97415c-.25841-.93576-.19184-2.28923-1.84-1.2389-1.40834.8975-2.762,2.33571-4.53922.47806-1.823-1.90547-.60211-4.09429.35977-5.20494,2.948-3.40394,3.21774-5.511-1.72359-6.68763-.97143-.23133-1.98189-.94786-1.61623-2.26893.36679-1.32515,1.53475-1.27093,2.55336-1.097C129.74261,129.8504,130.89445,130.254,132.06118,130.57031Z" fill="#f0cc00"/><path id="_Контур_11" data-name="&lt;Контур&gt;" d="M155.48629,90.46276,154.47648,93.85c-1.46662-.6494-2.88092-1.47377-3.51,1.06023-.45179,1.8198-.54735,3.82083-1.96218,5.30776a2.59433,2.59433,0,0,1-2.2793.00588c-1.61948-1.55583-2.96542-3.20759-1.97764-5.67165q3.14217-7.42992,6.28436-14.85984c3.93482-2.16107,5.64215-.12794,6.51928,3.4684l-1.02931,4.14717c-.65811-.18174-.8327-1.05462-1.4786-1.1044-.14682-.01131.09966.81462.15136,1.25608C155.31147,88.459,155.30025,89.47055,155.48629,90.46276Z" fill="#7a2983"/><path id="_Контур_12" data-name="&lt;Контур&gt;" d="M122.27963,95.31669c3.10019,5.09384,3.10108,5.09457,7.019.3165.72713-.88677,1.16266-2.3087,2.73118-1.78543,1.50287.50138.98372,2.00479,1.333,3.07589-.11647,3.46214-1.26555,6.934.08859,10.38474-.7048,3.73469-2.93809,2.99483-5.32342,1.82624a2.34643,2.34643,0,0,1-.855-1.2957,2.38126,2.38126,0,0,1,.39-1.488c1.31107-2.5313-1.33987-3.07626-2.33755-4.298-1.43427-1.75634-3.07918-3.31368-3.82184-5.53406C121.971,96.43156,122.13208,96.00893,122.27963,95.31669Z" fill="#e84171"/><path id="_Контур_13" data-name="&lt;Контур&gt;" d="M141.66567,127.50957c-.59595-3.13589-3.89006-3.65146-5.60734-3.64884-5.28689.00806-6.39258-4.58661-9.32266-7.12189a3.34973,3.34973,0,0,1-.80377-1.32067c-.19457-1.40058.0455-2.61014,1.45879-3.29947a5.08285,5.08285,0,0,1,3.65083.81238,10.70525,10.70525,0,0,1,1.75907,1.32436c1.30789,2.259,4.90981,1.64506,5.73176,4.48737a.50476.50476,0,0,1-.60556.38943c.52712.24814.55962-.44776.97454-.49057a10.936,10.936,0,0,1,4.02254,4.70784C142.80476,124.82717,142.4007,125.39216,141.66567,127.50957Z" fill="#f8cb00"/><path id="_Контур_14" data-name="&lt;Контур&gt;" d="M127.51038,162.56288c-4.622.85239-9.53706,2.65909-14.30761.51871.3518-3.08352,3.02515-3.15226,5.13092-3.95805,2.575-.43643,5.19675-.698,7.70878-1.37023,1.70142-.45531,3.31244-.88606,3.54573,1.09333A19.10843,19.10843,0,0,1,127.51038,162.56288Z" fill="#e69b06"/><path id="_Контур_15" data-name="&lt;Контур&gt;" d="M142.92388,123.3495c-2.40653-.52494-3.23554-2.70418-4.56391-4.35975l-.01492-.018c-1.862-1.7625-5.40075-1.05106-6.28-4.2637,6.28625-3.94421,8.55405-3.57643,12.68879,2.05777A37.18177,37.18177,0,0,1,142.92388,123.3495Z" fill="#eeaf10"/><path id="_Контур_16" data-name="&lt;Контур&gt;" d="M55.57621,95.72225c.49854,3.8793,4.00846,8.60706-2.92322,10.39244q-1.16245-1.87213-2.32463-3.74331c-.421-2.12035-1.27467-4.24827.11066-6.337A4.64782,4.64782,0,0,1,55.57621,95.72225Z" fill="#ef9925"/><path id="_Контур_17" data-name="&lt;Контур&gt;" d="M136.21179,66.01734c1.25495-5.91545-2.17891-9.4813-6.3436-12.681.24708-2.6982,2.02455-4.18116,4.35394-3.95073,2.23207.2208,3.4655,2.43064,3.3753,4.58992-.244,5.84171-.2198,15.154-1.27885,21.22614C136.27322,73.3836,136.25732,67.83587,136.21179,66.01734Z" fill="#eb5b9a"/><path id="_Контур_18" data-name="&lt;Контур&gt;" d="M152.86766,99.145c-.6359,2.097-3.66631,8.364-5.37351,11.88867-5.23053,2.445-6.96816,1.80728-10.2877-3.77591l.72582-1.12038C141.93234,104.482,148.66082,100.14309,152.86766,99.145Z" fill="#762c76"/><path id="_Контур_19" data-name="&lt;Контур&gt;" d="M137.50674,106.79426c3.10989,2.13185,5.36571,6.24065,9.98843,4.23739q-1.37188,2.86972-2.74153,5.73473c-3.6632-4.184-8.11559-3.494-12.68863-2.05843q-.58445-.47211-1.169-.94437c1.38025-1.91055,6.18687-1.72407,3.67567-6.01631A5.83907,5.83907,0,0,0,137.50674,106.79426Z" fill="#ef8d1f"/><path id="_Контур_20" data-name="&lt;Контур&gt;" d="M85.73246,138.47137l-.85939.66071c-1.66933.51394-3.78482.21556-4.49611,2.4738a14.22379,14.22379,0,0,0-2.92534,5.4752,51.37628,51.37628,0,0,1-3.5735-5.9274c1.77668-2.96683,5.14171-3.903,7.75065-5.72347C84.34864,133.53229,84.75311,136.85342,85.73246,138.47137Z" fill="#009c5c"/><path id="_Контур_21" data-name="&lt;Контур&gt;" d="M150.2716,102.24931c-3.38954,3.594-7.69881,4.26375-12.33826,3.88756q1.28112-2.06681,2.5644-4.13469c1.68974-1.97453,3.93658-2.29457,6.34333-2.13967l2.08644.04384c1.08565.41418,1.74977,1.06715,1.32234,2.33845Z" fill="#852b7e"/><path id="_Контур_22" data-name="&lt;Контур&gt;" d="M134.57169,107.74728c1.047,1.21509,4.02186,1.77373,2.895,3.59434-1.2245,1.97841-4.12277,2.23077-6.57031,2.42162q-1.58331-.54076-3.16583-1.08222a3.14622,3.14622,0,0,1-.67363-3.32137,1.53334,1.53334,0,0,1,1.29623-1.05825c2.03791,1.4164,3.8543,1.69467,5.09579-.99305A1.23277,1.23277,0,0,0,134.57169,107.74728Z" fill="#e14633"/><path id="_Контур_23" data-name="&lt;Контур&gt;" d="M119.43565,49.1159c-4.24085-.759-5.22516-4.79241-7.17119-7.59466a3.65173,3.65173,0,0,1,4.79635-2.23879c2.19286.77647,2.57589,2.80489,2.56536,4.73313C119.61689,45.716,119.50322,47.41582,119.43565,49.1159Z" fill="#ed6c30"/><path id="_Контур_24" data-name="&lt;Контур&gt;" d="M150.24984,102.24479q-.66067-1.16938-1.32183-2.33862a14.809,14.809,0,0,1,.986-5.64327c.39989-1.25131-.06565-3.11668,1.92458-3.17725,1.64823-.05016,2.37846,1.24407,2.63749,2.76519C153.27051,96.75058,153.50168,100.376,150.24984,102.24479Z" fill="#6d2a75"/><path id="_Контур_25" data-name="&lt;Контур&gt;" d="M157.551,83.16075a7.094,7.094,0,0,0-6.51968-3.46764c.43694-1.45712,2.85939-5.0384,5.013-4.13139C159.62463,77.06962,158.60242,79.68185,157.551,83.16075Z" fill="#be4793"/><path id="_Контур_26" data-name="&lt;Контур&gt;" d="M146.84106,99.8625c-1.67939,2.00528-4.16854,1.60576-6.34334,2.13971q2.12472-3.7245,4.24952-7.44948Q145.79424,97.20708,146.84106,99.8625Z" fill="#a32783"/><path id="_Контур_27" data-name="&lt;Контур&gt;" d="M155.48629,90.46276c-1.37062-.64748-1.29112-1.975-1.3278-3.13866-.04183-1.32711-2.9686-2.91907-.42431-3.75053,2.79647-.91388,2.41054,2.023,2.78713,3.73606C156.06868,88.57944,156.02423,88.86861,155.48629,90.46276Z" fill="#6b2570"/><path id="_Контур_28" data-name="&lt;Контур&gt;" d="M89.41739,92.62677c2.31893.50156.96915,6.54189,1.417,9.8141a49.74624,49.74624,0,0,1,.04616,6.775l-.45815.02227-.45765-.03943C89.77612,103.67409,90.75583,98.11208,89.41739,92.62677Z" fill="#085d33"/><path id="_Контур_29" data-name="&lt;Контур&gt;" d="M50.439,96.03435c-.00135,2.11331.97163,4.2433-.10951,6.33758C48.5548,100.22737,48.4472,97.79956,50.439,96.03435Z" fill="#65a54e"/><path id="_Контур_30" data-name="&lt;Контур&gt;" d="M100.30056,152.2911c-4.725-4.87027-5.77516-11.80457-9.625-17.16651.81265-2.35283,3.93971-4.46457.71184-7.31359-.18188-.16053.88263-1.73569,1.367-2.65244a13.969,13.969,0,0,1,1.462-.83959c6.53852-1.00571,12.456-.49871,15.69405,6.49264.035.27907.06807.55917.10114.83926-1.39681,4.90366-2.79356,9.80733-1.29039,14.96154,1.15077,1.33158.37751,2.92242.5895,4.37833-1.7611,3.99252-4.92842,3.15005-8.08385,2.35512A2.07748,2.07748,0,0,1,100.30056,152.2911Z" fill="#00a3b1"/><path id="_Контур_31" data-name="&lt;Контур&gt;" d="M92.97,110.11364l3.197-3.71643c.67968-.9821.9115-2.2498,1.91794-3.02816,1.04246-.642,2.07658-1.47932,3.24658-.21866,1.0624,1.78919,2.57043,2.51354,4.0454.77994,1.40668-1.65335,3.22123-1.621,4.98446-2.028a5.56932,5.56932,0,0,1,5.8319,2.31109c1.38666,2.32042-.40273,3.413-1.78668,4.66405-5.35082,1.8434-10.98353,2.78725-16.1627,5.30139-1.69807.8243-2.935,1.64067-3.65008,3.31288a.98962.98962,0,0,1-1.26667.33716Q93.14861,113.97128,92.97,110.11364Z" fill="#00a2af"/><path id="_Контур_32" data-name="&lt;Контур&gt;" d="M93.32721,117.82892q.344-.04486.6892-.07969c2.02465-1.5432,4.59716-1.44812,6.87183-2.26376,2.60907-.93556,4.34065.2712,5.11865,2.888a2.82094,2.82094,0,0,1-1.11386,2.03836c-3.62364,2.36237-7.70244,1.37926-11.62584,1.55985Z" fill="#00828f"/><path id="_Контур_33" data-name="&lt;Контур&gt;" d="M93.26719,121.97167c1.0106-1.15618,1.93568-2.59506,3.80372-1.50676,2.618,1.52526,4.97371-.792,7.50249-.46246.47486,2.50937-1.5997,3.00223-3.10611,3.94885-2.38851,1.12731-5.09713.32392-7.52335,1.2441q-.59394-.01789-1.18871-.03631Q93.01039,123.56485,93.26719,121.97167Z" fill="#006f86"/><path id="_Контур_34" data-name="&lt;Контур&gt;" d="M113.97669,108.36731c.64354-1.43559,2.33369-2.31177,2.21654-4.15395q1.05553.53429,2.11083,1.06844a2.62514,2.62514,0,0,1,.65894,2.46118C117.53063,109.77738,116.11651,111.98563,113.97669,108.36731Z" fill="#009984"/><path id="_Контур_35" data-name="&lt;Контур&gt;" d="M118.5,107.29744q-.09783-1.00778-.1958-2.0156a17.49064,17.49064,0,0,0,9.35849,1.069.81217.81217,0,0,1,.04759.88458A7.36694,7.36694,0,0,1,118.5,107.29744Z" fill="#0095a2"/><path id="_Контур_36" data-name="&lt;Контур&gt;" d="M101.39251,123.128l3.181-3.12566q.5269-.54818,1.05412-1.09661c1.29979-1.05182,1.45145-2.6732,2.08484-4.07079,2.2638-4.99513,6.46572-5.82294,10.33185-1.93506,1.70494,1.71453,4.13914,1.64494,5.91047,3.02815,1.10074,2.59761-1.92156,3.37316-2.33609,5.30148-.98933.75468-2.18043,1.32986-2.43367,2.74039-3.46064,2.0801-5.21081,6.20532-9.174,7.68175l-.34516-.37962c-1.18764-1.98813.62507-3.20986,1.41926-5.032C107.90855,124.85222,103.82026,126.31079,101.39251,123.128Z" fill="#007f99"/><path id="_Контур_37" data-name="&lt;Контур&gt;" d="M116.20739,157.01627c-2.27427-.26061-2.6863-2.0988-1.74712-3.37663,1.66162-2.26078,2.44711-5.641,5.91114-6.074,1.67136-.20888,3.65055-.51763,4.747,1.29035,1.28693,2.12216.23454,3.41752-1.69841,4.621-2.01344,1.25362-4.94726.8801-6.16538,3.49205C116.92839,157.49347,116.58043,157.53377,116.20739,157.01627Z" fill="#eacd00"/><path id="_Контур_38" data-name="&lt;Контур&gt;" d="M116.20739,157.01627q.52429-.01036,1.04733-.04668a2.2217,2.2217,0,0,0,1.07882,2.154q-2.5674,1.98017-5.13293,3.95921-1.40448.13228-2.81327.26693c-1.59723.75156-3.15151.62842-3.7835-1.11291a4.31465,4.31465,0,0,1,1.51337-5.37242q.4203.1257.84223.25172c-.10865,2.09915-.61184,4.66693,2.93227,2.5744C113.34865,158.83029,114.7699,157.90951,116.20739,157.01627Z" fill="#d5ac00"/><path id="_Контур_39" data-name="&lt;Контур&gt;" d="M108.87661,151.70612q-.07822-2.549-.15594-5.09584c2.03254,2.33929,1.62314,6.97116.23826,10.50561l-.31676-.202a3.31814,3.31814,0,0,1-.93739-2.23525A3.6588,3.6588,0,0,1,108.87661,151.70612Z" fill="#d5ac00"/><path id="_Контур_40" data-name="&lt;Контур&gt;" d="M108.52812,155.01195q.05716.95066.11418,1.90165c-.506,2.441-3.98722,5.68986,1.745,6.43616-2.24134,1.65785-4.62371.65492-6.95377.33212-1.09088-.15113-2.21406-.7231-1.64316-2.00223,1.56859-3.51447-1.25845-6.22617-1.4896-9.38831q.67826.32188,1.35685.64425C103.98068,153.51859,105.77083,155.86822,108.52812,155.01195Z" fill="#006d7d"/><path id="_Контур_41" data-name="&lt;Контур&gt;" d="M80.377,141.60588c-.46143-4.392,1.83368-3.765,4.49516-2.47323C83.86259,140.84561,82.13311,141.25,80.377,141.60588Z" fill="#00953f"/><path id="_Контур_42" data-name="&lt;Контур&gt;" d="M101.33157,103.15039l-2.96927,1.23682c-4.31832-1.35676-3.55219-5.85187-5.38642-8.74193-1.5851-2.57354-.79977-5.5036-1.23957-8.24863q3.04652,3.13445,6.09743,6.26464c.58981.60257,1.83,1.35257,1.72118,1.73627-1.44507,5.093.17635,5.575,4.15037,2.95624a1.39822,1.39822,0,0,1,2.18771.64486c.488,1.11959-.47827,1.66-1.30061,1.81387A3.97454,3.97454,0,0,0,101.33157,103.15039Z" fill="#007637"/><path id="_Контур_43" data-name="&lt;Контур&gt;" d="M90.86643,85.04941a16.708,16.708,0,0,1-1.48259-10.309c.77174-4.56276.369-9.32451.47531-14,2.91513,3.54038,1.1314,8.15789,2.82507,12.16931,1.17818,2.79048,3.92524,7.2965-1.67876,9.61612C90.66907,82.66507,90.89966,84.17649,90.86643,85.04941Z" fill="#007c3d"/><path id="_Контур_44" data-name="&lt;Контур&gt;" d="M92.97589,95.64528c3.25078,2.01514,2.66455,6.39905,5.38648,8.74129q-1.09746,1.00558-2.19507,2.01026C94.94754,102.85955,91.71192,99.92133,92.97589,95.64528Z" fill="#006732"/><path id="_Контур_45" data-name="&lt;Контур&gt;" d="M121.61874,121.22948c-.424-2.26889,2.67384-3.21662,2.07825-5.54986-.49974-.747.01072-1.03641.58615-1.29892a2.75551,2.75551,0,0,1,2.09555,1.06987q.17874.64465.35724,1.2888A13.85733,13.85733,0,0,1,121.61874,121.22948Z" fill="#c75225"/><path id="_Контур_46" data-name="&lt;Контур&gt;" d="M124.56059,114.99511q-.432.34265-.86384.6849c-3.20339,2.02119-5.874-.3694-6.98769-2.25393-1.17864-1.9945-1.98384-2.28575-3.8163-1.87453a4.57721,4.57721,0,0,0-3.91631,4.35207c-.21479,1.9319-.97268,3.41119-3.34857,3.00236-1.33027-2.38659-2.72421-3.81006-5.5918-1.59236-1.66955,1.29117-3.98328.50332-6.0198.437-.22479-2.93009.08907-4.04864,3.95727-5.00991,5.2976-1.31648,10.35238-3.94953,16.00441-4.37351,2.08236,2.08615,3.32766.6242,4.5201-1.06968q4.60844-.03027,9.21262-.06128.32086.53178.6425,1.0652l-.423.974C125.98327,110.69587,125.8323,113.1762,124.56059,114.99511Z" fill="#0091a7"/><path id="_Контур_47" data-name="&lt;Контур&gt;" d="M124.56058,114.99511c-.33256-2.76518-.29548-5.31214,3.36949-5.71852q-.09958,1.70043-.19942,3.40379-.67491,1.38588-1.35083,2.77033C125.74507,115.40907,124.99548,115.83127,124.56058,114.99511Z" fill="#009b56"/><path id="_Контур_48" data-name="&lt;Контур&gt;" d="M138.36,118.98976c-.27329,1.58307-.52715,3.25314-2.7988,2.55332a1.2243,1.2243,0,0,1-.86757-1.62518c.80018-1.67462,2.4-.73471,3.652-.94651Z" fill="#f5e337"/><path id="_Контур_49" data-name="&lt;Контур&gt;" d="M101.39251,123.128a21.5148,21.5148,0,0,0,7.62783,1.116c1.59589-.13182,3.56628.07875,4.1436,1.52606.75916,1.90315-1.39492,2.29528-2.58377,3.18919-.56518.425-.624,1.5245-.91325,2.31564-3.87077-5.58073-9.4678-6.68123-15.72248-6.0788C96.14707,123.49667,99.03125,124.256,101.39251,123.128Z" fill="#008da9"/><path id="_Контур_50" data-name="&lt;Контур&gt;" d="M108.52812,155.01195c-3.64784,3.80118-4.89874-.34284-6.87344-2.07724,2.37245-.62472,4.983.1675,7.22179-1.22838Q108.70243,153.35893,108.52812,155.01195Z" fill="#008a9f"/><path id="_Контур_51" data-name="&lt;Контур&gt;" d="M104.59948,122.942c2.362-2.45625,4.04155-1.83152,6.54139-1.41009C109.029,123.76975,107.25134,123.064,104.59948,122.942Z" fill="#00678c"/></g><g id="_Группа_2" data-name="&lt;Группа&gt;"><path id="_Составной_контур_2" data-name="&lt;Составной контур&gt;" d="M412.46654,204.54911l-66.035-171.53048h-45.7331L234.40712,204.55217h41.62836l10.78994-29.063h73.48533l10.53556,29.063,41.62024-.00306ZM350.287,143.34642H296.84509L323.56351,69.5386,350.287,143.34642ZM469.35588,71.06014A66.75061,66.75061,0,1,1,422.19314,185.0054c-13.59934-13.6144-19.31788-29.7759-19.5509-48.786V33.01864h32.62828v47.404a66.3902,66.3902,0,0,1,34.08536-9.36245Zm24.10335,42.62445a34.14083,34.14083,0,1,0,9.98406,24.12666,33.96346,33.96346,0,0,0-9.98406-24.12666ZM614.73512,71.06014A66.75061,66.75061,0,1,1,567.57949,185.0054c-13.6004-13.6144-19.31993-29.7759-19.55394-48.786V33.01864h32.63029v47.404a66.382,66.382,0,0,1,34.07928-9.36245Zm24.10441,42.62445a34.13842,34.13842,0,1,0,9.98506,24.12666,33.95811,33.95811,0,0,0-9.98506-24.12666Zm87.17932,90.86453V71.11513H693.38849v133.436l32.63036-.002Zm78.573.00814a66.76562,66.76562,0,1,1,66.68821-66.75212q0,28.20956.02136,56.4079c-.76315,41.85655-27.92115,58.787-66.909,58.787-21.32451,0-37.76374-4.88949-53.43889-18.52019l14.64538-23.66021c10.0207,11.06119,23.12755,15.43537,38.79351,15.43537,19.13982,0,34.27261-10.663,34.27261-31.06422a66.28189,66.28189,0,0,1-34.07319,9.36651Zm-24.10236-42.62851a34.1409,34.1409,0,1,0-9.983-24.1236,33.96785,33.96785,0,0,0,9.983,24.1236Zm135.45315,42.62037V33.02169H883.3144V204.55216l32.62825-.003Z" fill="#fff"/><g id="_Группа_3" data-name="&lt;Группа&gt;"><path id="_Составной_контур_3" data-name="&lt;Составной контур&gt;" d="M942.78018,200.04318c-5.11413-21.56835-3.90426-66.22012-2.80536-94.946.4538-11.90955-.36735-25.82337,8.416-28.789,5.4377-1.83318,19.69436-2.18556,23.849.7017,4.80783,3.34453,4.87807,19.16791,5.61271,28.08327,1.58431,19.22495,2.34562,39.37788,2.10326,60.38081.04421,11.42657-.31257,30.01346-2.01363,34.65221C972.2528,205.64248,949.23337,206.498,942.78018,200.04318Zm21.74875-73.8828h0" fill="#fff"/></g><ellipse id="_Контур_52" data-name="&lt;Контур&gt;" cx="958.08693" cy="51.24959" rx="15.39021" ry="18.23198" fill="#fff"/></g></svg>