<svg xmlns="http://www.w3.org/2000/svg" viewBox="0 0 33.414 36">
<path d="M28.244,25.066c-1.78-0.62-3.892-1.078-6.193-1.357c2.882-4.297,5.791-9.593,5.795-13.462
	C27.852,4.945,22.859,0,16.707,0C10.556,0,5.568,4.945,5.568,10.247c0,3.923,2.761,9.216,5.497,13.499
	c-2.186,0.281-4.193,0.728-5.896,1.32C1.787,26.246,0,27.848,0,29.697s1.787,3.451,5.17,4.631C8.263,35.406,12.36,36,16.707,36
	s8.444-0.594,11.537-1.672c3.382-1.18,5.17-2.781,5.17-4.631S31.626,26.246,28.244,25.066z M16.707,4.383
	c3.538,0,6.405,2.868,6.405,6.406s-2.867,6.406-6.405,6.406s-6.405-2.868-6.405-6.406S13.169,4.383,16.707,4.383z M27.762,32.944
	c-2.941,1.026-6.867,1.591-11.055,1.591c-4.187,0-8.112-0.564-11.055-1.591c-2.622-0.914-4.188-2.128-4.188-3.247
	s1.565-2.333,4.188-3.247c1.791-0.624,3.949-1.077,6.308-1.337c2.354,3.521,4.458,6.074,4.458,6.074s2.215-2.574,4.694-6.109
	c2.491,0.252,4.771,0.718,6.649,1.372c2.622,0.914,4.188,2.128,4.188,3.247S30.384,32.03,27.762,32.944z"/>
</svg>
