<svg id="Слой_1" xmlns="http://www.w3.org/2000/svg" viewBox="0 0 195.6 104.9"><style>.st1{fill:#fff}</style><path d="M124.2 17.1l-7.6 6.4c-.7.6-1.8.5-2.4-.2l-1-1.2c-.6-.7-.5-1.8.2-2.4l7.6-6.5c.7-.6 1.8-.5 2.4.2l1 1.2c.6.8.5 1.9-.2 2.5zm21.4-11.4l-9.3 3.2c-.9.3-1.8-.2-2.1-1.1l-.5-1.5c-.3-.9.2-1.8 1.1-2.1l9.3-3.2c.9-.3 1.8.2 2.1 1.1l.5 1.5c.2.9-.2 1.8-1.1 2.1zm24.4.4L160.2 5c-.9-.1-1.6-.9-1.5-1.9l.2-1.6c.1-.9.9-1.6 1.9-1.5l9.8 1.1c.9.1 1.6.9 1.5 1.9l-.2 1.6c-.2 1-1 1.6-1.9 1.5zm22.5 8.3l-8.9-4.3c-.8-.4-1.2-1.4-.8-2.3l.7-1.5c.4-.8 1.4-1.2 2.3-.8l8.9 4.3c.8.4 1.2 1.4.8 2.3l-.7 1.5c-.4.9-1.4 1.2-2.3.8zm-135 75l7.4-6.5c.7-.6 1.8-.5 2.4.2l1.1 1.2c.6.7.5 1.8-.2 2.4l-7.4 6.5c-.7.6-1.8.5-2.4-.2l-1.1-1.2c-.6-.8-.5-1.8.2-2.4zm-18.6 9.5l9.3-3.2c.9-.3 1.8.2 2.1 1l.5 1.5c.3.9-.2 1.8-1 2.1l-9.3 3.2c-.9.3-1.8-.2-2.1-1l-.5-1.5c-.3-.8.1-1.8 1-2.1zm-19.5-.7l9.8 1.5c.9.1 1.6 1 1.4 1.9l-.2 1.6c-.1.9-1 1.6-1.9 1.4l-9.8-1.5c-.9-.1-1.6-1-1.4-1.9l.2-1.6c.1-.9 1-1.5 1.9-1.4zM3.8 87.7l7.8 6.1c.7.6.9 1.6.3 2.4l-1 1.3c-.6.7-1.6.9-2.4.3L.7 91.7c-.7-.6-.9-1.6-.3-2.4l1-1.3c.6-.8 1.6-.9 2.4-.3z" fill="#d6d7d7"/><circle class="st1" cx="92" cy="58.2" r="24" id="Эллипс_1_копия_2"/><circle class="st1" cx="92" cy="58.2" r="23.8"/><path d="M90 86.1c-17.3 0-31.3-14-31.3-31.3s14-31.3 31.3-31.3 31.3 14 31.3 31.3-14 31.3-31.3 31.3zm0-56.6c-14 0-25.3 11.3-25.3 25.3S76 80.1 90 80.1s25.3-11.3 25.3-25.3c0-13.9-11.3-25.3-25.3-25.3zM138.9 91L121 73.6c-2.6 4.9-6.4 9-11 11.9l17.4 17c3.2 3.2 8.3 3.2 11.5 0 3.1-3.2 3.1-8.3 0-11.5z" fill="#a6cfe0"/></svg>