<svg xmlns="http://www.w3.org/2000/svg" viewBox="0 0 36 36">
<path d="M30.733,30.735c7.021-7.023,7.021-18.446,0.001-25.468C23.712-1.755,12.287-1.755,5.266,5.266
	c-7.021,7.022-7.021,18.445,0.002,25.469C12.287,37.755,23.712,37.755,30.733,30.735z M7.231,7.231
	c5.938-5.939,15.599-5.939,21.539,0c5.937,5.938,5.937,15.601-0.002,21.537c-5.938,5.939-15.6,5.941-21.537,0.004
	C1.29,22.833,1.292,13.168,7.231,7.231z M19.977,14.146c0-1.629,1.325-2.954,2.955-2.954c1.629,0,2.953,1.325,2.953,2.954
	c0,0.468-0.38,0.848-0.849,0.848s-0.849-0.38-0.849-0.848c0-0.694-0.563-1.257-1.256-1.257s-1.256,0.563-1.256,1.257
	c0,0.468-0.381,0.848-0.85,0.848S19.977,14.614,19.977,14.146z M10.567,14.136c0-1.629,1.326-2.954,2.955-2.954
	c1.627,0,2.953,1.325,2.953,2.954c0,0.469-0.381,0.848-0.849,0.848c-0.47,0-0.849-0.379-0.849-0.848
	c0-0.694-0.564-1.256-1.256-1.256c-0.694,0-1.258,0.562-1.258,1.256c0,0.469-0.38,0.848-0.849,0.848S10.567,14.605,10.567,14.136z
	 M10.191,21.721c-0.217-0.52,0.029-1.113,0.549-1.329c0.128-0.053,0.261-0.079,0.392-0.079c0.398,0,0.778,0.237,0.94,0.629
	c0.942,2.27,3.276,3.735,5.948,3.735c2.609,0,4.932-1.466,5.913-3.737c0.223-0.518,0.821-0.756,1.339-0.53
	c0.517,0.223,0.753,0.822,0.529,1.339c-1.305,3.016-4.359,4.965-7.782,4.965C14.524,26.713,11.45,24.755,10.191,21.721z"/>
</svg>
