<svg xmlns="http://www.w3.org/2000/svg" viewBox="0 0 46.02 46">
	<path d="M41.392,22.967l4.628-1.77C45.152,9.947,36.222,0.959,24.999,0.001l-1.937,4.617
		C33.179,4.647,41.373,12.848,41.392,22.967z M22.998,4.618L21.031,0C9.804,0.953,0.867,9.943,0,21.195l4.628,1.77
		C4.646,12.833,12.862,4.624,22.998,4.618z M4.628,23.035l-4.596,2.131c1.03,11.029,9.82,19.806,20.857,20.811l1.958-4.597
		C12.781,41.293,4.646,33.116,4.628,23.035z M23.01,41.382c-0.031,0-0.061-0.001-0.09-0.001L24.856,46
		c11.165-0.884,20.093-9.712,21.131-20.834l-4.596-2.133C41.373,33.17,33.15,41.382,23.01,41.382z M13.361,25.944l-4.046-10.85h-1.7
		v15.811h1.911V20.059l0.05-0.005l4.033,10.852h1.676V15.095H13.41v10.858L13.361,25.944z M24.033,16.895v-1.8h-5.621v15.811h5.721
		v-1.75h-3.611v-5.448h3.251v-1.799h-3.251v-5.014H24.033z M34.647,25.979l-1.791-10.884h-1.452L29.51,26.027h-0.05l-1.766-10.933
		h-1.85l2.644,15.811h1.673l1.852-11.156h0.063l1.898,11.156h1.7l2.729-15.811h-1.89l-1.803,10.884H34.647z"/>
</svg>
