<svg xmlns="http://www.w3.org/2000/svg" viewBox="19.074 0 57.334 95.482">
<g id="XMLID_1_">
    <g>
        <path d="M75.29,50.811c1.561,2.55,1.54,5.029-0.39,7.01c-2.95,3.04-6.51,5.229-10.46,6.76c-3.73,1.45-7.82,2.18-11.87,2.66
            c0.61,0.67,0.9,1,1.28,1.38c5.5,5.521,11.02,11.03,16.5,16.57c1.859,1.88,2.25,4.229,1.229,6.42
            c-1.13,2.399-3.64,3.979-6.109,3.81c-1.561-0.109-2.78-0.88-3.87-1.979c-4.141-4.17-8.37-8.271-12.44-12.521
            c-1.18-1.239-1.75-1.01-2.79,0.07c-4.18,4.3-8.42,8.53-12.69,12.73c-1.91,1.89-4.19,2.229-6.41,1.149
            c-2.37-1.14-3.87-3.55-3.75-5.979c0.08-1.631,0.88-2.891,2.01-4.011c5.44-5.43,10.87-10.88,16.29-16.319
            c0.36-0.36,0.7-0.75,1.22-1.311c-7.4-0.77-14.08-2.59-19.79-7.06c-0.71-0.561-1.44-1.09-2.09-1.71c-2.5-2.41-2.75-5.16-0.77-7.99
            c1.69-2.43,4.53-3.08,7.49-1.68c0.57,0.27,1.11,0.6,1.64,0.97c10.65,7.31,25.27,7.51,35.96,0.32
            c1.06-0.811,2.189-1.471,3.51-1.811C71.54,47.64,73.92,48.571,75.29,50.811z"/>
        <path d="M47.841,0c13.36,0.04,24.09,10.97,24.02,24.48c-0.07,13.2-10.97,23.89-24.31,23.85c-13.21-0.05-24.03-10.99-23.96-24.22
            C23.671,10.74,34.5-0.039,47.841,0z M47.801,35.99c6.56-0.02,11.77-5.28,11.75-11.85c-0.02-6.56-5.25-11.79-11.81-11.8
            c-6.61-0.01-11.88,5.32-11.83,11.94C35.961,30.83,41.231,36.02,47.801,35.99z"/>
    </g>
    <g>
    </g>
</g>
</svg>
