<svg xmlns="http://www.w3.org/2000/svg" viewBox="0 0 12.912 15.975">
<path d="M2.34,9.239c0.802-1.365-0.258-1.664-0.425-2.654c-0.679-4.043,4.847-6.806,7.741-3.98
	c2.002,1.957,0.684,7.975-2.545,7.348C4.02,9.356,8.626,4.567,6.158,3.626c-2.006-0.765-3.071,2.337-2.12,3.878
	c-0.559,2.651-1.76,5.147-1.273,8.471c1.577-1.102,2.109-3.211,2.545-5.41c0.793,0.465,1.217,0.946,2.228,1.021
	c3.727,0.277,5.81-3.581,5.299-7.145c-0.452-3.157-3.722-4.764-7.21-4.388C2.869,0.352,0.12,2.498,0.006,5.565
	C-0.063,7.438,0.488,8.844,2.34,9.239z"/>
</svg>
