<svg xmlns="http://www.w3.org/2000/svg" viewBox="0 0 595.281 555.597">
<path d="M0,81.575v136.438c0,19.883,16.232,36.015,36.293,36.015h135.624c20.062,0,36.293-16.132,36.293-36.015
	s-16.231-36.015-36.293-36.015h-40.102c16.212-30.558,39.884-56.591,69.132-75.839c33.931-22.322,73.497-34.129,114.413-34.129
	c55.381,0,107.448,21.39,146.617,60.262c39.17,38.872,60.739,90.543,60.739,145.507c0,54.944-21.569,106.634-60.739,145.486
	c-39.169,38.871-91.236,60.282-146.617,60.282c-23.911,0-47.345-4.028-69.648-11.906c-21.55-7.64-41.59-18.711-59.567-32.938
	c-35.955-28.515-61.651-68.478-72.347-112.588c-4.683-19.347-24.308-31.252-43.772-26.589c-19.506,4.643-31.49,24.068-26.808,43.415
	c7.282,30.122,19.565,58.635,36.471,84.748c16.589,25.637,37.166,48.277,61.195,67.307c24.268,19.228,51.333,34.188,80.462,44.487
	c30.141,10.695,61.79,16.093,94.034,16.093c37.78,0,74.45-7.362,108.977-21.848c33.335-13.988,63.278-34.029,88.954-59.527
	c25.677-25.498,45.877-55.203,59.965-88.28c14.604-34.269,22.006-70.64,22.006-108.143c0-37.483-7.401-73.855-22.006-108.144
	c-14.088-33.077-34.268-62.762-59.965-88.28c-25.696-25.518-55.619-45.539-88.954-59.527C389.811,7.362,353.16,0,315.38,0
	c-55.241,0-108.678,15.954-154.534,46.135c-36.53,24.05-66.632,55.956-88.24,93.3v-57.86c0-19.883-16.251-36.015-36.293-36.015
	C16.271,45.56,0.001,61.691,0,81.575z"/>
</svg>
