<svg xmlns="http://www.w3.org/2000/svg" viewBox="0 0 595.281 555.597">
<path d="M558.969,45.56c-20.042,0-36.293,16.132-36.293,36.015v57.86c-21.608-37.344-51.71-69.25-88.24-93.3
	C388.579,15.954,335.143,0,279.901,0c-37.78,0-74.431,7.362-108.977,21.848c-33.335,13.988-63.258,34.01-88.954,59.527
	c-25.697,25.519-45.877,55.203-59.965,88.28C7.401,203.943,0,240.315,0,277.799c0,37.503,7.401,73.874,22.006,108.143
	c14.088,33.077,34.288,62.782,59.965,88.28c25.676,25.498,55.619,45.539,88.954,59.527c34.526,14.485,71.196,21.848,108.977,21.848
	c32.244,0,63.894-5.397,94.034-16.093c29.129-10.299,56.194-25.26,80.462-44.487c24.029-19.029,44.606-41.67,61.195-67.307
	c16.905-26.113,29.188-54.626,36.471-84.748c4.683-19.347-7.302-38.772-26.808-43.415c-19.465-4.663-39.09,7.242-43.772,26.589
	c-10.695,44.11-36.392,84.073-72.347,112.588c-17.978,14.228-38.018,25.299-59.567,32.938
	c-22.304,7.878-45.737,11.906-69.648,11.906c-55.381,0-107.448-21.411-146.617-60.282c-39.17-38.853-60.739-90.542-60.739-145.486
	c0-54.964,21.569-106.635,60.739-145.507c39.169-38.872,91.236-60.262,146.617-60.262c40.916,0,80.482,11.807,114.413,34.129
	c29.248,19.248,52.92,45.281,69.132,75.839h-40.102c-20.062,0-36.293,16.132-36.293,36.015s16.231,36.015,36.293,36.015h135.624
	c20.061,0,36.293-16.132,36.293-36.015V81.575C595.28,61.691,579.01,45.56,558.969,45.56z"/>
</svg>
