<svg xmlns="http://www.w3.org/2000/svg" viewBox="0 0 19.987 20">
<path d="M16.313,12.711c-1.168,0-2.197,0.553-2.869,1.396l-6.239-3.164C7.287,10.641,7.346,10.33,7.346,10
	c0-0.357-0.07-0.694-0.168-1.023l6.211-3.15c0.668,0.883,1.725,1.46,2.924,1.46c2.031,0,3.674-1.631,3.674-3.644S18.344,0,16.313,0
	c-2.027,0-3.672,1.631-3.672,3.644c0,0.329,0.059,0.642,0.141,0.945L6.547,7.754C5.873,6.909,4.842,6.356,3.674,6.356
	C1.643,6.356,0,7.988,0,10c0,2.012,1.643,3.644,3.674,3.644c1.199,0,2.254-0.579,2.926-1.463l6.209,3.149
	c-0.098,0.328-0.168,0.667-0.168,1.026c0,2.013,1.645,3.644,3.672,3.644c2.031,0,3.674-1.631,3.674-3.644
	C19.987,14.342,18.344,12.711,16.313,12.711z"/>
</svg>
