<svg xmlns="http://www.w3.org/2000/svg" viewBox="0 0 22 16">
<path d="M9.429,16v-2.572c0-2.09,4.194-3.142,6.286-3.142S22,11.338,22,13.428
	V16H9.429z M15.715,8c-1.577,0-2.857-1.28-2.857-2.857c0-1.578,1.28-2.857,2.857-2.857c1.578,0,2.846,1.279,2.846,2.857
	C18.561,6.72,17.293,8,15.715,8z M8,6.857c-1.897,0-3.428-1.531-3.428-3.428C4.572,1.531,6.103,0,8,0
	c1.897,0,3.418,1.531,3.418,3.429C11.418,5.326,9.897,6.857,8,6.857z M10.709,9.463C8.377,10.755,8,12.458,8,13.428V16H0v-2.857
	c0-2.663,5.337-4,8-4C8.754,9.143,9.715,9.256,10.709,9.463z"/>
</svg>
