<svg xmlns="http://www.w3.org/2000/svg" viewBox="0 0 24 30">
<path d="M22.327,15.946c-1.115-1.202-2.6-1.998-4.453-2.387v-0.162c1.29-0.537,2.301-1.376,3.032-2.519
	c0.732-1.141,1.099-2.444,1.099-3.908c0-1.263-0.266-2.377-0.796-3.345c-0.531-0.967-1.333-1.739-2.408-2.316
	c-0.994-0.537-2.058-0.89-3.193-1.058S12.803,0,10.6,0H0v30h12.011c2.081,0,3.799-0.188,5.147-0.564
	c1.351-0.376,2.59-1.007,3.718-1.895c0.955-0.738,1.714-1.672,2.277-2.801C23.717,23.612,24,22.304,24,20.813
	C24,18.771,23.442,17.148,22.327,15.946L22.327,15.946z M7.497,5.5h0.523c1.343,0,2.354,0.01,3.032,0.03
	c0.679,0.02,1.266,0.138,1.764,0.353c0.524,0.229,0.909,0.598,1.158,1.108c0.248,0.511,0.373,1.007,0.373,1.49
	c0,0.659-0.115,1.236-0.343,1.733c-0.229,0.498-0.645,0.887-1.249,1.169c-0.552,0.255-1.084,0.396-1.602,0.423s-1.42,0.04-2.71,0.04
	H7.497V5.5L7.497,5.5z M15.769,22.615c-0.315,0.571-0.816,1.005-1.501,1.3c-0.78,0.336-1.546,0.518-2.297,0.544
	C11.218,24.485,9.861,24.5,7.9,24.5H7.497v-7.516h1.39c1.344,0,2.415,0.01,3.214,0.03c0.8,0.02,1.428,0.118,1.884,0.292
	c0.753,0.269,1.316,0.665,1.693,1.188c0.376,0.524,0.564,1.249,0.564,2.176C16.242,21.396,16.084,22.045,15.769,22.615
	L15.769,22.615z"/>
</svg>
